<svg width="125" height="56" viewBox="0 0 125 56" fill="none" xmlns="http://www.w3.org/2000/svg">
<path d="M32 13.8824C28.2986 14.0058 24.7939 15.5788 22.2414 18.2622C19.6889 20.9456 18.2931 24.5246 18.3549 28.2275C18.4166 31.9305 19.9309 35.4609 22.5714 38.0577C25.2119 40.6546 28.7671 42.1098 32.4706 42.1098C36.174 42.1098 39.7292 40.6546 42.3697 38.0577C45.0102 35.4609 46.5245 31.9305 46.5862 28.2275C46.648 24.5246 45.2522 20.9456 42.6997 18.2622C40.1472 15.5788 36.6426 14.0058 32.9411 13.8824H32ZM51.7647 13.8824C48.0633 14.0058 44.5586 15.5788 42.0061 18.2622C39.4537 20.9456 38.0578 24.5246 38.1196 28.2275C38.1813 31.9305 39.6956 35.4609 42.3361 38.0577C44.9766 40.6546 48.5318 42.1098 52.2353 42.1098C55.9387 42.1098 59.4939 40.6546 62.1344 38.0577C64.7749 35.4609 66.2892 31.9305 66.351 28.2275C66.4127 24.5246 65.0169 20.9456 62.4644 18.2622C59.912 15.5788 56.4073 14.0058 52.7059 13.8824H51.7647ZM71.5294 13.8824C67.828 14.0058 64.3233 15.5788 61.7708 18.2622C59.2184 20.9456 57.8226 24.5246 57.8843 28.2275C57.946 31.9305 59.4603 35.4609 62.1008 38.0577C64.7413 40.6546 68.2965 42.1098 72 42.1098C75.7034 42.1098 79.2586 40.6546 81.8991 38.0577C84.5396 35.4609 86.0539 31.9305 86.1157 28.2275C86.1774 24.5246 84.7816 20.9456 82.2291 18.2622C79.6767 15.5788 76.172 14.0058 72.4706 13.8824H71.5294ZM91.2941 13.8824C87.5927 14.0058 84.088 15.5788 81.5355 18.2622C78.9831 20.9456 77.5873 24.5246 77.649 28.2275C77.7107 31.9305 79.2251 35.4609 81.8655 38.0577C84.506 40.6546 88.0612 42.1098 91.7647 42.1098C95.4681 42.1098 99.0233 40.6546 101.664 38.0577C104.304 35.4609 105.819 31.9305 105.88 28.2275C105.942 24.5246 104.546 20.9456 101.994 18.2622C99.4414 15.5788 95.9367 14.0058 92.2353 13.8824H91.2941Z" stroke="black" stroke-width="2.88235"/>
</svg>
