<svg width="232" height="56" viewBox="0 0 232 56" fill="none" xmlns="http://www.w3.org/2000/svg">
<g clip-path="url(#clip0_601_49868)">
<path d="M22.431 18.2394C22.7167 17.597 22.9622 17.0753 24.7602 17.0753H35.14C35.7124 17.0753 36.2841 16.7942 36.2841 15.9921V13.1436C36.2841 12.8207 36.6114 12.3788 37.4693 12.3788H58.9649C59.5775 12.3788 60.0686 12.7003 60.0686 13.4628V15.711C60.0686 16.3127 60.3544 16.9549 61.2534 16.9549H78.4986C79.1112 16.9549 79.9286 17.1149 79.5612 17.8783C79.1929 18.64 73.5948 29.7949 73.2151 30.5402C73.0694 30.8258 72.9559 31.2067 71.8224 31.2067H61.2216C60.719 31.2067 59.8934 31.2067 59.8934 32.1612V34.816C59.8934 35.1977 59.6025 35.7705 58.6795 35.7705H37.4114C36.7474 35.7705 36.262 35.4355 36.262 34.7842V32.4468C36.262 31.938 35.9865 31.1915 35.2098 31.1915H17.3569C16.7898 31.1915 16.2559 30.7619 16.5959 29.936C16.936 29.1086 22.431 18.2394 22.431 18.2394Z" fill="#C7D6EE"/>
<path d="M17.9606 28.695L18.4568 28.6964L23.3346 19.1642L22.8382 19.1628L17.9606 28.695Z" fill="url(#paint0_linear_601_49868)"/>
<path d="M35.252 30.0411H18.5548C17.9723 30.0411 17.768 29.7798 17.9948 29.335C19.2591 26.8651 23.4167 18.7429 23.5245 18.5272C23.6509 18.2736 23.9571 17.9636 24.5224 17.9636H35.727C36.8893 17.9636 37.0874 17.4646 37.0874 16.5633V13.8788C37.0874 13.5178 37.3312 13.2777 37.7601 13.2777H58.282C58.8331 13.2777 59.0773 13.4567 59.0773 13.8178V15.8009C59.0773 16.5824 58.9269 17.8438 60.7003 17.8438H77.6579C78.4194 17.8438 78.6172 18.3482 78.2141 19.1467C76.7134 22.1199 73.0208 29.1695 72.906 29.4087C72.7605 29.7127 72.3089 29.9802 71.5874 29.9802H60.4564C59.538 29.9802 58.621 30.5811 58.621 31.4831V33.774C58.621 34.1913 58.3658 34.4869 57.912 34.4869H37.9994C37.3834 34.4869 37.1483 34.1442 37.1483 33.6871V31.6029C37.1483 30.8822 36.6589 30.0411 35.252 30.0411Z" fill="#E9CF98"/>
<path d="M57.5191 29.5033L59.8579 31.8975C59.8579 31.8975 60.0249 31.3727 60.6589 31.2425L58.0399 28.8428C58.0399 28.8428 57.6192 29.0766 57.5191 29.5033Z" fill="white"/>
<path d="M35.3063 31.2089C35.3063 31.2089 36.2419 31.2424 36.2419 32.4559L38.4129 29.306L37.8117 28.8793L35.3063 31.2089Z" fill="white"/>
<path d="M58.3823 19.2814L60.8484 16.9206C60.8484 16.9206 60.5141 16.8804 60.1791 16.3463L57.7338 18.7893L58.3823 19.2814Z" fill="white"/>
<path d="M57.3159 14.4578L59.5942 12.5494C59.5942 12.5494 59.8452 12.6926 59.9495 12.9189L57.5668 15.0741L57.3159 14.4578Z" fill="white"/>
<path d="M36.3003 13.2404C36.3003 12.8451 36.6741 12.3788 37.2861 12.3788L39.0146 14.4776C39.0146 14.4776 38.4972 14.4776 38.4159 14.6649C38.3336 14.8524 38.2522 15.2539 38.2522 15.2539L36.3003 13.2404Z" fill="white"/>
<path d="M35.5542 17.0205C35.5542 17.0205 36.2929 16.9055 36.2929 16.13L38.0063 18.11L36.9142 18.8853L35.5542 17.0205Z" fill="white"/>
<path d="M48.2237 12.3788L48.145 13.2816H58.0185C58.3424 13.2816 58.5246 13.3616 58.6468 13.6001L59.7402 12.6455C59.7402 12.6455 59.4655 12.3788 58.965 12.3788H48.2237Z" fill="url(#paint1_linear_601_49868)"/>
<path d="M37.286 12.3788C37.0227 12.3788 36.7187 12.5067 36.5575 12.7048L37.266 13.4605C37.266 13.4605 37.4075 13.2816 37.9746 13.2816H48.145L48.2237 12.3788H37.286Z" fill="url(#paint2_linear_601_49868)"/>
<path d="M36.3004 13.2405V15.992C36.3004 16.424 36.2123 16.5298 36.2123 16.5298L36.9941 17.3457C36.9941 17.3457 37.1059 17.064 37.1059 16.8909V14.1646C37.1059 13.9925 37.1216 13.7416 37.1216 13.7416L36.3876 12.8488C36.3876 12.8488 36.3004 13.0049 36.3004 13.2405Z" fill="url(#paint3_linear_601_49868)"/>
<path d="M59.0932 13.6579C59.0932 13.6579 59.072 13.9779 59.072 14.15C59.072 14.3221 59.0932 16.6463 59.0932 16.8188C59.0932 16.9909 59.3484 17.3101 59.3484 17.3101L60.2839 16.4971C60.2839 16.4971 60.062 16.424 60.062 15.992V13.2405C60.062 13.0049 59.8658 12.8488 59.8658 12.8488L59.0932 13.6579Z" fill="url(#paint4_linear_601_49868)"/>
<path d="M35.1992 17.0784C34.906 17.0784 24.8336 17.0899 24.2969 17.0899C23.5181 17.0899 23.0601 17.4272 23.0601 17.4272L23.7008 18.2737C23.7008 18.2737 23.957 17.9635 24.5226 17.9635H35.8882C36.2841 17.9635 36.5815 17.7876 36.5815 17.7876L35.8388 16.9115C35.8388 16.9115 35.4741 17.0784 35.1992 17.0784Z" fill="url(#paint5_linear_601_49868)"/>
<path d="M17.6595 29.4088L16.4981 30.2087C16.4981 30.2087 16.406 30.5393 16.5796 30.8006C16.7535 31.0611 17.0191 31.1015 17.0191 31.1015L18.5308 30.041C18.5308 30.041 17.6752 30.0014 18.0312 29.379C18.3872 28.7567 18.3679 28.5221 18.3679 28.5221C18.3679 28.5221 17.9525 28.5891 17.6595 29.4088Z" fill="url(#paint6_linear_601_49868)"/>
<path d="M20.8488 21.5753C19.9226 23.4476 16.8119 29.4621 16.703 29.677C16.594 29.8909 16.4847 30.2651 16.4847 30.2651L17.6835 29.4088L23.3007 18.4177C23.3007 18.4177 21.7752 19.702 20.8488 21.5753Z" fill="url(#paint7_linear_601_49868)"/>
<path d="M18.5548 30.067L17.014 31.1556C17.014 31.1556 34.5641 31.1982 35.0074 31.1982C35.4502 31.1982 35.6362 31.2813 35.6362 31.2813L36.4266 30.3991C36.4266 30.3991 35.6716 30.067 35.2522 30.067H18.5548Z" fill="url(#paint8_linear_601_49868)"/>
<path d="M36.0864 31.7636C36.0864 31.7636 36.248 32.0826 36.248 32.3372V34.6164C36.248 34.9425 36.3774 35.2252 36.3774 35.2252L37.1485 34.3331V31.6028C37.1485 31.1671 36.9039 30.8006 36.9039 30.8006L36.0864 31.7636Z" fill="url(#paint9_linear_601_49868)"/>
<path d="M58.6186 31.3209V34.0512L59.8286 35.091C59.8286 35.091 59.8587 34.8137 59.8587 34.4885V32.2083C59.8587 31.9541 59.9336 31.794 59.9336 31.794L58.8757 30.755C58.8757 30.755 58.6186 30.8844 58.6186 31.3209Z" fill="url(#paint10_linear_601_49868)"/>
<path d="M57.7134 34.5068H48.1995V35.7751H58.7272C59.0851 35.7751 59.5024 35.5413 59.5817 35.4819L58.3886 34.3706C58.3886 34.3706 58.3099 34.5068 57.7134 34.5068Z" fill="url(#paint11_linear_601_49868)"/>
<path d="M36.7401 35.6167C36.7401 35.6167 36.9851 35.7874 37.6699 35.7874C38.354 35.7874 48.1995 35.7751 48.1995 35.7751V34.5068H38.0377C37.8538 34.5068 37.7308 34.4733 37.7308 34.4733L36.7401 35.6167Z" fill="url(#paint12_linear_601_49868)"/>
<path d="M39.4731 14.4517C38.922 14.4517 38.3717 14.7525 38.3717 15.3536V18.2981C38.3717 18.8984 38.0043 19.139 37.5762 19.139H25.3932C24.8983 19.139 24.5154 19.3418 24.2954 19.7508C24.1153 20.0868 21.0728 26.076 20.0896 28.0116C19.8764 28.4314 20.0626 28.6867 20.6097 28.6867H37.6379C38.3717 28.6867 38.4943 29.348 38.4943 30.0085V32.2966C38.4943 32.7181 38.9222 33.1988 39.4118 33.1988H47.9781V14.4517H39.4731Z" fill="url(#paint13_linear_601_49868)"/>
<path d="M59.4207 30.3183L60.4016 31.3086C60.4016 31.3086 60.6464 31.1754 61.7911 31.1754H72.2526C72.4701 31.1754 72.7698 31.0681 72.7698 31.0681L67.2398 29.9712C67.2398 29.9712 60.8374 29.9755 60.5378 29.9712C60.5266 29.9709 60.5153 29.9707 60.5041 29.9707C59.855 29.9707 59.4207 30.3183 59.4207 30.3183Z" fill="url(#paint14_linear_601_49868)"/>
<path d="M59.7889 17.6687C59.7889 17.6687 60.2671 17.8256 60.6576 17.8256H77.1294C77.6307 17.8256 77.9232 17.8622 77.9232 17.8622L79.2544 17.083C79.2544 17.083 78.8271 16.9632 78.4001 16.9632H61.2934C60.866 16.9632 60.6878 16.865 60.6878 16.865L59.7889 17.6687Z" fill="url(#paint15_linear_601_49868)"/>
<path d="M78.4086 18.2835C78.4086 18.2835 78.4839 18.694 78.3416 18.973C78.1996 19.2517 73.221 28.8688 72.9964 29.3105C72.7709 29.7518 72.263 29.9147 72.263 29.9147L72.8302 31.029C72.8302 31.029 73.0314 30.879 73.1499 30.7275C73.2681 30.5766 79.394 18.3337 79.5834 17.9043C79.7722 17.4745 79.6063 17.319 79.6063 17.319L78.4086 18.2835Z" fill="url(#paint16_linear_601_49868)"/>
<path d="M71.7348 29.9976C71.081 29.9976 67.403 30.0251 67.403 30.0251L72.6336 31.0681C72.6336 31.0681 72.9607 30.9354 73.1243 30.6666C73.288 30.3991 73.1238 30.3191 72.9333 30.4793C72.7431 30.6408 72.4162 30.3733 72.5791 30.1858C72.7431 29.9976 72.906 29.4088 72.906 29.4088C72.906 29.4088 72.389 29.9976 71.7348 29.9976Z" fill="url(#paint17_linear_601_49868)"/>
<path d="M23.0743 29.1696C19.6487 29.3942 18.5547 30.0303 18.5547 30.0303H34.913C36.7732 30.0303 36.5609 30.2801 36.5505 30.2914L37.8823 28.9081C37.8823 28.9081 34.6468 28.9081 32.5912 28.871C32.3298 28.8663 32.0366 28.864 31.7165 28.864C29.5194 28.864 26.0646 28.974 23.0743 29.1696ZM36.5501 30.2918C36.5501 30.2918 36.5503 30.2916 36.5505 30.2914L36.5501 30.2918Z" fill="url(#paint18_linear_601_49868)"/>
<path d="M61.6579 28.8711C60.2024 28.9081 57.9109 28.9081 57.9109 28.9081L59.4381 30.3206C59.4381 30.3206 59.5952 29.9901 60.9427 29.9901C62.2911 29.9901 72.0073 29.9572 72.0073 29.9572C72.0073 29.9572 72.1711 29.4355 69.3102 29.235C67.0565 29.0769 63.6555 28.8671 62.0115 28.8671C61.8823 28.8671 61.7641 28.8683 61.6579 28.8711Z" fill="url(#paint19_linear_601_49868)"/>
<path d="M58.1967 19.2867C58.1967 19.2867 60.4886 19.2867 61.9445 19.324C63.3999 19.3613 72.2233 18.9684 74.6504 18.7438C77.0768 18.5196 77.8511 17.8837 77.8511 17.8837C77.8511 17.8837 62.4237 17.9645 61.0758 17.9645C59.7287 17.9645 59.9167 17.7022 59.9167 17.7022L58.1967 19.2867Z" fill="url(#paint20_linear_601_49868)"/>
<path d="M36.9852 30.841C36.9852 30.841 37.1487 31.3621 37.1487 31.7636V33.5698C37.1487 34.0511 37.3125 34.2926 37.3125 34.2926L38.7018 32.9275C38.7018 32.9275 38.4943 32.4462 38.4943 32.0849V30.0487C38.4943 29.5778 38.3747 29.1948 38.3747 29.1948L36.9852 30.841Z" fill="url(#paint21_linear_601_49868)"/>
<path d="M57.3717 30.0372C57.3717 30.5081 57.3392 31.768 57.3392 32.1299C57.3392 32.4901 57.2546 32.9275 57.2546 32.9275L58.6439 34.2926C58.6439 34.2926 58.8078 34.0511 58.8078 33.5698V31.7636C58.8078 31.3621 58.9714 30.841 58.9714 30.841L57.4835 29.1567C57.4835 29.1567 57.3717 29.5674 57.3717 30.0372Z" fill="url(#paint22_linear_601_49868)"/>
<path d="M37.762 34.4527L47.8964 34.5327L47.9374 34.5318V33.1988L39.1104 33.1675L37.762 34.4527Z" fill="url(#paint23_linear_601_49868)"/>
<path d="M47.9781 33.1988H47.9373V34.5318L58.3579 34.4131L56.6826 33.1675L47.9781 33.1988Z" fill="url(#paint24_linear_601_49868)"/>
<path d="M37.8988 13.2741C37.6126 13.2741 37.3479 13.4255 37.3479 13.4255L38.6911 14.7236C38.6911 14.7236 38.8235 14.4417 39.7701 14.4417H47.9781V13.2741H37.8988Z" fill="url(#paint25_linear_601_49868)"/>
<path d="M47.9781 13.274V14.4417H56.1858C57.1324 14.4417 57.3284 14.8463 57.3284 14.8463L58.6712 13.5489C58.6712 13.5489 58.3437 13.274 58.0575 13.274H47.9781Z" fill="url(#paint26_linear_601_49868)"/>
<path d="M37.0919 14.4081V16.7652C37.0919 17.0449 36.9669 17.3761 36.9669 17.3761L38.2824 18.8425C38.2824 18.8425 38.3713 18.7207 38.3713 18.11C38.3713 17.4989 38.4243 15.1076 38.4243 15.1076L37.1093 13.6587C37.1093 13.6587 37.0919 14.0418 37.0919 14.4081Z" fill="url(#paint27_linear_601_49868)"/>
<path d="M57.3834 15.1357V18.0664C57.3834 18.6773 57.6744 18.8425 57.6744 18.8425L59.282 17.252C59.282 17.252 59.0724 16.9192 59.0724 16.6404C59.0724 16.3608 59.0588 14.6567 59.0588 14.2902C59.0588 13.9237 59.0751 13.5847 59.0751 13.5847L57.3834 15.1357Z" fill="url(#paint28_linear_601_49868)"/>
<path d="M36.0045 17.9962H24.726C24.3991 17.9962 23.8675 18.1166 23.7042 18.2775L24.726 19.3211C24.726 19.3211 25.0118 19.1207 25.7067 19.1207H37.4347C37.762 19.1207 38.0885 18.9996 38.0885 18.9996L36.7813 17.6755C36.7813 17.6755 36.454 17.9962 36.0045 17.9962Z" fill="url(#paint29_linear_601_49868)"/>
<path d="M71.1329 28.7308C71.1329 28.7308 71.7645 28.4977 71.962 29.2344C71.962 29.2344 72.1196 29.4676 72.5538 28.8465C72.9879 28.2266 77.0933 19.932 77.0528 19.8147C77.0131 19.6989 76.1843 19.5434 76.1843 19.5434L71.1329 28.7308Z" fill="url(#paint30_linear_601_49868)"/>
<path d="M76.3031 19.622C76.501 19.7378 76.6981 19.8933 76.4219 20.4744C76.1459 21.0548 72.9883 27.1027 72.3177 28.2652C71.6467 29.4278 72.2379 29.8932 72.2379 29.8932C72.2379 29.8932 72.7517 29.6601 72.906 29.4088C73.0615 29.1567 77.8825 19.7766 78.2143 19.1467C78.5462 18.5167 78.3159 18.2646 78.3159 18.2646L76.3031 19.622Z" fill="url(#paint31_linear_601_49868)"/>
<path d="M47.9781 14.4517V33.1988H56.4181C56.9071 33.1988 57.3356 33.0183 57.3356 32.4766V29.6807C57.3356 29.14 57.7022 28.7202 58.1309 28.7202H70.8631C71.3101 28.7202 71.7113 28.4635 71.9442 28.0408C72.9845 26.1514 75.8498 20.6723 76.0666 20.2306C76.3312 19.6914 76.1674 19.3791 75.5541 19.3791H58.6814C57.9476 19.3791 57.3961 18.8388 57.3961 18.1777V15.113C57.3961 14.6923 57.1517 14.4517 56.6012 14.4517H47.9781Z" fill="url(#paint32_linear_601_49868)"/>
<path d="M18.4169 29.5086L20.0503 28.5358C20.0503 28.5358 19.8632 28.4558 20.1572 27.8776C20.4517 27.2994 23.2097 21.7764 23.2097 21.7764L22.5943 21.6455L18.4169 29.5086Z" fill="url(#paint33_linear_601_49868)"/>
<path d="M18.269 28.7933C17.8602 29.5161 17.9425 29.7966 17.9425 29.7966L18.923 29.1544C18.923 29.1544 23.2954 20.8463 23.7449 19.8826C24.1946 18.9196 23.5245 18.5273 23.5245 18.5273C23.5245 18.5273 18.6778 28.0712 18.269 28.7933Z" fill="url(#paint34_linear_601_49868)"/>
<path d="M18.9306 30.0647C18.8657 30.1074 18.2681 30.1797 18.1514 30.0647C18.0343 29.9505 17.8389 29.8613 17.9951 29.7334C18.1514 29.6053 20.0734 28.4833 20.0734 28.4833C20.0734 28.4833 19.84 28.6106 21.8148 28.6106H37.6122C38.028 28.6106 38.4174 28.8908 38.4696 29.0698C38.5218 29.2488 38.4177 29.325 38.2878 29.2998C38.1584 29.274 37.8201 29.1719 37.7422 29.044C37.6644 28.9167 37.8462 28.8146 36.7027 28.8146C35.5595 28.8146 26.8295 28.9425 24.8551 29.1208C22.8804 29.2998 20.2813 29.1719 18.9306 30.0647Z" fill="white"/>
<path d="M77.2801 17.9171C77.3448 17.8752 77.943 17.8029 78.0597 17.9171C78.1764 18.0321 78.3718 18.1213 78.2156 18.2492C78.0597 18.3765 76.1371 19.4993 76.1371 19.4993C76.1371 19.4993 76.3703 19.372 74.3959 19.372H58.5981C58.1823 19.372 57.7928 19.0918 57.7411 18.9128C57.6889 18.7336 57.7926 18.6567 57.922 18.6828C58.0527 18.7086 58.3902 18.8107 58.4685 18.9378C58.5463 19.0659 58.3641 19.1672 59.5078 19.1672C60.6514 19.1672 69.3804 19.0401 71.356 18.8617C73.3301 18.6828 75.9294 18.8107 77.2801 17.9171Z" fill="white"/>
<path d="M24.0311 19.3934C24.0311 19.2128 24.1332 18.8717 24.0517 18.7719C23.9698 18.6713 24.215 18.5509 24.3786 18.6507C24.5419 18.7513 24.8892 18.8313 24.9299 18.9119C24.9709 18.9919 24.9096 19.1924 24.6849 19.273C24.4601 19.353 24.2558 19.5337 23.9085 20.2756C23.561 21.019 21.5788 24.7915 21.5788 24.7915C21.5788 24.7915 21.8652 24.1898 21.7426 24.1691C21.62 24.1493 21.3342 24.6513 21.3342 24.6513L24.0311 19.3934Z" fill="white"/>
<path d="M37.693 19.0385C37.5239 19.0552 37.4766 18.8733 37.6209 18.8495C37.766 18.8258 37.9579 18.8145 38.1262 18.1638C38.2952 17.5133 38.175 15.5396 38.1506 15.1852C38.1262 14.8304 37.9582 14.4051 38.1991 14.2161C38.4395 14.0265 38.6081 14.4289 39.2342 14.4289C39.8597 14.4289 41.2802 14.3816 41.2802 14.3816C41.2802 14.3816 39.2823 14.5226 38.9448 14.5706C38.6079 14.6178 38.319 14.8775 38.3669 15.3506C38.4155 15.8236 38.2952 18.259 38.1991 18.5189C38.1026 18.7787 37.9338 19.0147 37.693 19.0385Z" fill="white"/>
<path d="M51.1722 14.3961C50.9072 14.4082 56.2478 14.4578 56.5844 14.4578C56.9215 14.4578 57.3065 14.5582 57.3791 14.8889C57.4512 15.2204 57.4001 16.3053 57.4001 16.3053C57.4001 16.3053 57.566 14.9126 57.8068 14.6528C58.0473 14.3922 57.9752 14.0144 57.6623 14.0844C57.3492 14.1561 54.8708 14.2323 51.1722 14.3961Z" fill="white"/>
<path d="M58.3041 28.89C58.136 28.8657 57.9439 28.8428 57.8953 28.9844C57.8471 29.1253 58.1112 29.2199 57.8471 29.3607C57.5836 29.5024 57.3872 29.5893 57.3872 29.4714C57.3872 29.3532 57.5234 28.7475 58.0279 28.7475C58.5321 28.7475 70.9805 28.724 71.1737 28.724C71.3651 28.724 71.6056 28.7475 71.7013 28.9365C71.7972 29.1253 71.9171 29.597 71.9896 29.7387C72.0613 29.8804 71.9415 29.8804 71.7251 29.597C71.5091 29.3136 70.9571 29.1963 70.5252 29.2199C70.0927 29.2434 58.3041 28.89 58.3041 28.89Z" fill="white"/>
<path d="M72.0373 29.2907C72.0373 29.2907 71.9174 29.0317 71.8453 28.8657C71.7732 28.7011 71.5574 28.631 71.5574 28.631C71.5574 28.631 71.7971 28.3468 72.1332 27.7343C72.4696 27.1219 74.0543 24.1966 74.2223 23.7958C74.2223 23.7958 73.8619 24.8815 74.5585 23.9847C74.5585 23.9847 72.3014 28.1816 72.1571 28.465C72.0135 28.7483 72.0373 29.2907 72.0373 29.2907Z" fill="white"/>
<path d="M38.6439 32.5916C38.6439 32.5916 38.6725 32.9306 38.472 33.0714C38.2711 33.2125 38.185 33.4661 38.3573 33.579C38.5295 33.6917 38.6443 33.6352 38.759 33.4661C38.8738 33.2971 39.276 33.156 39.5342 33.2125C39.5342 33.2125 38.6439 33.3244 38.6439 32.5916Z" fill="white"/>
<path d="M51.0175 33.1957C51.0175 33.1957 55.8626 33.4464 56.1497 33.4593C56.4358 33.4722 56.6376 33.4814 56.6376 33.4814C56.6376 33.4814 56.1234 33.4014 56.2755 33.2391L51.0175 33.1957Z" fill="white"/>
<path d="M56.7602 33.1561C56.7602 33.1561 56.6168 33.3816 56.8463 33.4937C57.0763 33.6064 57.3062 33.7191 57.4496 33.5499C57.5928 33.3809 57.3349 32.9299 57.3633 32.6198C57.3633 32.6198 57.4781 33.0997 56.7602 33.1561Z" fill="white"/>
<path d="M62.6697 33.5644H62.4013V34.0109H62.6697C62.8063 34.0109 62.8468 33.9576 62.8468 33.8698V33.7046C62.8468 33.5919 62.7933 33.5644 62.6697 33.5644ZM62.6697 34.1555H62.4013V34.5228H62.238V33.4173H62.6697C62.914 33.4173 63.0101 33.524 63.0101 33.7046V33.8698C63.0101 33.9896 62.9679 34.0703 62.8468 34.1236L63.1497 34.5228H62.9563L62.6697 34.1555ZM62.6194 34.8595C63.1956 34.8595 63.4981 34.4716 63.4981 33.9955C63.4981 33.5194 63.1956 33.1256 62.6194 33.1256C62.0426 33.1256 61.7331 33.5194 61.7331 33.9955C61.7331 34.4716 62.0426 34.8595 62.6194 34.8595ZM62.6194 32.9793C63.2579 32.9793 63.6478 33.4327 63.6478 33.9934C63.6478 34.5464 63.2579 35.0064 62.6194 35.0064C61.977 35.0064 61.5837 34.5464 61.5837 33.9934C61.5837 33.4327 61.977 32.9793 62.6194 32.9793Z" fill="black"/>
<path d="M29.7757 40.2671H27.9929V38.0386H26.2725V43.5788H27.9929V41.1899H29.7757V43.5788H31.4979V38.0386H29.7757V40.2671Z" fill="black"/>
<path d="M61.4266 42.6566V38.0384H59.7056V43.5786H63.8895V42.6566H61.4266Z" fill="black"/>
<path d="M71.2106 38.0385V38.9624H72.7767V43.5787H74.4969V38.9624H76.0643V38.0385H71.2106Z" fill="black"/>
<path d="M20.0643 39.1919C20.0643 38.4995 20.4902 38.0384 21.129 38.0384H24.5801V38.9615H22.1059C21.9135 38.9615 21.787 39.1014 21.787 39.3082V42.3088C21.787 42.5172 21.9135 42.6566 22.1059 42.6566H24.5801V43.5786H21.129C20.4902 43.5786 20.0643 43.1164 20.0643 42.4248V39.1919Z" fill="black"/>
<path d="M49.9984 41.3312L51.4861 43.5788H49.6567L48.3396 41.2934V40.5712H49.0505C49.2421 40.5712 49.3696 40.4309 49.3696 40.2244V39.3084C49.3696 39.1016 49.2421 38.9625 49.0505 38.9625H47.8466V43.5788H46.1246V38.0386H50.0267C50.6675 38.0386 51.0911 38.4997 51.0911 39.1921L51.0928 40.3119C51.0928 40.922 50.7178 41.3312 50.1527 41.3312H49.9984Z" fill="black"/>
<path d="M55.9646 42.6566C56.155 42.6566 56.2832 42.5175 56.2832 42.3099V39.3083C56.2832 39.1017 56.155 38.9615 55.9646 38.9615H54.7642C54.5728 38.9615 54.4443 39.1017 54.4443 39.3083V42.3099C54.4443 42.5175 54.5728 42.6566 54.7642 42.6566H55.9646ZM52.7233 39.192C52.7233 38.4996 53.1477 38.0384 53.787 38.0384H56.9405C57.5788 38.0384 58.0057 38.4996 58.0057 39.192V42.4251C58.0057 43.1167 57.5788 43.5786 56.9405 43.5786H53.787C53.1477 43.5786 52.7233 43.1167 52.7233 42.4251V39.192Z" fill="black"/>
<path d="M39.1563 38.0385H41.0023L42.1037 42.3216C42.112 42.3605 42.1403 42.3833 42.1801 42.3833C42.2192 42.3833 42.2498 42.3605 42.257 42.3216L43.3279 38.0385H44.7726L43.4381 42.7928C43.2766 43.3341 42.9847 43.5787 42.372 43.5787H41.513C41.119 43.5787 40.7976 43.379 40.6045 42.7888L39.1563 38.0385Z" fill="black"/>
<path d="M34.9588 42.4817C34.9588 42.588 35.0224 42.6556 35.1191 42.6556H37.9478V43.5787H34.3012C33.6627 43.5787 33.2374 43.1165 33.2374 42.426V39.1921C33.2374 38.4997 33.6627 38.0385 34.3012 38.0385H37.9478V38.9624H35.1191C35.0224 38.9624 34.9588 39.0312 34.9588 39.1355V40.2662H37.6232V41.1902H34.9588V42.4817Z" fill="black"/>
<path d="M66.8102 42.4817C66.8102 42.588 66.8733 42.6556 66.9682 42.6556H69.7984V43.5787H66.1516C65.5133 43.5787 65.0854 43.1165 65.0854 42.426V39.1921C65.0854 38.4997 65.5133 38.0385 66.1516 38.0385H69.7984V38.9624H66.9682C66.8733 38.9624 66.8102 39.0312 66.8102 39.1355V40.2662H69.4727V41.1902H66.8102V42.4817Z" fill="black"/>
</g>
<path d="M135.873 25.0453H125.227V22.9947C125.227 22.9671 125.222 22.9397 125.211 22.9141C125.201 22.8886 125.185 22.8654 125.166 22.8458C125.146 22.8262 125.123 22.8107 125.098 22.8001C125.072 22.7895 125.045 22.784 125.017 22.784H114.984C114.956 22.784 114.929 22.7895 114.904 22.8001C114.878 22.8107 114.855 22.8262 114.836 22.8458C114.816 22.8654 114.801 22.8886 114.79 22.9141C114.78 22.9397 114.775 22.9671 114.775 22.9947V25.0453H107.144C107.028 25.0453 106.887 25.1387 106.828 25.256L104.027 30.744C103.967 30.8613 104.012 30.9533 104.129 30.9533H114.773V33.0067C114.773 33.1213 114.867 33.216 114.983 33.216H125.016C125.132 33.216 125.225 33.1227 125.225 33.0067V30.9533H132.856C132.972 30.9533 133.113 30.86 133.173 30.744L135.973 25.256C136.033 25.14 135.988 25.0453 135.872 25.0453M132.547 26.3733L130.888 29.6227H123.912V31.9H116.093V29.6227H107.46L109.12 26.3733H116.096V24.0973H123.915V26.3733H132.547Z" fill="black"/>
<path d="M169.711 27.4585H167.929V25.23H166.208V30.7702H167.929V28.3813H169.711V30.7702H171.434V25.23H169.711V27.4585Z" fill="black"/>
<path d="M201.362 29.848V25.2298H199.641V30.77H203.825V29.848H201.362Z" fill="black"/>
<path d="M211.146 25.2299V26.1538H212.712V30.7701H214.433V26.1538H216V25.2299H211.146Z" fill="black"/>
<path d="M160 26.3833C160 25.6909 160.426 25.2298 161.065 25.2298H164.516V26.1529H162.042C161.849 26.1529 161.723 26.2928 161.723 26.4996V29.5002C161.723 29.7086 161.849 29.848 162.042 29.848H164.516V30.77H161.065C160.426 30.77 160 30.3078 160 29.6162V26.3833Z" fill="black"/>
<path d="M189.934 28.5226L191.422 30.7702H189.592L188.275 28.4848V27.7626H188.986C189.178 27.7626 189.305 27.6224 189.305 27.4158V26.4998C189.305 26.293 189.178 26.1539 188.986 26.1539H187.782V30.7702H186.06V25.23H189.962C190.603 25.23 191.027 25.6911 191.027 26.3835L191.029 27.5033C191.029 28.1134 190.654 28.5226 190.088 28.5226H189.934Z" fill="black"/>
<path d="M195.9 29.848C196.091 29.848 196.219 29.7089 196.219 29.5013V26.4997C196.219 26.2931 196.091 26.1529 195.9 26.1529H194.7C194.508 26.1529 194.38 26.2931 194.38 26.4997V29.5013C194.38 29.7089 194.508 29.848 194.7 29.848H195.9ZM192.659 26.3834C192.659 25.691 193.083 25.2298 193.723 25.2298H196.876C197.514 25.2298 197.941 25.691 197.941 26.3834V29.6165C197.941 30.3081 197.514 30.77 196.876 30.77H193.723C193.083 30.77 192.659 30.3081 192.659 29.6165V26.3834Z" fill="black"/>
<path d="M179.092 25.2299H180.938L182.039 29.5131C182.048 29.5519 182.076 29.5747 182.116 29.5747C182.155 29.5747 182.185 29.5519 182.193 29.5131L183.264 25.2299H184.708L183.374 29.9842C183.212 30.5255 182.92 30.7701 182.308 30.7701H181.449C181.055 30.7701 180.733 30.5704 180.54 29.9802L179.092 25.2299Z" fill="black"/>
<path d="M174.894 29.6731C174.894 29.7794 174.958 29.847 175.055 29.847H177.883V30.7701H174.237C173.598 30.7701 173.173 30.3079 173.173 29.6174V26.3835C173.173 25.6911 173.598 25.2299 174.237 25.2299H177.883V26.1539H175.055C174.958 26.1539 174.894 26.2226 174.894 26.327V27.4577H177.559V28.3816H174.894V29.6731Z" fill="black"/>
<path d="M206.746 29.6731C206.746 29.7794 206.809 29.847 206.904 29.847H209.734V30.7701H206.087C205.449 30.7701 205.021 30.3079 205.021 29.6174V26.3835C205.021 25.6911 205.449 25.2299 206.087 25.2299H209.734V26.1539H206.904C206.809 26.1539 206.746 26.2226 206.746 26.327V27.4577H209.408V28.3816H206.746V29.6731Z" fill="black"/>
<defs>
<linearGradient id="paint0_linear_601_49868" x1="23.0033" y1="19.3258" x2="22.9783" y2="28.7476" gradientUnits="userSpaceOnUse">
<stop stop-color="#C7D6EE"/>
<stop offset="0.185394" stop-color="#91AFC8"/>
<stop offset="1" stop-color="#002334"/>
</linearGradient>
<linearGradient id="paint1_linear_601_49868" x1="50.7855" y1="9.86267" x2="56.5734" y2="15.7557" gradientUnits="userSpaceOnUse">
<stop stop-color="#E1E8F5"/>
<stop offset="0.89888" stop-color="#92A5C1"/>
<stop offset="0.955063" stop-color="#476886"/>
<stop offset="1" stop-color="#E1E8F5"/>
</linearGradient>
<linearGradient id="paint2_linear_601_49868" x1="39.5693" y1="15.7227" x2="45.4903" y2="9.69418" gradientUnits="userSpaceOnUse">
<stop stop-color="#E1E8F5"/>
<stop offset="0.0393219" stop-color="#476886"/>
<stop offset="0.0898895" stop-color="#92A5C1"/>
<stop offset="1" stop-color="#E1E8F5"/>
</linearGradient>
<linearGradient id="paint3_linear_601_49868" x1="35.7074" y1="15.9981" x2="37.6377" y2="14.1654" gradientUnits="userSpaceOnUse">
<stop stop-color="#E1E8F5"/>
<stop offset="0.157303" stop-color="#C7D6EE"/>
<stop offset="1" stop-color="#E1E8F5"/>
</linearGradient>
<linearGradient id="paint4_linear_601_49868" x1="60.6893" y1="16.0702" x2="58.6454" y2="14.1296" gradientUnits="userSpaceOnUse">
<stop stop-color="#E1E8F5"/>
<stop offset="0.157303" stop-color="#C7D6EE"/>
<stop offset="1" stop-color="#E1E8F5"/>
</linearGradient>
<linearGradient id="paint5_linear_601_49868" x1="26.4216" y1="20.946" x2="33.0625" y2="14.1846" gradientUnits="userSpaceOnUse">
<stop stop-color="#476886"/>
<stop offset="0.129211" stop-color="#92A5C1"/>
<stop offset="1" stop-color="#E1E8F5"/>
</linearGradient>
<linearGradient id="paint6_linear_601_49868" x1="17.9486" y1="30.3277" x2="17.1751" y2="29.203" gradientUnits="userSpaceOnUse">
<stop stop-color="#002334"/>
<stop offset="0.106735" stop-color="white"/>
<stop offset="0.185394" stop-color="#91AFC8"/>
<stop offset="0.241577" stop-color="#002334"/>
<stop offset="0.533707" stop-color="#5E738F"/>
<stop offset="0.758423" stop-color="#002334"/>
<stop offset="1" stop-color="#002334"/>
</linearGradient>
<linearGradient id="paint7_linear_601_49868" x1="23.6074" y1="22.4846" x2="17.5503" y2="25.6231" gradientUnits="userSpaceOnUse">
<stop stop-color="#91AFC8"/>
<stop offset="1" stop-color="#002334"/>
</linearGradient>
<linearGradient id="paint8_linear_601_49868" x1="26.9282" y1="31.9345" x2="26.4764" y2="29.3256" gradientUnits="userSpaceOnUse">
<stop stop-color="#A5B9CC"/>
<stop offset="1" stop-color="#002334"/>
</linearGradient>
<linearGradient id="paint9_linear_601_49868" x1="36.2779" y1="33.0129" x2="37.0553" y2="33.0129" gradientUnits="userSpaceOnUse">
<stop stop-color="#5E738F"/>
<stop offset="0.48877" stop-color="#91AFC8"/>
<stop offset="1" stop-color="#91AFC8"/>
</linearGradient>
<linearGradient id="paint10_linear_601_49868" x1="59.6964" y1="32.9229" x2="58.7338" y2="32.9229" gradientUnits="userSpaceOnUse">
<stop stop-color="#5E738F"/>
<stop offset="0.320221" stop-color="#91AFC8"/>
<stop offset="1" stop-color="#91AFC8"/>
</linearGradient>
<linearGradient id="paint11_linear_601_49868" x1="52.4644" y1="37.4206" x2="55.027" y2="32.9015" gradientUnits="userSpaceOnUse">
<stop stop-color="#A5B9CC"/>
<stop offset="1" stop-color="#002334"/>
</linearGradient>
<linearGradient id="paint12_linear_601_49868" x1="41.3691" y1="33.1891" x2="43.9515" y2="37.7432" gradientUnits="userSpaceOnUse">
<stop stop-color="#002334"/>
<stop offset="0.775284" stop-color="#A5B9CC"/>
<stop offset="1" stop-color="#A5B9CC"/>
</linearGradient>
<linearGradient id="paint13_linear_601_49868" x1="30.8271" y1="16.0472" x2="42.3598" y2="36.3849" gradientUnits="userSpaceOnUse">
<stop stop-color="#FFEFCF"/>
<stop offset="0.460678" stop-color="#FFE4A6"/>
<stop offset="1" stop-color="#BC956E"/>
</linearGradient>
<linearGradient id="paint14_linear_601_49868" x1="63.8309" y1="33.1721" x2="67.0885" y2="29.475" gradientUnits="userSpaceOnUse">
<stop stop-color="#5E738F"/>
<stop offset="0.606735" stop-color="#91AFC8"/>
<stop offset="1" stop-color="#C7DFF4"/>
</linearGradient>
<linearGradient id="paint15_linear_601_49868" x1="67.1514" y1="13.3434" x2="71.4461" y2="20.9171" gradientUnits="userSpaceOnUse">
<stop stop-color="#E1E8F5"/>
<stop offset="0.814606" stop-color="#7F97B4"/>
<stop offset="0.904495" stop-color="#476886"/>
<stop offset="1" stop-color="#002334"/>
</linearGradient>
<linearGradient id="paint16_linear_601_49868" x1="72.2691" y1="30.4775" x2="79.268" y2="18.135" gradientUnits="userSpaceOnUse">
<stop stop-color="#8CA0B5"/>
<stop offset="0.140442" stop-color="#E1E8F5"/>
<stop offset="0.814606" stop-color="#7F97B4"/>
<stop offset="0.904495" stop-color="#476886"/>
<stop offset="1" stop-color="#002334"/>
</linearGradient>
<linearGradient id="paint17_linear_601_49868" x1="69.7821" y1="30.6841" x2="72.3061" y2="29.2005" gradientUnits="userSpaceOnUse">
<stop stop-color="#002334"/>
<stop offset="0.814606" stop-color="#A5B9CC"/>
<stop offset="0.887634" stop-color="#002334"/>
<stop offset="1" stop-color="#002334"/>
</linearGradient>
<linearGradient id="paint18_linear_601_49868" x1="23.8742" y1="25.2024" x2="32.0551" y2="33.5319" gradientUnits="userSpaceOnUse">
<stop stop-color="#D4BC7B"/>
<stop offset="0.331467" stop-color="#7F5F39"/>
<stop offset="1" stop-color="#D4BC7B"/>
</linearGradient>
<linearGradient id="paint19_linear_601_49868" x1="68.0794" y1="26.368" x2="62.2359" y2="32.3176" gradientUnits="userSpaceOnUse">
<stop stop-color="#D4BC7B"/>
<stop offset="0.331467" stop-color="#7F5F39"/>
<stop offset="1" stop-color="#D4BC7B"/>
</linearGradient>
<linearGradient id="paint20_linear_601_49868" x1="73.0615" y1="13.6372" x2="63.6164" y2="23.2538" gradientUnits="userSpaceOnUse">
<stop stop-color="#D4BC7B"/>
<stop offset="0.331467" stop-color="#7F5F39"/>
<stop offset="1" stop-color="#D4BC7B"/>
</linearGradient>
<linearGradient id="paint21_linear_601_49868" x1="37.2949" y1="31.7437" x2="38.5512" y2="31.7437" gradientUnits="userSpaceOnUse">
<stop stop-color="#D3BD8B"/>
<stop offset="1" stop-color="#7F5F39"/>
</linearGradient>
<linearGradient id="paint22_linear_601_49868" x1="58.6616" y1="31.7247" x2="57.4051" y2="31.7247" gradientUnits="userSpaceOnUse">
<stop stop-color="#D3BD8B"/>
<stop offset="1" stop-color="#7F5F39"/>
</linearGradient>
<linearGradient id="paint23_linear_601_49868" x1="41.9272" y1="32.2564" x2="44.1999" y2="36.2642" gradientUnits="userSpaceOnUse">
<stop stop-color="#7F5F39"/>
<stop offset="0.646072" stop-color="#D3BD8B"/>
<stop offset="0.887634" stop-color="#FFE4A6"/>
<stop offset="1" stop-color="#FFE4A6"/>
</linearGradient>
<linearGradient id="paint24_linear_601_49868" x1="54.0469" y1="32.2761" x2="51.5642" y2="36.6544" gradientUnits="userSpaceOnUse">
<stop stop-color="#7F5F39"/>
<stop offset="0.455063" stop-color="#D3BD8B"/>
<stop offset="0.887634" stop-color="#FFE4A6"/>
<stop offset="1" stop-color="#FFE4A6"/>
</linearGradient>
<linearGradient id="paint25_linear_601_49868" x1="40.2642" y1="16.2899" x2="45.5595" y2="10.8984" gradientUnits="userSpaceOnUse">
<stop stop-color="#D4BC7B"/>
<stop offset="0.0393219" stop-color="#7F5F39"/>
<stop offset="0.106735" stop-color="#D1AC75"/>
<stop offset="1" stop-color="#D4BC7B"/>
</linearGradient>
<linearGradient id="paint26_linear_601_49868" x1="55.7707" y1="16.3978" x2="50.3828" y2="10.9122" gradientUnits="userSpaceOnUse">
<stop stop-color="#D4BC7B"/>
<stop offset="0.0393219" stop-color="#7F5F39"/>
<stop offset="0.106735" stop-color="#D1AC75"/>
<stop offset="1" stop-color="#D4BC7B"/>
</linearGradient>
<linearGradient id="paint27_linear_601_49868" x1="36.6933" y1="17.1689" x2="38.6648" y2="15.297" gradientUnits="userSpaceOnUse">
<stop stop-color="#FFE292"/>
<stop offset="0.157303" stop-color="#D1AC75"/>
<stop offset="1" stop-color="#FFE292"/>
</linearGradient>
<linearGradient id="paint28_linear_601_49868" x1="59.3857" y1="17.1429" x2="57.3304" y2="15.1915" gradientUnits="userSpaceOnUse">
<stop stop-color="#FFE292"/>
<stop offset="0.157303" stop-color="#D1AC75"/>
<stop offset="1" stop-color="#FFE292"/>
</linearGradient>
<linearGradient id="paint29_linear_601_49868" x1="27.6154" y1="21.8613" x2="33.7666" y2="15.5984" gradientUnits="userSpaceOnUse">
<stop stop-color="#7F5F39"/>
<stop offset="1" stop-color="#BD9B6A"/>
</linearGradient>
<linearGradient id="paint30_linear_601_49868" x1="72.7977" y1="22.9976" x2="75.4148" y2="25.6622" gradientUnits="userSpaceOnUse">
<stop stop-color="#7F5F39"/>
<stop offset="1" stop-color="#D4BC7B"/>
</linearGradient>
<linearGradient id="paint31_linear_601_49868" x1="71.913" y1="29.6097" x2="77.6286" y2="18.4007" gradientUnits="userSpaceOnUse">
<stop stop-color="#A78A5E"/>
<stop offset="0.764038" stop-color="#7F5F39"/>
<stop offset="0.915726" stop-color="#674C2B"/>
<stop offset="1" stop-color="#674C2B"/>
</linearGradient>
<linearGradient id="paint32_linear_601_49868" x1="66.9675" y1="32.1421" x2="50.6044" y2="12.2874" gradientUnits="userSpaceOnUse">
<stop stop-color="#FFEFCF"/>
<stop offset="0.460678" stop-color="#FFE4A6"/>
<stop offset="1" stop-color="#BC956E"/>
</linearGradient>
<linearGradient id="paint33_linear_601_49868" x1="17.7606" y1="28.5889" x2="23.4347" y2="22.8118" gradientUnits="userSpaceOnUse">
<stop stop-color="#7F5F39"/>
<stop offset="1" stop-color="#E9CF98"/>
</linearGradient>
<linearGradient id="paint34_linear_601_49868" x1="16.7394" y1="28.245" x2="24.3804" y2="20.4653" gradientUnits="userSpaceOnUse">
<stop stop-color="#7F5F39"/>
<stop offset="1" stop-color="#E4CB90"/>
</linearGradient>
<clipPath id="clip0_601_49868">
<rect width="64" height="32" fill="white" transform="translate(16 12)"/>
</clipPath>
</defs>
</svg>
