<svg width="68" height="56" viewBox="0 0 68 56" fill="none" xmlns="http://www.w3.org/2000/svg">
<path fill-rule="evenodd" clip-rule="evenodd" d="M50.4695 42.3132C47.3665 39.6526 38.1477 32.0821 33.7714 32.0821C29.3932 32.0821 20.1814 39.6475 17.0765 42.3099C17.0579 41.681 17.0405 41.299 17.0405 40.7388C17.0405 40.7388 16.9646 39.8141 17.7827 38.8886C24.5134 32.7901 31.5701 29.8061 31.7868 29.7148C33.891 28.8254 33.7727 28.9926 33.7708 25.4234C33.7708 25.4234 33.8647 25.4176 33.9245 25.4241C36.8879 25.6922 44.8552 33.4249 49.5704 38.6526C49.5788 38.6616 50.501 39.7292 50.501 40.8546C50.5023 41.3819 50.4869 41.9022 50.4695 42.3132ZM50.3428 37.9491C49.8418 37.3934 38.0429 24.3694 33.7714 24.3694C29.5012 24.3694 17.7016 37.3934 17.2013 37.9484L17.2007 37.9491C17.1518 38.0037 16 39.3202 16 40.8552C16 42.0501 16.0791 43.2527 16.0804 43.2643C16.083 43.3196 16.1106 43.8277 16.3929 43.9659C16.4386 43.9884 16.4881 44 16.5389 44C16.6437 44 16.7608 43.9531 16.8875 43.8604C17.0148 43.7479 29.035 33.131 33.7714 33.131C38.5085 33.131 50.5293 43.7479 50.6496 43.8553C50.7808 43.9518 50.8991 44 51.0052 44C51.0566 44 51.1049 43.9884 51.1512 43.9666C51.4329 43.8289 51.4605 43.3202 51.4631 43.263C51.4637 43.254 51.5428 42.0514 51.5428 40.8565C51.5428 39.3202 50.391 38.0037 50.3428 37.9491ZM50.4528 29.9258C47.353 27.2685 38.1432 19.7056 33.7721 19.7056C29.3983 19.7056 20.1956 27.264 17.0939 29.9232C17.0753 29.2955 17.0579 28.9129 17.0579 28.354C17.0579 28.354 16.982 27.4299 17.7994 26.5058C24.5236 20.413 31.5733 17.4323 31.7894 17.3409C33.8917 16.4522 33.7733 16.6194 33.7714 13.054C33.7714 13.054 33.8647 13.0483 33.9251 13.0547C36.8853 13.3229 44.8449 21.0478 49.555 26.2697C49.5634 26.2787 50.4849 27.345 50.4849 28.4698C50.4856 28.9958 50.4695 29.5155 50.4528 29.9258ZM50.3261 25.5662C49.8251 25.0112 38.0384 12 33.7714 12C29.5057 12 17.7177 25.0112 17.218 25.5655L17.2174 25.5662C17.1685 25.6209 16.0174 26.936 16.0174 28.4698C16.0174 29.6634 16.0971 30.8647 16.0978 30.8763C16.1003 30.9316 16.128 31.439 16.4097 31.5772C16.4553 31.5998 16.5048 31.6107 16.5556 31.6107C16.6605 31.6107 16.7769 31.5637 16.9036 31.4711C17.0315 31.3586 29.0395 20.7526 33.7714 20.7526C38.504 20.7526 50.5126 31.3586 50.6328 31.466C50.7634 31.5625 50.8817 31.61 50.9878 31.61C51.0393 31.61 51.0875 31.5991 51.1338 31.5766C51.4149 31.439 51.4432 30.9309 51.4451 30.8737C51.4457 30.8647 51.5248 29.6634 51.5248 28.4698C51.5255 26.936 50.375 25.6209 50.3261 25.5662Z" fill="#6E6E6E"/>
</svg>
