<svg width="188" height="56" viewBox="0 0 188 56" fill="none" xmlns="http://www.w3.org/2000/svg">
<g clip-path="url(#clip0_601_49931)">
<path d="M47.7333 27.9998C47.7333 36.6894 40.6891 43.7333 31.9999 43.7333C23.3107 43.7333 16.2667 36.6894 16.2667 27.9998C16.2667 19.3108 23.3107 12.2667 31.9999 12.2667C40.6891 12.2667 47.7333 19.3108 47.7333 27.9998Z" fill="#231F20"/>
<path d="M47.1812 27.9998C47.1812 36.3846 40.3844 43.1813 31.9999 43.1813C23.6154 43.1813 16.8184 36.3846 16.8184 27.9998C16.8184 19.6155 23.6154 12.8186 31.9999 12.8186C40.3844 12.8186 47.1812 19.6155 47.1812 27.9998Z" fill="#BDBCBC"/>
<path d="M19.79 20.3535C19.79 20.3661 18.1057 20.6222 18.1073 20.6302C18.1155 20.6721 18.0201 29.2951 19.5582 28.8611C20.5711 28.3845 20.0261 22.7659 20.0261 23.5216C20.0261 24.575 20.1284 26.3027 20.5325 29.0161C20.988 32.0726 20.796 32.4534 21.0084 33.1116C20.5143 32.6318 19.7457 32.4159 19.7457 32.4159L20.8356 36.0999L21.6383 36.0917C21.6383 36.0917 21.6498 35.8442 21.6603 35.8325C21.682 35.8323 22.4532 35.8896 22.9831 36.8593C26.0491 42.4707 34.1212 40.3129 32.0081 40.4345L35.3344 40.0341C25.5928 41.7008 23.7653 37.2092 23.2754 36.3125C22.9685 35.8628 22.0863 35.3916 21.5317 35.6599C21.5317 35.6599 22.8856 35.7139 22.8253 35.3549C23.2484 35.7658 21.7733 34.69 21.7733 34.69L21.8476 34.9232C22.0763 34.9463 21.9733 34.6994 22.2144 34.659L21.9152 34.5221C21.8769 34.4751 22.0814 34.2309 21.3511 29.3297C20.9498 26.6366 21.0307 24.5401 21.0307 23.4968C21.0307 22.4861 20.9647 22.4146 20.9666 22.4071L20.373 22.0195L20.2591 21.9964C20.0954 21.9632 19.9334 21.9108 19.8631 21.8718C19.8995 21.8176 19.9205 21.7453 19.9205 21.6259C19.9205 21.5104 19.9082 21.3599 19.8921 21.1655C19.8709 20.9055 19.8814 19.9739 19.8455 20.285C17.954 36.7011 20.5723 18.4477 20.2507 18.7984L20.4346 18.59C21.3256 17.5615 24.4382 15.1596 32.4693 14.9718C40.9622 14.7728 41.0007 17.8749 41.0297 17.9203L43.2298 19.01C43.2008 18.9634 40.3432 14.2206 31.7183 14.4225C23.5908 14.6128 21.1781 17.397 20.2699 18.4452L20.0903 18.6492C19.7169 19.0564 19.2884 19.0601 19.2884 19.6601C19.2884 19.9805 18.9292 20.4073 18.9511 20.6723C19.9995 22.5142 19.6376 21.6037 19.7901 20.3535L19.79 20.3535ZM43.0149 19.5638C42.8296 19.6434 42.8576 19.944 42.8962 20.3597C42.9247 20.6696 42.9574 21.0209 42.8962 21.2661L43.1084 21.3195C43.1786 21.0381 43.1437 20.6669 43.1136 20.3393C43.0946 20.1311 43.0651 19.816 43.1094 19.7601C43.1147 19.7673 43.1759 22.1061 43.6578 22.6636C44.4243 23.5509 44.0421 23.0404 44.0421 24.5866C44.0421 25.3487 44.6122 26.2369 44.5895 26.548C44.3055 26.1885 44.2247 25.2635 44.1524 24.4338C44.068 23.4678 43.9957 22.6338 43.652 22.3566C44.0755 21.9853 42.6041 20.0398 42.7045 21.3572C42.7737 21.8181 42.5483 20.3226 42.221 19.8135C41.2187 18.2535 39.1421 16.4308 31.9261 16.1803C25.3113 15.9506 22.0329 18.6657 21.1902 19.494C21.1913 19.4922 21.2997 19.3051 21.2997 19.3051L20.2248 18.751L19.9207 21.9691L20.3807 21.2431C20.3807 21.2431 21.1234 19.8964 21.137 19.8649C21.2529 19.7282 24.3874 16.1386 31.9185 16.4001C39.9462 16.6787 41.4119 18.9591 42.0379 19.9329C42.3393 20.4024 42.4185 20.9272 42.4887 21.3901C42.5805 21.9997 42.6681 22.5754 43.3527 22.4834C43.4156 22.4752 43.4673 22.4892 43.5153 22.5282C43.7866 22.7468 43.8616 23.6142 43.935 24.4528C44.031 25.5624 44.1229 26.6103 44.6328 26.8672L44.7748 26.9388L44.7901 26.7794C44.8091 26.5757 45.2488 21.7791 43.8906 20.2065C43.3559 19.5873 43.159 19.5018 43.0149 19.5638H43.0149ZM45.9186 23.5397C45.7945 22.961 45.5966 22.3298 45.3031 21.6878C45.4573 22.0433 45.7038 22.677 45.9186 23.5397ZM45.3031 21.6878C45.2656 21.6008 45.2319 21.5257 45.2071 21.4736C45.2424 21.5453 45.2709 21.6162 45.3031 21.6878ZM44.619 20.0997C46.4137 21.8302 46.0917 26.2957 46.0917 26.2957L45.2187 25.2814V29.6081L44.6143 30.8248C43.5396 36.5712 40.988 41.6416 30.982 41.3711C20.9762 41.1007 19.4319 35.7601 18.4916 30.6897C17.5514 25.6195 18.8945 20.076 18.8945 20.076C15.9396 28.8643 19.4319 35.4896 19.4319 35.4896C19.4319 35.4896 21.1104 41.709 31.4523 41.6416C41.7935 41.5741 43.4055 35.8277 43.4055 35.8277L43.5934 37.2781C43.5934 37.2781 45.9957 35.0807 46.7341 30.4835C47.1084 28.1561 45.6621 21.1053 44.619 20.0997ZM45.2071 21.4736C45.1722 21.4006 45.1511 21.3603 45.1511 21.3603C45.1706 21.3983 45.1886 21.436 45.2071 21.4736Z" fill="#231F20"/>
<path d="M45.878 25.6383C45.878 25.6383 45.8899 25.6559 45.878 25.6383V25.6383ZM20.1803 18.4288C20.1803 18.4288 21.5477 17.1677 22.5241 16.2387C22.5241 16.2387 21.222 16.9686 20.1803 18.4288ZM19.8164 35.1644C20.5907 36.7263 21.3525 37.7426 21.3525 37.7426C21.3525 37.7426 20.6265 36.6475 19.8164 35.1644ZM45.1791 20.1543L44.9247 19.4129L47.197 20.2207L44.9986 19.094L47.2313 17.769L44.7774 18.775L45.1701 16.3213L44.3736 18.6915L43.7961 18.5284C42.5853 16.7281 40.9215 15.8271 38.8281 14.823C34.9369 12.9559 29.7504 13.451 29.7504 13.451C29.7504 13.451 35.8734 13.5289 40.557 16.3051C41.5243 16.8785 42.3308 17.6735 43.0001 18.5721L41.9893 18.6278L43.1479 18.7756C43.2572 18.9296 43.3628 19.0861 43.4641 19.2449L42.1192 20.0218L43.5702 19.4127C43.7196 19.6548 43.8616 19.9012 43.9951 20.1504L43.4214 21.9466L44.0996 20.348C45.1047 22.2919 45.6341 24.3569 45.878 25.6383C45.5966 22.9561 45.1057 21.0441 44.4121 19.6098L44.4628 19.4909C44.4628 19.4909 47.0017 22.8092 46.5462 28.2518C46.0907 33.6943 44.7885 35.6191 43.4863 36.9465L43.4214 36.2826C43.4214 36.2826 41.5338 41.9245 32.1591 41.7915C22.7845 41.6585 22.0684 38.6059 22.0684 38.6059L21.5476 38.3399C21.5476 38.3399 19.3343 36.6147 17.9671 32.0349C16.5998 27.4553 17.9019 23.7385 17.9019 23.7385C17.9019 23.7385 17.1858 26.7916 17.7067 29.9109C17.9766 31.5275 18.945 33.5701 19.8164 35.1644C19.1768 33.8749 18.5283 32.2134 18.2927 30.4419C17.7716 26.526 17.9019 23.8711 18.5529 21.8802C19.2038 19.8892 19.5946 19.0261 19.5946 19.0261C19.5946 19.0261 16.8605 22.2121 16.7953 28.9819C16.7302 35.7518 22.4589 40.3977 24.9977 41.3933C27.5367 42.3888 35.5441 43.716 40.3615 40.3315C45.1791 36.9465 44.8534 36.0838 46.4158 32.964C47.9788 29.8445 47.3274 23.5393 45.1791 20.1543ZM44.0389 18.9129C44.0337 18.9043 44.0289 18.8956 44.0236 18.8873L44.0722 18.8935L44.0389 18.9129ZM44.2627 19.3125C44.2353 19.2606 44.2078 19.2076 44.1799 19.1568L44.3329 19.0925L44.2627 19.3125ZM21.3525 19.0261C21.7428 18.3624 23.761 17.1677 23.761 17.1677C23.761 17.1677 22.6542 17.8316 21.4175 19.2917C20.1803 20.7517 21.8732 19.1589 24.1518 17.6323C26.4301 16.1059 29.6201 16.2387 29.6201 16.2387C29.6201 16.2387 28.5786 15.4422 24.6074 16.7034L28.4483 15.044C28.4483 15.044 22.5894 16.3051 20.8966 18.6943C19.2038 21.0837 20.9616 19.6898 21.3525 19.0261ZM40.9489 18.8162C41.6673 19.5622 42.1846 20.2207 42.1846 20.2207C42.1846 20.2207 41.973 19.5498 40.9489 18.8162ZM18.6832 28.5837C19.3993 35.6191 22.394 38.6059 22.394 38.6059C22.394 38.6059 24.6724 40.8624 31.7683 41.1942C38.8642 41.5259 41.1432 38.7385 41.3385 38.2739C41.5338 37.8094 40.4267 38.5393 40.1013 38.4065C39.7757 38.2739 41.1432 35.818 41.1432 35.818C40.4269 38.4729 41.5338 35.4199 42.2495 35.7518C42.9658 36.0834 40.8174 36.9465 41.5338 37.6102C42.2495 38.2739 43.7465 33.5615 44.7236 31.4376C45.7001 29.3139 45.3744 27.1235 45.3095 25.7297C45.2445 24.3358 44.9189 23.7385 44.9189 23.7385L44.7236 27.0573C44.7236 27.0573 44.8539 27.5217 43.812 25.1985L42.9658 22.942C42.3799 33.2961 40.0359 37.2122 40.0359 37.2122C40.0359 37.2122 39.1897 39.8004 32.3541 39.8669C25.5188 39.9329 24.542 38.1409 24.542 38.1409C22.3288 35.2207 21.0267 28.9819 21.3525 24.867C21.6779 20.7519 21.3525 19.6234 24.2818 18.3624C27.2114 17.1015 31.6381 16.9686 31.6381 16.9686C36.9553 16.8191 39.6283 17.8698 40.9489 18.8162C40.7842 18.6453 40.6089 18.4692 40.4267 18.2962C39.4502 17.3671 30.4011 15.4422 25.6489 17.3005C20.8966 19.1589 20.5711 20.9509 20.8966 26.3934C21.2222 31.8359 22.9148 36.349 24.0866 38.0747C25.2583 39.8004 29.4248 40.3315 29.4248 40.3315C23.761 40.1985 23.1101 37.2122 22.7845 36.6807C22.4589 36.1498 21.4824 35.0877 21.2871 35.9508C21.0919 36.8135 19.3416 31.5376 19.6671 31.272C19.9925 31.0064 22.0032 33.9599 22.0032 33.9599C22.0032 33.9599 21.2871 32.4994 20.5711 28.3845C19.8549 24.2697 20.9616 22.2121 20.2455 22.0793C19.5294 21.9466 21.136 28.1513 19.085 28.4272C18.5007 28.506 18.9856 22.9395 19.2463 21.8113C19.5065 20.6828 19.79 20.3536 19.79 20.3536C19.79 20.3536 17.9671 21.5484 18.6832 28.5837Z" fill="url(#paint0_linear_601_49931)"/>
<path d="M32.9665 39.43C32.9776 39.4295 34.5978 39.35 36.0113 39.0315C37.2393 38.755 38.3262 38.2266 38.337 38.2214L38.341 38.2193L38.3454 38.2174C38.3514 38.2147 38.957 37.9533 39.3295 37.5975C39.707 37.2364 39.8787 36.764 39.8805 36.7593C39.8881 36.7388 40.5492 34.9768 41.0492 33.0947C41.5094 31.3626 41.8251 29.448 41.8282 29.4288C41.8332 29.4036 42.2145 27.4689 42.3214 25.411C42.4114 23.6814 42.2326 21.7176 42.2307 21.698C42.2296 21.6832 42.1375 20.5203 41.6708 19.7598C41.2514 19.0766 40.4416 18.7411 40.4335 18.7376L40.4264 18.7348L40.4195 18.7312C40.4102 18.7265 39.4699 18.2555 37.6864 17.8674C36.264 17.558 34.2868 17.3371 32.6496 17.3051C30.7779 17.2684 28.7685 17.3989 27.2751 17.6542C25.4841 17.9603 24.3205 18.4152 24.3088 18.4197L24.2991 18.4233L24.289 18.4261C24.2774 18.4292 23.1169 18.7474 22.5068 19.5221C21.887 20.309 21.7866 21.6016 21.7857 21.6147L21.7849 21.6225C21.7832 21.6355 21.6533 22.7505 21.6533 24.1169C21.6533 24.3618 21.6574 24.6149 21.6674 24.8712C21.7373 26.6911 22.0554 28.7082 22.0586 28.7284C22.0623 28.7482 22.4934 31.1163 22.9849 33.1121C23.3491 34.5915 23.8234 35.9004 23.8281 35.9133L23.8313 35.9227L23.8338 35.9322C23.8356 35.9388 23.9972 36.6029 24.2601 37.0664C24.4889 37.4696 24.8259 37.7067 24.8295 37.7088L24.8349 37.7126L24.8404 37.7171C24.8429 37.7189 25.0722 37.9041 25.4242 38.097C25.8295 38.3189 26.3726 38.5569 26.3957 38.5666C26.434 38.5816 27.6313 39.0399 29.2098 39.2483C30.8581 39.4659 32.9454 39.4304 32.9664 39.43L32.9665 39.43Z" fill="url(#paint1_radial_601_49931)" stroke="#6D0115" stroke-width="2"/>
<path d="M25.813 38.1619C25.7416 38.1292 25.7026 38.1102 25.7026 38.1102C25.6985 38.1085 25.6782 38.0996 25.6452 38.0845L25.6332 38.0135C25.3506 36.4549 24.9192 33.6072 24.778 30.1348C24.6035 26.0514 24.6102 21.0468 24.6268 18.6227V18.4473C24.6745 18.4313 24.7239 18.4152 24.7749 18.3988L24.7756 18.5745C24.7588 20.9779 24.7509 26.0204 24.9264 30.1287C25.0699 33.6617 25.5145 36.545 25.7956 38.0768L25.813 38.1619Z" fill="#6D0115"/>
<path d="M26.2797 38.3617C26.2226 38.3386 26.1687 38.3163 26.1188 38.2955L26.105 38.186C25.8991 36.7182 25.5348 33.7259 25.3617 29.8979C25.1778 25.8286 25.211 20.7135 25.2398 18.3882L25.2401 18.2576C25.2885 18.2437 25.3379 18.2297 25.3883 18.2158L25.3887 18.36C25.3599 20.6693 25.3257 25.8079 25.5101 29.8915C25.6871 33.806 26.0643 36.8443 26.2667 38.2683L26.2797 38.3617Z" fill="#6D0115"/>
<path d="M29.7701 17.6274C29.8075 22.1351 29.9153 35.1384 29.9467 38.9053L29.9495 39.2234C29.9014 39.2184 29.8519 39.2128 29.802 39.2071L29.7983 38.9048C29.7669 35.1406 29.6593 22.1711 29.6219 17.6471L29.6182 17.5152C29.6681 17.5111 29.718 17.5069 29.768 17.5031L29.7701 17.6274Z" fill="#6D0115"/>
<path d="M31.7027 17.5688C31.7155 21.5188 31.7586 34.5938 31.7731 39.0124L31.7741 39.3132C31.7221 39.3139 31.6721 39.3144 31.6245 39.3145V38.9733C31.6097 34.498 31.5666 21.3981 31.5539 17.5201L31.5532 17.4192C31.6014 17.4185 31.6497 17.418 31.6983 17.4175L31.7027 17.5688Z" fill="#6D0115"/>
<path d="M32.4446 17.5885C32.4227 21.9749 32.3574 35.1391 32.3382 39.0128L32.3378 39.3029C32.2865 39.3043 32.2365 39.3055 32.1871 39.3066L32.1893 39.0711C32.208 35.2656 32.2741 21.9393 32.296 17.5593L32.2925 17.4178C32.3442 17.4184 32.3957 17.4189 32.4472 17.4198L32.4446 17.5885Z" fill="#6D0115"/>
<path d="M34.4504 38.9357C34.557 37.1727 34.7581 33.4352 34.8407 29.2062C34.925 24.8959 34.8874 19.9908 34.8615 17.6871L34.853 17.5389C34.9132 17.5441 34.9728 17.5495 35.0323 17.5551L35.0404 17.745C35.0662 20.0741 35.1025 24.934 35.0191 29.2095C34.937 33.4034 34.7385 37.1144 34.6314 38.8983L34.6159 39.1531C34.5534 39.1606 34.4994 39.1677 34.4359 39.1745L34.4504 38.9357Z" fill="#6D0115"/>
<path d="M39.5194 37.1884C39.44 37.2966 39.3567 37.3867 39.2858 37.4554L39.357 37.0771C39.6672 35.4703 40.0683 32.9848 40.2685 30.0661C40.5064 26.5965 40.5369 21.8523 40.5318 19.1565L40.535 18.8982C40.5928 18.9302 40.6514 18.9641 40.71 19.0006L40.7104 19.3449C40.7137 22.0716 40.6791 26.6831 40.4464 30.0781C40.25 32.9434 39.8603 35.3934 39.5517 37.0084L39.5194 37.1884Z" fill="#6D0115"/>
<path d="M41.234 31.3678C41.3625 30.3522 41.481 29.2124 41.5627 28.0085C41.7422 25.3624 41.7467 22.3647 41.724 20.457L41.7199 20.1385C41.7947 20.3055 41.8551 20.4766 41.9038 20.641L41.9073 20.9368C41.9234 22.847 41.9061 25.5823 41.7407 28.0203C41.7062 28.5336 41.6645 29.0352 41.6185 29.5207L41.5639 30.0569C41.4496 30.6302 41.3044 31.3292 41.1449 32.0387L41.234 31.3678Z" fill="#6D0115"/>
<path d="M38.8879 37.7684C38.8314 37.8069 38.7638 37.8505 38.6876 37.8966L38.7418 37.5922C39.0393 35.9555 39.5021 32.9847 39.684 29.5325C39.8835 25.7402 39.8842 21.2324 39.8675 18.9246L39.8606 18.5978C39.9114 18.6157 39.9714 18.6378 40.0379 18.6644L40.0462 18.9688C40.0626 21.292 40.0607 25.7701 39.862 29.5417C39.6852 32.8988 39.2431 35.8026 38.9445 37.4727L38.8879 37.7684Z" fill="#6D0115"/>
<path d="M36.6983 38.519C36.8389 36.9939 37.0967 33.8369 37.2205 30.0282C37.3596 25.7526 37.3601 20.6859 37.3499 18.2383L37.3444 17.8903C37.4065 17.903 37.4677 17.9158 37.5277 17.9289L37.5284 18.2658C37.5385 20.7254 37.5374 25.7721 37.3987 30.034C37.2758 33.8176 37.0206 36.9593 36.8793 38.5002L36.8611 38.6874C36.802 38.7048 36.7431 38.7227 36.6776 38.7409L36.6983 38.519Z" fill="#6D0115"/>
<path d="M36.0825 38.663C36.2368 37.3679 36.4899 34.8575 36.5941 31.5924C36.7462 26.8417 36.7275 20.8507 36.7076 18.0784L36.7042 17.77C36.7633 17.7801 36.8216 17.7902 36.8793 17.8008L36.886 18.1231C36.9057 20.9165 36.9237 26.8708 36.7722 31.5983C36.6693 34.8131 36.4228 37.2985 36.2672 38.6167L36.2384 38.8553C36.1791 38.8698 36.1158 38.8858 36.0533 38.9002L36.0825 38.663Z" fill="#6D0115"/>
<path d="M35.5828 38.7681C35.7035 37.3987 35.9118 34.6863 36.0098 31.3866C36.1465 26.7751 36.1112 20.9357 36.0784 17.8911L36.0749 17.6735C36.1356 17.6817 36.1956 17.6902 36.2548 17.6989L36.258 17.9899C36.2905 21.0626 36.3235 26.828 36.1881 31.3919C36.0918 34.6406 35.8884 37.3209 35.7668 38.7141L35.7446 38.9669C35.6832 38.9796 35.6253 38.9914 35.562 39.0036L35.5828 38.7681Z" fill="#6D0115"/>
<path d="M35.0032 38.8844C35.1055 37.2849 35.2991 33.943 35.3836 30.3582C35.496 25.5929 35.5015 20.2773 35.4965 17.789L35.4914 17.6017C35.5519 17.6085 35.6119 17.6153 35.6714 17.6222L35.6751 17.8334C35.6799 20.341 35.6739 25.6235 35.562 30.3622C35.4784 33.9042 35.2887 37.2094 35.1853 38.8338L35.1698 39.0735C35.1061 39.0841 35.0547 39.0931 34.9893 39.1031L35.0032 38.8844Z" fill="#6D0115"/>
<path d="M34.3901 17.7057C34.3825 20.2523 34.3569 26.0295 34.2743 30.9574C34.2171 34.3686 34.1086 37.3503 34.0455 38.8968L34.0317 39.2123C33.9814 39.2165 33.9308 39.2208 33.8805 39.2248L33.895 38.9444C33.9576 37.415 34.0679 34.4048 34.1259 30.955C34.209 26.0029 34.2344 20.1926 34.2418 17.6667L34.2429 17.4919C34.293 17.4954 34.3429 17.4987 34.3927 17.5024L34.3901 17.7057Z" fill="#6D0115"/>
<path d="M33.6561 17.5884C33.6767 19.8358 33.7074 24.2341 33.6801 28.3788C33.6502 32.8654 33.553 37.1492 33.507 38.9936L33.5015 39.2517C33.4509 39.255 33.4006 39.258 33.3503 39.2609L33.3572 39.042C33.4029 37.2277 33.5015 32.9061 33.5315 28.3776C33.5588 24.2572 33.5287 19.8856 33.508 17.6274L33.5063 17.4505C33.5558 17.4528 33.6052 17.455 33.6546 17.4575L33.6561 17.5884Z" fill="#6D0115"/>
<path d="M33.0731 17.5787C33.1036 20.1563 33.1459 24.7697 33.1253 29.1206C33.1061 33.1686 33.0194 37.0456 32.9672 39.0712L32.9628 39.2808C32.9125 39.2831 32.8628 39.2852 32.8132 39.2873L32.8193 39.0418C32.8716 37.0098 32.9573 33.1497 32.9767 29.12C32.9972 24.7907 32.9554 20.2018 32.9249 17.6177L32.9215 17.4295C32.9714 17.4309 33.0214 17.4325 33.0711 17.4339L33.0731 17.5787Z" fill="#6D0115"/>
<path d="M27.8238 38.8719C27.7721 38.859 27.7207 38.8458 27.6697 38.8321L27.6609 38.7357C27.5362 37.3898 27.2853 34.3632 27.1815 30.8104C27.049 26.2782 27.0931 20.6137 27.1256 17.9464L27.1244 17.8295C27.1739 17.821 27.2237 17.8125 27.2742 17.8041L27.2745 17.9224C27.242 20.5775 27.1972 26.2618 27.3301 30.8062C27.4352 34.4049 27.6914 37.4627 27.8141 38.7774L27.8238 38.8719Z" fill="#6D0115"/>
<path d="M26.8172 38.5659C26.7635 38.5468 26.7111 38.5278 26.6601 38.509L26.648 38.3977C26.4209 36.5032 25.9817 32.4109 25.8425 28.0693C25.7247 24.3962 25.8265 20.2966 25.8951 18.2348L25.8977 18.0836C25.947 18.0716 25.9969 18.0596 26.0475 18.0478L26.0456 18.1781C25.9771 20.2169 25.872 24.3583 25.9909 28.0648C26.1321 32.4676 26.5822 36.6138 26.8057 38.4655L26.8172 38.5659Z" fill="#6D0115"/>
<path d="M22.5893 31.0151C22.4079 30.1319 22.3018 29.4868 22.2999 29.4755L22.2745 29.0886C22.1699 27.7671 22.0758 26.2866 22.0539 25.0242C22.028 23.5315 22.0389 22.0389 22.0562 20.9226L22.0501 20.7803C22.0936 20.6109 22.148 20.4333 22.2156 20.2608L22.2029 21.0545C22.1868 22.1541 22.1776 23.5876 22.2027 25.0219C22.2304 26.619 22.3738 28.5667 22.5081 30.0973L22.5893 31.0151Z" fill="#6D0115"/>
<path d="M23.8805 35.7284C23.7776 35.4266 23.6597 35.0706 23.5374 34.6817L23.4469 34.1595C23.2154 32.7908 23.0101 31.3371 22.9518 30.2204C22.6491 26.5085 22.6337 22.2236 22.6528 19.9428L22.6565 19.5231C22.7036 19.4717 22.7523 19.4231 22.8019 19.3774L22.8027 19.7743C22.7816 22.0041 22.7899 26.4083 23.1 30.2107C23.1678 31.5126 23.4367 33.2749 23.713 34.8243L23.8805 35.7284Z" fill="#6D0115"/>
<path d="M24.6106 36.5094C24.3053 35.0047 23.9288 32.7854 23.734 30.2479C23.4316 26.3104 23.442 21.677 23.4718 19.3847L23.4754 18.9113C23.4319 18.9335 23.3803 18.9615 23.3229 18.9951L23.3231 19.3897C23.2934 21.6872 23.2834 26.3203 23.5858 30.2591C23.7799 32.7867 24.1539 34.9998 24.459 36.509L24.6489 37.4044C24.6817 37.4415 24.7164 37.478 24.7533 37.5133C24.7801 37.5387 24.8082 37.5639 24.8371 37.5886L24.6106 36.5094Z" fill="#6D0115"/>
<path d="M27.2982 38.6437C27.16 37.4025 26.916 34.8888 26.8149 31.855C26.6485 26.8637 26.6367 20.6337 26.64 18.0459L26.6386 17.9198C26.588 17.9299 26.5379 17.94 26.4885 17.9502L26.4915 18.0602C26.4881 20.6577 26.5003 26.8757 26.6663 31.8599C26.7653 34.8264 27.0007 37.2967 27.1406 38.5698L27.1522 38.6793C27.2031 38.6959 27.2546 38.712 27.3068 38.7279L27.2982 38.6437Z" fill="#6D0115"/>
<path d="M24.1411 18.6213C24.0862 18.6423 24.0358 18.6622 23.9897 18.6808L23.9869 18.9039C23.9371 21.2334 23.8718 25.891 24.0569 28.9516C24.3195 33.2916 24.8635 36.3679 25.1323 37.6893L25.1574 37.8194C25.2144 37.8552 25.2793 37.8935 25.3328 37.9238L25.2994 37.7641C25.0402 36.5114 24.4748 33.3944 24.2053 28.9429C24.019 25.862 24.0869 21.1574 24.1367 18.85L24.1411 18.6155" fill="#6D0115"/>
<path d="M27.9136 17.7059C27.8633 17.713 27.8134 17.7203 27.7634 17.7274L27.7659 17.8521C27.7401 20.2785 27.7071 25.077 27.7856 29.278C27.8603 33.2728 28.1054 36.9155 28.2435 38.719L28.2612 38.9698C28.3118 38.9801 28.3624 38.9902 28.4133 38.9999L28.397 38.7785C28.2601 37.0028 28.0097 33.3196 27.934 29.2753C27.8553 25.0694 27.8887 20.2643 27.9145 17.8424L27.9136 17.7059Z" fill="#6D0115"/>
<path d="M28.5444 17.6241C28.4936 17.6302 28.4431 17.6363 28.3926 17.6425L28.3923 17.7641C28.3538 19.7424 28.2968 23.8356 28.3801 27.9111C28.4701 32.5457 28.7127 36.9214 28.8299 38.8435L28.8433 39.0761C28.8944 39.0842 28.9451 39.0924 28.9957 39.1001L28.979 38.8459C28.862 36.9311 28.6187 32.5497 28.5287 27.9081C28.4454 23.8264 28.5027 19.7268 28.5412 17.7545L28.5444 17.6241Z" fill="#6D0115"/>
<path d="M29.152 17.558C29.1026 17.5627 29.053 17.568 29.0036 17.573L29.0026 17.6961C28.986 19.8194 28.963 24.283 29.014 28.6138C29.0636 32.8134 29.1903 36.9654 29.2538 38.8669L29.2628 39.1394C29.3131 39.1464 29.363 39.1532 29.4123 39.1596L29.4024 38.866C29.3389 36.9668 29.212 32.8131 29.1626 28.6119C29.1113 24.2613 29.1347 19.7764 29.1513 17.6664L29.152 17.558Z" fill="#6D0115"/>
<path d="M30.4407 17.4576C30.389 17.4606 30.3373 17.4636 30.2856 17.4667L30.2894 17.5497C30.3151 21.4418 30.4032 34.7119 30.4316 39.0126L30.434 39.27C30.4866 39.2745 30.5365 39.2787 30.5835 39.2824L30.5803 39.0223C30.5517 34.7296 30.4637 21.4239 30.4379 17.5396L30.4407 17.4576Z" fill="#6D0115"/>
<path d="M31.0662 17.4298C31.016 17.4314 30.9653 17.4333 30.9147 17.435L30.9184 17.5785C30.926 21.6976 30.95 34.9681 30.9572 38.9536L30.9549 39.3081C30.9935 39.3105 31.0216 39.3119 31.0377 39.3128C31.0461 39.3128 31.0692 39.3133 31.1056 39.3137L31.1059 38.944C31.0985 34.9472 31.0745 21.6952 31.0669 17.5787L31.0662 17.4298Z" fill="#6D0115"/>
<path d="M37.2025 38.3168C37.4172 36.5102 37.807 32.7764 37.972 28.2989C38.0949 24.9658 37.9974 20.4945 37.9331 18.2586L37.9217 18.0179C37.9841 18.0327 38.0447 18.0475 38.1039 18.0622L38.1129 18.3096C38.177 20.5657 38.2723 24.9952 38.1502 28.3054C37.9854 32.777 37.5967 36.5086 37.3812 38.324L37.3555 38.531C37.3024 38.549 37.2399 38.5699 37.1681 38.5927L37.2025 38.3168Z" fill="#6D0115"/>
<path d="M37.9474 38.0588C38.121 36.4861 38.4258 33.3775 38.6094 29.5002C38.7857 25.7771 38.7765 20.9703 38.7552 18.4218L38.7515 18.2364C38.694 18.2197 38.634 18.2028 38.5715 18.1854L38.5766 18.4053C38.5981 20.947 38.6077 25.7642 38.4312 29.492C38.2454 33.4163 37.9356 36.5515 37.7634 38.1009L37.7302 38.3818C37.7837 38.3574 37.8467 38.3284 37.9153 38.2964L37.9474 38.0588Z" fill="#6D0115"/>
<path d="M38.4937 37.7136C38.7039 36.3062 38.99 34.0045 39.1522 31.0647C39.3936 26.6918 39.4371 21.1132 39.444 18.6193L39.4405 18.4538C39.3902 18.4362 39.3313 18.4164 39.2639 18.3941L39.2658 18.5614C39.2595 21.0245 39.2171 26.6521 38.974 31.0551C38.8051 34.1146 38.5022 36.4801 38.2908 37.8627L38.2497 38.1346C38.3155 38.1017 38.3813 38.0678 38.4447 38.0342L38.4937 37.7136Z" fill="#6D0115"/>
<path d="M40.054 35.8895C40.054 35.8895 40.214 35.4485 40.4114 34.8179L40.4862 34.3277C40.7294 32.7011 40.9859 30.6721 41.1562 28.4738C41.3826 25.5474 41.3332 21.9828 41.2702 19.8369L41.2564 19.432C41.1971 19.3711 41.1348 19.3136 41.0699 19.2596L41.0844 19.5892C41.1502 21.6947 41.2132 25.4233 40.9782 28.4606C40.7805 31.0134 40.4663 33.3368 40.1921 35.0652L40.054 35.8895Z" fill="#6D0115"/>
<path fill-rule="evenodd" clip-rule="evenodd" d="M27.4609 29.4918V27.9476H26.1365L26.1414 24.0606H27.8706L27.8613 22.4998H24.2667L24.5916 34.4457H26.1711L26.1365 29.4918H27.4609Z" fill="#1A1A1A"/>
<path fill-rule="evenodd" clip-rule="evenodd" d="M28.4856 22.4998L28.6854 34.4457H30.3164L30.3495 22.4998H28.4856Z" fill="#1A1A1A"/>
<path fill-rule="evenodd" clip-rule="evenodd" d="M38.9609 34.4457L39.296 24.0048H40.5738L40.564 22.4998H36.1317V24.0065H37.42L37.3829 34.4457H38.9609Z" fill="#1A1A1A"/>
<path fill-rule="evenodd" clip-rule="evenodd" d="M32.8091 28.0286L32.827 23.9709H33.7376C34.1505 24.8747 34.4158 26.0697 34.6237 28.0286H32.8091ZM31.3541 34.4454H31.514H32.6912H32.8639L32.8808 29.5056H34.69C34.8322 30.3775 34.867 33.0689 34.8755 34.4454H35.0251H36.2068H36.3403C36.4784 28.3467 36.0492 24.8995 34.863 22.4997H31.2159L31.3541 34.4454Z" fill="#1A1A1A"/>
<path fill-rule="evenodd" clip-rule="evenodd" d="M27.6542 27.7335H26.3264L26.3313 23.8466H28.0649L28.0555 22.2858H24.4519L24.7776 34.2315H26.3611L26.3264 29.2777H27.6542V27.7335Z" fill="url(#paint2_radial_601_49931)"/>
<path fill-rule="evenodd" clip-rule="evenodd" d="M30.55 22.2858H28.6814L28.8817 34.2315H30.5168L30.55 22.2858Z" fill="url(#paint3_radial_601_49931)"/>
<path fill-rule="evenodd" clip-rule="evenodd" d="M37.6012 34.2315H39.1831L39.5191 23.7908H40.8L40.7902 22.2858H36.3467V23.7925H37.6383L37.6012 34.2315Z" fill="url(#paint4_radial_601_49931)"/>
<path fill-rule="evenodd" clip-rule="evenodd" d="M33.0158 27.8145L33.0337 23.7569H33.9466C34.3606 24.6606 34.6265 25.8557 34.835 27.8145H33.0158ZM31.5571 34.2312H31.7175H32.8976H33.0708L33.0877 29.2915H34.9014C35.044 30.1634 35.0789 32.8547 35.0874 34.2312H35.2374H36.422H36.5558C36.6944 28.1326 36.264 24.6855 35.0749 22.2857H31.4186L31.5571 34.2312Z" fill="url(#paint5_radial_601_49931)"/>
</g>
<path fill-rule="evenodd" clip-rule="evenodd" d="M80.5782 26.5936H77.0213L77.0346 16.1814H81.6783L81.6533 12.0003H72L72.8726 44.0001H77.1144L77.0213 30.7302H80.5782V26.5936Z" fill="black"/>
<path fill-rule="evenodd" clip-rule="evenodd" d="M88.3355 12.0003H83.3298L83.8665 44.0001H88.2465L88.3355 12.0003Z" fill="black"/>
<path fill-rule="evenodd" clip-rule="evenodd" d="M107.224 44.0001H111.461L112.361 16.0319H115.793L115.767 12.0003H103.864V16.0365H107.323L107.224 44.0001Z" fill="black"/>
<path fill-rule="evenodd" clip-rule="evenodd" d="M94.9407 26.8104L94.9888 15.941H97.4342C98.543 18.3619 99.2554 21.5632 99.8139 26.8104H94.9407ZM91.0332 43.9991H91.4628H94.624H95.088L95.1332 30.7669H99.9918C100.374 33.1025 100.467 40.3119 100.49 43.9991H100.892H104.065H104.424C104.795 27.6625 103.642 18.4284 100.456 12H90.6621L91.0332 43.9991Z" fill="black"/>
<g clip-path="url(#clip1_601_49931)">
<path d="M168.026 20.3333C168.678 21.864 168.994 23.5893 168.994 25.608C168.994 26.6987 168.903 27.8613 168.719 29.1627C168.338 31.8427 167.322 34.6427 166.386 36.488C166.234 36.7853 166.113 36.9827 165.869 37.1987C165.442 37.5747 165.066 37.668 164.927 37.5867C164.815 37.52 164.753 37.184 164.775 36.6893C164.794 36.268 164.894 35.956 165.047 35.4573C165.764 33.0946 166.299 30.6804 166.647 28.236C167.161 24.684 167.141 21.4893 166.379 19.5427C166.302 19.3429 166.204 19.152 166.086 18.9733C166.003 18.8533 165.945 18.792 165.945 18.792C164.37 17.2147 160.118 16.424 155.865 16.424C151.611 16.424 147.361 17.2147 145.787 18.792C145.787 18.792 145.727 18.852 145.646 18.9733C145.527 19.1509 145.428 19.3415 145.351 19.5413C144.589 21.488 144.57 24.684 145.083 28.236C145.43 30.6453 145.979 33.196 146.719 35.5747C146.847 35.984 146.93 36.2627 146.95 36.6947C146.971 37.1867 146.91 37.5213 146.798 37.588C146.659 37.668 146.279 37.5747 145.851 37.1947C145.545 36.9213 145.391 36.6547 145.198 36.26C144.291 34.4133 143.341 31.7307 142.975 29.1627C142.8 27.9858 142.708 26.7979 142.701 25.608C142.701 23.5893 143.018 21.8653 143.669 20.336C144.158 19.1893 144.979 18.2293 146.045 17.5587C148.663 15.9027 151.655 14.93 154.746 14.7293C155.108 14.7072 155.47 14.6956 155.833 14.6947H155.859C156.225 14.6947 156.59 14.708 156.95 14.7293C159.993 14.9133 163.002 15.8933 165.65 17.5587C166.707 18.22 167.536 19.1873 168.026 20.3333ZM161.675 39.7013C161.558 39.7267 161.194 39.812 160.833 39.9107C160.509 40 160.189 40.0707 160.037 40.1013C158.667 40.3592 157.277 40.4864 155.883 40.4813H155.846C154.357 40.4813 152.943 40.344 151.694 40.1013C151.443 40.05 151.194 39.9909 150.947 39.924C150.68 39.8527 150.412 39.7869 150.142 39.7267C149.585 39.6 149.081 39.5093 149.053 39.616C149.019 39.74 149.269 40 149.587 40.2453C149.662 40.3013 149.847 40.432 150.063 40.5387C150.263 40.636 150.49 40.7093 150.578 40.7387C152.042 41.212 153.706 41.408 155.833 41.408H155.862C157.946 41.408 159.587 41.2187 161.031 40.764C161.526 40.608 161.818 40.4827 162.169 40.204C162.462 39.972 162.682 39.7333 162.65 39.6173C162.623 39.5173 162.186 39.5893 161.675 39.7013ZM158.331 25.9507C158.138 24.8707 157.905 24.0413 157.641 23.484L157.638 23.4787H157.61L156.701 23.4707H156.687L156.651 27.468H158.553L158.551 27.4547C158.551 27.448 158.477 26.7587 158.331 25.9507ZM166.011 28.2C165.582 31.1707 164.838 34.364 163.798 37.1347C163.625 37.6013 163.467 37.7747 163.091 38.068C162.121 38.7511 161.016 39.2185 159.85 39.4387C158.654 39.672 157.306 39.8013 155.885 39.8013H155.846C154.516 39.807 153.189 39.6855 151.882 39.4387C150.715 39.2189 149.609 38.7515 148.638 38.068C148.262 37.7747 148.106 37.6013 147.935 37.1347C146.893 34.364 146.149 31.1707 145.721 28.2C145.223 24.764 145.254 21.7373 145.961 19.9307C146.05 19.704 146.145 19.5413 146.214 19.4387C146.275 19.352 146.318 19.3053 146.318 19.3053C147.742 17.8787 151.731 17.1027 155.865 17.1027C159.999 17.1027 163.989 17.8787 165.411 19.3067C165.411 19.3067 165.454 19.3507 165.515 19.44C165.585 19.5413 165.681 19.7027 165.769 19.9307C166.477 21.7373 166.507 24.764 166.011 28.2ZM151.665 22.0867L148.089 22.0667L148.445 34.516L149.941 34.532L149.919 28.8653H151.271V27.4027H149.919V23.5467H151.666V22.0853L151.665 22.0867ZM154.166 22.06L152.346 22.064L152.587 34.5307H154.13L154.166 22.06ZM158.763 22.0787H155.121L155.265 34.524H156.721L156.733 28.8947H158.623L158.626 28.904C158.797 29.9667 158.81 34.4653 158.81 34.5107V34.5307H160.227L160.239 33.892C160.303 30.6653 160.413 25.2667 158.763 22.0787ZM164.523 22.0613L160.065 22.0787V23.5147H161.395V23.528L161.339 34.5307H162.849L163.215 23.5147H164.523V22.0613ZM171.759 28C171.759 36.8227 164.597 44 155.791 44C146.989 44 139.826 36.8227 139.826 28C139.826 19.1773 146.989 12 155.793 12C164.598 12 171.759 19.1773 171.759 28ZM171.319 27.9893C171.313 19.4147 164.35 12.44 155.79 12.44C147.315 12.44 140.406 19.284 140.27 27.748C140.459 27.3153 140.778 26.9519 141.182 26.708C142.055 26.1907 142.294 24.8613 142.373 24.0667L142.389 23.984C142.337 24.5107 142.295 25.0373 142.295 25.608C142.295 26.7173 142.389 27.8987 142.575 29.2187C143.125 33.0853 144.993 37.228 146.091 38.496L146.153 38.5627L146.409 38.832L146.418 38.84C149.098 41.036 151.561 41.8133 155.833 41.8133H155.862C160.133 41.8133 162.595 41.036 165.275 38.84L165.287 38.832L165.534 38.5693L165.603 38.4947C166.705 37.2227 168.571 33.0853 169.121 29.2187C169.307 27.8987 169.399 26.7173 169.399 25.608C169.399 25.0027 169.371 24.4213 169.314 23.8627L169.322 23.8707C169.402 24.6667 169.827 26.7253 170.649 27.3187C170.929 27.5213 171.149 27.7413 171.319 27.9893Z" fill="black"/>
</g>
<defs>
<linearGradient id="paint0_linear_601_49931" x1="17.0414" y1="42.1917" x2="46.9693" y2="13.5826" gradientUnits="userSpaceOnUse">
<stop stop-color="#8C8C8C"/>
<stop offset="0.5" stop-color="#464646"/>
<stop offset="0.75" stop-color="white"/>
<stop offset="1" stop-color="white"/>
</linearGradient>
<radialGradient id="paint1_radial_601_49931" cx="0" cy="0" r="1" gradientUnits="userSpaceOnUse" gradientTransform="translate(32 28.3657) scale(10.4534 11.1734)">
<stop stop-color="#E60A47"/>
<stop offset="1" stop-color="#7C0626"/>
</radialGradient>
<radialGradient id="paint2_radial_601_49931" cx="0" cy="0" r="1" gradientUnits="userSpaceOnUse" gradientTransform="translate(32.626 28.2586) scale(8.17405 5.9729)">
<stop stop-color="#D3D1D2"/>
<stop offset="0.5" stop-color="#C9C7C8"/>
<stop offset="1" stop-color="#8D8B8C"/>
</radialGradient>
<radialGradient id="paint3_radial_601_49931" cx="0" cy="0" r="1" gradientUnits="userSpaceOnUse" gradientTransform="translate(32.6259 28.2586) scale(8.17405 5.9729)">
<stop stop-color="#D3D1D2"/>
<stop offset="0.5" stop-color="#C9C7C8"/>
<stop offset="1" stop-color="#8D8B8C"/>
</radialGradient>
<radialGradient id="paint4_radial_601_49931" cx="0" cy="0" r="1" gradientUnits="userSpaceOnUse" gradientTransform="translate(32.626 28.2586) scale(8.17405 5.9729)">
<stop stop-color="#D3D1D2"/>
<stop offset="0.5" stop-color="#C9C7C8"/>
<stop offset="1" stop-color="#8D8B8C"/>
</radialGradient>
<radialGradient id="paint5_radial_601_49931" cx="0" cy="0" r="1" gradientUnits="userSpaceOnUse" gradientTransform="translate(32.6259 28.2586) scale(8.17405 5.9729)">
<stop stop-color="#D3D1D2"/>
<stop offset="0.5" stop-color="#C9C7C8"/>
<stop offset="1" stop-color="#8D8B8C"/>
</radialGradient>
<clipPath id="clip0_601_49931">
<rect width="32" height="32" fill="white" transform="translate(16 12)"/>
</clipPath>
<clipPath id="clip1_601_49931">
<rect width="32" height="32" fill="white" transform="translate(139.793 12)"/>
</clipPath>
</defs>
</svg>
