<svg width="182" height="48" viewBox="0 0 182 48" fill="none" xmlns="http://www.w3.org/2000/svg">
<g clip-path="url(#clip0_601_49940)">
<path d="M47.39 12.3671C30.1704 12.3671 16.3671 17.5285 16.3671 23.9998C16.3671 30.4316 30.2841 35.6329 47.39 35.6329C64.4963 35.6329 78.4134 30.4141 78.4134 23.9998C78.4134 17.5854 64.4963 12.3671 47.39 12.3671Z" fill="#003478"/>
<path d="M59.6098 26.464C59.6181 26.5172 59.688 26.5683 59.7557 26.5924C59.7807 26.6007 59.7929 26.6174 59.7668 26.674C59.5737 27.0881 59.3961 27.3268 59.1539 27.6865C58.9311 28.019 58.6802 28.2783 58.3764 28.5278C57.9182 28.9069 57.2819 29.3197 56.7558 29.0422C56.5221 28.9209 56.421 28.5939 56.4255 28.3291C56.4366 27.5846 56.7679 26.8203 57.3794 26.0691C58.125 25.1512 58.9493 24.6751 59.4902 24.9353C60.0499 25.2022 59.8713 25.8502 59.6206 26.3588C59.6012 26.3982 59.6012 26.4315 59.6096 26.4637M65.6154 20.6627C65.6557 20.5916 65.6133 20.5398 65.5236 20.5398C65.0561 20.5398 64.4428 20.5408 63.9557 20.5408C63.8397 20.5408 63.7798 20.5547 63.7251 20.6629C63.5453 21.0073 61.3543 24.2909 60.9465 24.9286C60.8777 25.0257 60.7939 25.0121 60.7842 24.9008C60.7429 24.5221 60.4158 24.0867 59.9005 23.8784C59.5078 23.7191 59.1239 23.6903 58.7247 23.7433C58.0041 23.8401 57.3621 24.2202 56.7977 24.649C55.947 25.2957 55.213 26.1339 54.2655 26.7532C53.7483 27.0904 53.04 27.3844 52.566 26.9455C52.1371 26.5478 52.1856 25.6646 52.8419 24.9815C52.911 24.9099 52.9939 24.9704 52.9809 25.0339C52.919 25.3428 52.9947 25.6501 53.2295 25.8655C53.5158 26.1222 53.9256 26.1511 54.2763 25.9798C54.6901 25.7748 54.9333 25.3788 55.0042 24.9294C55.1138 24.2323 54.5772 23.6174 53.9058 23.5681C53.3603 23.5298 52.8372 23.7196 52.3275 24.1403C52.0719 24.3523 51.9268 24.5089 51.7058 24.8232C51.652 24.9006 51.5692 24.9084 51.5717 24.794C51.5967 23.9015 51.2279 23.3994 50.4901 23.383C49.9173 23.3691 49.3054 23.68 48.8285 24.0603C48.3057 24.4802 47.8485 25.0366 47.3584 25.5594C47.2974 25.6238 47.2444 25.6208 47.2271 25.4959C47.2133 24.9045 47.0637 24.3318 46.7901 23.925C46.6932 23.7835 46.4893 23.7135 46.3181 23.809C46.239 23.8523 45.9639 23.9788 45.7636 24.1401C45.6642 24.222 45.6253 24.3405 45.6695 24.4923C45.9336 25.3758 45.8756 26.3803 45.5171 27.2287C45.188 28.0057 44.5484 28.7065 43.7965 28.9437C43.3012 29.1008 42.7864 29.0239 42.4678 28.5848C42.0302 27.9788 42.2069 26.9249 42.8592 26.0499C43.4348 25.2793 44.2675 24.7898 45.0979 24.4746C45.1956 24.4369 45.2159 24.3742 45.1881 24.2912C45.1432 24.1547 45.071 23.9687 45.0419 23.8839C44.9656 23.681 44.7524 23.6483 44.4919 23.6766C43.8885 23.7468 43.3441 23.9535 42.8064 24.2415C41.3983 24.9955 40.6924 26.4548 40.383 27.2355C40.234 27.6105 40.1066 27.8445 39.942 28.0519C39.72 28.3309 39.4414 28.5849 38.9319 29.0324C38.8858 29.0735 38.8514 29.1589 38.8903 29.2385C38.9422 29.3462 39.2072 29.7205 39.2819 29.7538C39.3649 29.7946 39.4612 29.7372 39.4997 29.71C39.8563 29.4683 40.2828 29.0852 40.4916 28.8254C40.5648 28.7363 40.64 28.7738 40.6789 28.909C40.8737 29.6039 41.3837 30.1714 42.0891 30.4088C43.3801 30.8442 44.7192 30.214 45.73 29.1169C46.3724 28.4195 46.6042 27.971 46.8505 27.6662C47.2678 27.1492 48.0909 25.9925 49.0713 25.2499C49.4309 24.976 49.8563 24.7672 50.0702 24.9059C50.242 25.0172 50.2975 25.2758 50.022 25.7768C49.0224 27.6022 47.5517 29.7468 47.2819 30.2668C47.2325 30.357 47.2764 30.428 47.3702 30.428C47.8933 30.4254 48.4118 30.4267 48.8866 30.4267C48.9657 30.424 49.0009 30.3868 49.0406 30.331C49.8077 29.1302 50.5296 27.9874 51.3035 26.8057C51.3467 26.7361 51.3867 26.7891 51.3883 26.8196C51.405 27.0938 51.4716 27.4687 51.6345 27.715C51.927 28.1702 52.3415 28.3658 52.8012 28.3688C53.167 28.3743 53.3521 28.3174 53.7465 28.17C54.0675 28.051 54.3252 27.8948 54.5229 27.7534C54.6384 27.6729 54.6586 27.8075 54.6558 27.828C54.4782 28.7813 54.6975 29.9108 55.6449 30.3792C56.7787 30.9382 58.0243 30.1524 58.741 29.4431C58.8112 29.3748 58.8864 29.382 58.8936 29.5294C58.9103 29.8002 59.0313 30.1216 59.2553 30.3465C59.856 30.9493 61.0679 30.7104 62.2843 29.769C63.0652 29.1662 63.8823 28.3146 64.6203 27.4128C64.6481 27.3779 64.6681 27.3218 64.6148 27.2649C64.5024 27.1473 64.3398 27.0127 64.2283 26.9091C64.1776 26.8658 64.1029 26.8782 64.0602 26.9105C63.3036 27.6301 62.6226 28.4506 61.6383 29.1292C61.3063 29.3609 60.7773 29.5478 60.5396 29.2261C60.447 29.1012 60.4575 28.9286 60.548 28.7019C60.8349 27.9862 65.3785 21.0686 65.6144 20.6607" fill="white"/>
<path d="M44.2384 21.4974C44.2579 21.6001 44.2978 21.6201 44.3445 21.6115C44.5759 21.5651 44.8292 21.3748 44.9791 21.1541C45.1157 20.954 45.1797 20.6653 45.044 20.5496C44.9231 20.4456 44.7261 20.475 44.58 20.604C44.2892 20.861 44.2009 21.2256 44.2384 21.4976M32.658 30.4021C30.9639 30.4132 29.4714 29.367 29.3001 27.5546C29.2049 26.5502 29.4888 25.6552 30.0571 24.9178C30.5614 24.2607 31.4148 23.7148 32.1371 23.5814C32.3721 23.5384 32.6879 23.5648 32.8185 23.7213C33.0233 23.9597 32.9644 24.2215 32.7597 24.326C32.2086 24.6073 31.5455 25.089 31.2174 25.7467C30.9513 26.2836 30.8975 26.9305 31.304 27.5469C31.9843 28.574 33.8807 28.6023 35.644 26.9642C36.0807 26.5632 36.4715 26.178 36.8687 25.7218C37.6453 24.8338 37.9036 24.5102 38.936 23.0783C38.9471 23.0616 38.9526 23.0399 38.947 23.0294C38.9387 23.01 38.9249 23.0072 38.8941 23.0044C38.2049 23.0238 37.6041 23.2289 37.0201 23.6654C36.8519 23.788 36.6098 23.7708 36.5039 23.6093C36.3859 23.4267 36.4706 23.189 36.6646 23.0548C37.604 22.4014 38.6303 22.2829 39.6784 22.106C39.6775 22.106 39.7511 22.1088 39.811 22.03C40.2413 21.4778 40.5661 20.9798 41.0248 20.4214C41.4869 19.8548 42.0838 19.3346 42.5398 18.9438C43.1764 18.3964 43.5847 18.2122 43.9996 17.9864C44.109 17.9293 43.9858 17.861 43.9525 17.861C41.636 17.4256 39.2281 16.8622 36.9275 17.7139C35.3342 18.3085 34.636 19.572 34.9719 20.4163C35.2108 21.0151 35.9984 21.1125 36.7358 20.7517C37.3483 20.4516 37.915 19.9679 38.3168 19.3453C38.5416 18.9996 39.0152 19.249 38.7593 19.8494C38.0861 21.4317 36.8 22.6869 35.2334 22.7399C33.9001 22.7831 33.0399 21.8023 33.0427 20.5922C33.0483 18.2055 35.7052 16.6333 38.4976 16.3983C41.8604 16.1204 45.0455 17.0162 48.3844 17.4212C50.9426 17.7309 53.3953 17.7374 55.9667 17.1467C56.2706 17.0807 56.4839 17.2746 56.4641 17.5816C56.4391 18.0254 56.0953 18.4528 55.2484 18.9147C54.2852 19.443 53.2776 19.6032 52.2253 19.6118C49.6806 19.634 47.3103 18.6411 44.8574 18.1082C44.8602 18.2155 44.8885 18.3434 44.7986 18.4112C43.4399 19.4134 42.2118 20.4311 41.3893 21.8605C41.3615 21.8935 41.3754 21.9249 41.4245 21.9216C42.1387 21.8835 42.7809 21.8652 43.4476 21.8119C43.5642 21.8008 43.5686 21.7731 43.5583 21.6882C43.4992 21.1955 43.6432 20.6337 44.0766 20.2472C44.5202 19.8495 45.0756 19.8043 45.4437 20.0907C45.8623 20.4169 45.8253 21.0034 45.5963 21.4433C45.3633 21.8897 44.9783 22.1284 44.6088 22.2443C44.6088 22.2443 44.5311 22.261 44.5428 22.3315C44.5567 22.4441 45.0607 22.7231 45.1038 22.7974C45.1454 22.8682 45.1232 22.9778 45.0475 23.0619C44.9942 23.1229 44.9107 23.1801 44.8038 23.1781C44.7175 23.1764 44.6651 23.1465 44.5546 23.0869C44.3288 22.9645 44.0465 22.7633 43.8582 22.5261C43.7941 22.4459 43.7613 22.4442 43.6012 22.4531C42.8797 22.4947 41.7548 22.6035 40.9926 22.6987C40.8078 22.7209 40.7806 22.7561 40.7426 22.8202C39.5273 24.8241 38.2298 26.9851 36.8052 28.4319C35.2771 29.9832 34.007 30.3917 32.6586 30.4022" fill="white"/>
<path d="M47.3893 14.2693C31.5478 14.2693 18.707 18.6468 18.707 24.0035C18.707 29.3605 31.5478 33.7384 47.3893 33.7384C63.2306 33.7384 76.0705 29.3605 76.0705 24.0035C76.0705 18.6468 63.2306 14.2693 47.3893 14.2693ZM47.3893 34.6206C30.9711 34.6206 17.6617 29.8672 17.6617 24.0035C17.6617 18.1389 30.9711 13.3863 47.3893 13.3863C63.806 13.3863 77.1145 18.1389 77.1145 24.0035C77.1145 29.8672 63.806 34.6206 47.3893 34.6206Z" fill="white"/>
</g>
<path d="M154.789 28.9446C154.803 29.0339 154.92 29.1193 155.033 29.1598C155.075 29.1737 155.095 29.2016 155.052 29.2964C154.728 29.9898 154.431 30.3896 154.025 30.992C153.652 31.5487 153.232 31.983 152.723 32.4008C151.956 33.0358 150.89 33.727 150.009 33.2623C149.618 33.0593 149.449 32.5115 149.456 32.0682C149.475 30.8213 150.03 29.5413 151.054 28.2833C152.302 26.7461 153.683 25.9488 154.589 26.3846C155.526 26.8317 155.227 27.9168 154.807 28.7686C154.774 28.8345 154.774 28.8903 154.788 28.9442M164.846 19.2294C164.914 19.1104 164.843 19.0236 164.692 19.0236C163.91 19.0236 162.882 19.0253 162.067 19.0253C161.873 19.0253 161.772 19.0485 161.681 19.2298C161.379 19.8066 157.71 25.3055 157.027 26.3734C156.912 26.536 156.772 26.5132 156.756 26.3269C156.686 25.6927 156.139 24.9636 155.276 24.6147C154.618 24.348 153.975 24.2996 153.307 24.3884C152.1 24.5506 151.025 25.1871 150.079 25.9051C148.655 26.9881 147.426 28.3919 145.839 29.4291C144.973 29.9937 143.787 30.4861 142.993 29.7511C142.275 29.0851 142.356 27.606 143.455 26.462C143.571 26.3421 143.709 26.4433 143.688 26.5498C143.584 27.0671 143.711 27.5816 144.104 27.9424C144.583 28.3723 145.27 28.4208 145.857 28.1339C146.55 27.7904 146.957 27.1273 147.076 26.3747C147.26 25.2073 146.361 24.1777 145.236 24.095C144.323 24.0309 143.447 24.3487 142.593 25.0532C142.165 25.4083 141.922 25.6705 141.552 26.1969C141.462 26.3266 141.324 26.3395 141.328 26.1481C141.37 24.6534 140.752 23.8124 139.516 23.785C138.557 23.7618 137.532 24.2825 136.734 24.9193C135.858 25.6224 135.093 26.5543 134.272 27.4299C134.17 27.5377 134.081 27.5326 134.052 27.3234C134.029 26.3331 133.778 25.3739 133.32 24.6927C133.158 24.4557 132.816 24.3386 132.53 24.4984C132.397 24.5709 131.936 24.7828 131.601 25.0529C131.435 25.19 131.37 25.3885 131.443 25.6428C131.886 27.1224 131.789 28.8046 131.188 30.2253C130.637 31.5266 129.566 32.7002 128.307 33.0974C127.477 33.3604 126.615 33.2317 126.082 32.4964C125.349 31.4815 125.645 29.7166 126.737 28.2511C127.701 26.9607 129.095 26.141 130.486 25.6132C130.65 25.55 130.684 25.445 130.637 25.306C130.562 25.0774 130.441 24.766 130.392 24.6239C130.265 24.2842 129.908 24.2293 129.471 24.2767C128.461 24.3943 127.549 24.7405 126.649 25.2227C124.291 26.4854 123.108 28.9292 122.59 30.2367C122.341 30.8648 122.128 31.2565 121.852 31.6039C121.48 32.0711 121.013 32.4965 120.16 33.2459C120.083 33.3147 120.025 33.4578 120.09 33.5911C120.177 33.7714 120.621 34.3982 120.746 34.4541C120.885 34.5224 121.047 34.4262 121.111 34.3806C121.708 33.9759 122.423 33.3344 122.772 32.8993C122.895 32.7501 123.021 32.8129 123.086 33.0392C123.412 34.203 124.266 35.1534 125.447 35.5509C127.61 36.28 129.852 35.2247 131.545 33.3873C132.621 32.2195 133.009 31.4684 133.421 30.9579C134.12 30.0921 135.498 28.1551 137.14 26.9115C137.742 26.4529 138.455 26.103 138.813 26.3354C139.101 26.5217 139.194 26.9548 138.732 27.7939C137.058 30.8508 134.595 34.4423 134.144 35.3132C134.061 35.4642 134.134 35.5831 134.292 35.5831C135.168 35.5788 136.036 35.581 136.831 35.581C136.963 35.5763 137.022 35.5141 137.089 35.4207C138.374 33.4097 139.583 31.4958 140.878 29.517C140.951 29.4004 141.018 29.4891 141.021 29.5402C141.049 29.9993 141.16 30.6272 141.433 31.0396C141.923 31.8019 142.617 32.1295 143.387 32.1345C143.999 32.1438 144.309 32.0485 144.97 31.8018C145.507 31.6024 145.939 31.3408 146.27 31.104C146.463 30.9692 146.497 31.1946 146.493 31.229C146.195 32.8254 146.562 34.717 148.149 35.5013C150.048 36.4375 152.134 35.1216 153.334 33.9337C153.452 33.8194 153.577 33.8315 153.59 34.0782C153.617 34.5318 153.82 35.07 154.195 35.4466C155.201 36.4561 157.231 36.056 159.268 34.4794C160.575 33.47 161.944 32.0439 163.18 30.5337C163.226 30.4751 163.26 30.3813 163.171 30.286C162.982 30.089 162.71 29.8636 162.523 29.69C162.438 29.6175 162.313 29.6384 162.242 29.6925C160.975 30.8975 159.834 32.2717 158.186 33.4081C157.63 33.7961 156.744 34.1091 156.346 33.5703C156.191 33.3612 156.208 33.072 156.36 32.6924C156.841 31.494 164.45 19.9093 164.845 19.226" fill="black"/>
<path d="M129.047 20.6273C129.08 20.7993 129.147 20.8328 129.225 20.8183C129.612 20.7407 130.036 20.4219 130.288 20.0524C130.516 19.7173 130.623 19.2338 130.396 19.0401C130.194 18.8658 129.864 18.9151 129.619 19.1311C129.132 19.5615 128.984 20.172 129.047 20.6277M109.654 35.5397C106.817 35.5583 104.317 33.8062 104.03 30.771C103.871 29.0891 104.346 27.5902 105.298 26.3553C106.143 25.2549 107.572 24.3407 108.781 24.1174C109.175 24.0453 109.704 24.0895 109.923 24.3516C110.265 24.7508 110.167 25.1893 109.824 25.3642C108.901 25.8354 107.791 26.6421 107.241 27.7435C106.796 28.6425 106.705 29.726 107.386 30.7581C108.525 32.4783 111.701 32.5256 114.654 29.7823C115.386 29.1109 116.04 28.4658 116.705 27.7017C118.006 26.2146 118.438 25.6727 120.167 23.2747C120.186 23.2468 120.195 23.2105 120.186 23.1929C120.172 23.1603 120.149 23.1557 120.097 23.151C118.943 23.1836 117.937 23.527 116.959 24.2579C116.677 24.4633 116.272 24.4345 116.094 24.164C115.897 23.8583 116.039 23.4602 116.363 23.2354C117.937 22.1412 119.655 21.9428 121.411 21.6466C121.409 21.6466 121.532 21.6512 121.633 21.5192C122.353 20.5945 122.897 19.7604 123.665 18.8253C124.439 17.8765 125.439 17.0053 126.203 16.3508C127.269 15.4341 127.952 15.1256 128.647 14.7476C128.83 14.6518 128.624 14.5375 128.568 14.5375C124.689 13.8084 120.656 12.8649 116.804 14.2912C114.136 15.2869 112.966 17.4029 113.529 18.8167C113.929 19.8197 115.248 19.9827 116.483 19.3784C117.508 18.8759 118.458 18.0659 119.13 17.0233C119.507 16.4443 120.3 16.862 119.871 17.8675C118.744 20.5173 116.59 22.6192 113.967 22.708C111.734 22.7805 110.293 21.1379 110.298 19.1114C110.307 15.1145 114.757 12.4816 119.433 12.088C125.065 11.6226 130.399 13.1227 135.99 13.8009C140.274 14.3197 144.382 14.3305 148.688 13.3413C149.197 13.2307 149.554 13.5555 149.521 14.0697C149.479 14.8129 148.903 15.5287 147.485 16.3022C145.872 17.1868 144.185 17.4552 142.422 17.4696C138.161 17.5068 134.191 15.844 130.084 14.9514C130.088 15.1313 130.136 15.3455 129.985 15.459C127.71 17.1373 125.653 18.8416 124.276 21.2354C124.229 21.2907 124.252 21.3432 124.335 21.3376C125.531 21.2739 126.606 21.2433 127.723 21.154C127.918 21.1354 127.925 21.089 127.908 20.9468C127.809 20.1217 128.05 19.1808 128.776 18.5336C129.519 17.8676 130.449 17.7918 131.066 18.2715C131.767 18.8177 131.704 19.8001 131.321 20.5368C130.931 21.2843 130.286 21.684 129.667 21.8781C129.667 21.8781 129.537 21.906 129.557 22.0241C129.58 22.2128 130.424 22.6799 130.496 22.8044C130.566 22.9229 130.529 23.1065 130.402 23.2473C130.313 23.3495 130.173 23.4452 129.994 23.442C129.849 23.4391 129.762 23.389 129.577 23.2891C129.198 23.0842 128.726 22.7472 128.41 22.35C128.303 22.2157 128.248 22.2129 127.98 22.2278C126.772 22.2975 124.888 22.4797 123.611 22.6391C123.302 22.6762 123.256 22.7352 123.193 22.8426C121.158 26.1985 118.985 29.8174 116.599 32.2403C114.04 34.8382 111.913 35.5222 109.655 35.5399" fill="black"/>
<defs>
<clipPath id="clip0_601_49940">
<rect width="62.7805" height="24" fill="white" transform="translate(16 12)"/>
</clipPath>
</defs>
</svg>
