<svg width="64" height="41" viewBox="0 0 64 41" fill="none" xmlns="http://www.w3.org/2000/svg">
<path fill-rule="evenodd" clip-rule="evenodd" d="M35.3499 22.0377C35.5935 23.2969 34.9336 24.3427 34.3853 25.3579C33.7762 26.3024 32.7709 27.1141 31.5627 26.9927C28.8513 26.9521 26.2013 26.5358 23.7438 25.7943C23.6323 25.7639 23.5207 25.6926 23.4596 25.5912C23.4088 25.449 23.4801 25.3169 23.5814 25.2258C25.8256 23.4081 28.4961 22.5656 31.1361 21.6818C32.1209 21.3976 33.1671 21.0929 34.2737 21.2352C34.7302 21.2963 35.1871 21.6112 35.3499 22.0377ZM44.6002 16.6563C45.8593 17.6919 46.9966 19.1035 46.6107 20.8093C45.9811 23.3276 43.2397 24.6679 41.0566 25.5206C39.8684 25.9168 38.6704 26.3232 37.3706 26.445C37.2894 26.4348 37.1574 26.4549 37.1369 26.3331L37.1673 26.1911C39.0153 24.1093 40.4164 21.7743 41.6455 19.4083C42.214 18.3419 42.7422 17.2456 43.2295 16.169C43.3004 16.0878 43.3718 16.0472 43.453 16.0168C43.9095 16.0571 44.2347 16.4126 44.6002 16.6563ZM26.8811 13.9756L26.8404 14.1278C24.17 17.1637 22.4134 20.6872 20.7482 24.1902C20.4234 24.4949 20.1084 24.0885 19.8139 23.9564C18.3313 22.9819 16.991 21.4078 17.3769 19.5396C17.9962 17.1029 20.5042 15.8032 22.5963 14.9201C23.8349 14.453 25.1248 14.0773 26.4852 13.864C26.6275 13.8637 26.8101 13.8436 26.8811 13.9756ZM40.1325 14.4629C40.2847 14.5441 40.4676 14.5745 40.559 14.7267C40.6403 14.8993 40.4778 15.0109 40.3864 15.1228C38.2844 16.7675 35.8781 17.6817 33.4206 18.4839C32.1714 18.7886 30.9123 19.3369 29.5215 19.0322C29.1963 18.951 28.9021 18.7377 28.7192 18.4228C28.3739 17.4684 28.841 16.4734 29.2471 15.6408C29.7852 14.5949 30.74 13.3662 32.0598 13.3461C34.9029 13.3256 37.5836 13.7521 40.1325 14.4629ZM43.6458 14.5441C45.7986 15.722 48.2356 17.7932 47.9817 20.5551C47.6872 23.114 45.301 24.901 43.1687 25.9775C36.9441 28.9527 28.2016 29.0438 21.7739 26.4447C19.6007 25.5411 17.1637 23.9875 16.2495 21.6518C15.549 19.7328 16.4017 17.7325 17.8338 16.4024C20.8291 13.6811 24.6471 12.7472 28.5769 12.2088C32.8419 11.6908 37.3297 12.1477 41.1477 13.4576C42.0007 13.7726 42.8435 14.1179 43.6458 14.5441Z" fill="#003984"/>
</svg>
