<svg width="64" height="30" viewBox="0 0 64 30" fill="none" xmlns="http://www.w3.org/2000/svg">
<g clip-path="url(#clip0_601_50093)">
<path d="M29.9309 17.479C30.0443 17.479 30.7339 17.4753 31.2906 17.4365C31.9634 17.3896 32.3101 17.1589 32.5642 16.8284C32.8793 16.4193 32.8773 15.6522 32.8769 15.0553C32.8765 14.3886 32.8857 12.4572 32.8828 12.285C32.8806 12.1121 32.8152 12.0223 32.6175 12.024C32.4196 12.0252 31.8617 12.024 31.6701 12.0256L31.3289 12.024C31.1311 12.0223 31.0659 12.1121 31.063 12.285V12.4702C31.0659 12.6746 31.0603 14.6232 31.0595 15.0801V15.2825C31.0542 15.7032 31.0029 16.1125 30.4078 16.1759C30.1511 16.2029 30.0334 16.215 29.7154 16.215C29.3969 16.215 29.2796 16.2029 29.0194 16.1759C28.4246 16.1133 28.3885 15.7032 28.3829 15.2825V15.0801C28.3821 14.6232 28.3766 12.6746 28.379 12.4702V12.285C28.3766 12.1121 28.311 12.0223 28.1135 12.024L27.7719 12.0256C27.5804 12.024 27.0228 12.0252 26.8247 12.024C26.6273 12.0223 26.5619 12.1121 26.5596 12.285C26.5567 12.4572 26.5588 14.3886 26.558 15.0553C26.5576 15.6522 26.5559 16.4193 26.8707 16.8284C27.1241 17.1589 27.4662 17.3896 28.1367 17.4365C28.6934 17.4757 29.3625 17.479 29.5107 17.479H29.9309H29.9309ZM17.8383 17.2284C17.8344 17.416 17.779 17.49 17.5869 17.4945C17.3942 17.5001 16.4511 17.497 16.2793 17.4956C16.1083 17.4937 16.0029 17.4418 16.0025 17.2583C16.0012 17.075 16.0012 12.4656 16 12.2905C15.9996 12.1162 16.0818 12.0336 16.2625 12.0391C16.4427 12.0434 17.3689 12.0342 17.6148 12.0385C17.8008 12.0371 17.8445 12.1443 17.8451 12.3358C17.8496 12.5934 17.8428 17.0418 17.8383 17.2284M43.5341 15.3637C43.5376 15.7963 43.6422 16.0859 44.138 16.163C44.535 16.204 45.072 16.2124 45.4841 16.1706C45.8614 16.1291 46.152 15.9762 46.169 15.5491C46.1881 15.1884 46.1897 15.1262 46.191 14.7459C46.193 13.8227 46.183 12.4819 46.186 12.3502L46.1877 12.2943C46.1846 12.0898 46.2779 12.0035 46.451 12.0035L46.5545 12C46.7516 12.0016 47.5445 12.0035 47.7364 12.0035C47.9095 12.0035 48.0028 12.0898 47.9999 12.2943L47.9975 12.358C48.0012 12.5508 47.9952 14.5929 47.9932 15.1955C47.9823 15.4982 47.9608 16.2032 47.7276 16.6502C47.5246 17.0381 47.1613 17.3365 46.5434 17.3978C45.356 17.5161 44.2733 17.4669 43.4396 17.4321C42.8199 17.4001 42.4207 17.2612 42.0895 16.8932C41.7147 16.4712 41.695 15.75 41.7005 14.9228C41.6933 13.0976 41.6878 12.5717 41.6907 12.3976V12.2943C41.6878 12.0898 41.7811 12.0035 41.9542 12.0035L42.0571 12C42.256 12.0016 43.0787 12.0035 43.271 12.0035C43.4435 12.0035 43.5376 12.0898 43.5341 12.2943C43.5312 12.4995 43.5333 14.8369 43.5341 15.3518M34.2975 12.0197C34.4829 12.0141 37.7982 12.018 38.8347 12.0238C39.7525 12.034 40.0919 12.1646 40.341 12.4981C40.6285 12.8833 40.6582 13.366 40.4259 13.7632C40.2592 14.048 39.9508 14.2966 39.4882 14.5223C39.1209 14.711 38.4779 14.9972 37.8494 15.2739C37.0077 15.6456 36.2455 15.9675 36.1173 16.0346C35.9439 16.1256 36.0095 16.262 36.1473 16.26C36.5069 16.2556 39.9797 16.2273 40.1651 16.2269C40.3513 16.2267 40.4118 16.2938 40.4118 16.4937C40.4114 16.7029 40.4134 17.0605 40.4138 17.2227C40.4095 17.4177 40.3474 17.471 40.1626 17.4728C39.9516 17.4751 36.2523 17.4761 35.9892 17.4774C35.4044 17.4759 34.8021 17.4782 34.4429 17.3041C33.9942 17.0861 33.8425 16.6491 33.8421 16.3428C33.8634 15.5962 34.2794 15.3571 35.0291 15.0097C35.8627 14.6314 38.3233 13.567 38.4699 13.4989C38.6516 13.4142 38.5952 13.2477 38.4266 13.2533C38.2972 13.2559 34.5282 13.2752 34.342 13.275C34.1564 13.2744 34.0383 13.2444 34.0383 13.0644C34.0387 12.8852 34.0367 12.4357 34.0367 12.2508C34.0367 12.065 34.1113 12.0256 34.2975 12.0197M24.5634 14.8272C23.7297 14.4809 21.2969 13.7113 20.9742 13.5516C20.8187 13.4847 20.8292 13.2863 21.0396 13.2863C21.3988 13.2916 24.9647 13.2986 25.1509 13.2998C25.3369 13.3002 25.4152 13.2278 25.4152 13.0275C25.416 12.8185 25.4146 12.4351 25.4121 12.2667C25.4097 12.0955 25.3479 12.0307 25.1942 12.0303C25.0404 12.0303 20.9221 12.0352 20.9221 12.0352C19.7728 12.0326 19.4779 12.2017 19.1523 12.5928C18.7278 13.1029 18.8627 13.7936 19.1063 14.1497C19.3807 14.5482 19.8337 14.7243 20.5544 14.9765C21.4275 15.2605 23.4838 15.9837 23.4838 15.9837C23.6723 16.0651 23.6579 16.2626 23.4252 16.2626C23.4252 16.2626 19.5027 16.2273 19.3169 16.2269C19.1307 16.2267 19.0399 16.3176 19.0391 16.4974C19.0391 16.6772 19.0374 17.0067 19.0366 17.1937C19.0366 17.3787 19.0904 17.4843 19.2765 17.4909C19.4615 17.4972 22.8342 17.4845 23.8714 17.4825C24.6604 17.4804 25.4226 17.2366 25.579 16.3651C25.6728 15.6142 25.3549 15.1488 24.5634 14.8272" fill="#E60012"/>
</g>
<defs>
<clipPath id="clip0_601_50093">
<rect width="32" height="5.49773" fill="white" transform="translate(16 12)"/>
</clipPath>
</defs>
</svg>
