<svg width="64" height="37" viewBox="0 0 64 37" fill="none" xmlns="http://www.w3.org/2000/svg">
<g clip-path="url(#clip0_601_50111)">
<path d="M42.6877 18.888C42.6617 20.3235 42.9717 21.0839 44.1551 21.0839C45.3365 21.0839 45.506 19.7886 45.506 18.803C45.506 17.8168 45.2819 16.8593 44.0406 16.8593C43.2792 16.8593 42.717 17.451 42.6877 18.888ZM40.2937 24.8867V15.1697H42.717C42.717 15.1697 42.717 15.3104 42.717 15.5639C42.717 16.0897 42.929 15.8728 43.0999 15.668C43.1285 15.6337 43.6686 14.9726 44.8849 14.9726C46.0975 14.9726 47.984 15.8173 47.984 18.803C47.984 21.1125 46.8585 22.8021 44.9148 22.8021C43.8437 22.8021 43.2245 22.3804 43.083 22.2102C42.9412 22.0424 42.7443 22.0131 42.7443 22.2102C42.7443 22.4077 42.7443 24.8867 42.7443 24.8867H40.2937Z" fill="#231F20"/>
<path d="M21.5639 12.016H24.1834C24.1834 12.016 24.1834 17.7047 24.1834 18.888C24.1834 20.0701 23.6759 22.5493 20.0432 22.5493C16.4102 22.5493 16.016 20.2385 16.016 18.944V17.6767H18.5509C18.5509 17.6767 18.5509 18.1554 18.5509 18.9153C18.5509 19.6757 19.0581 20.3795 20.0151 20.3795C20.9725 20.3795 21.5639 19.8446 21.5639 18.944C21.5639 18.0427 21.5639 12.016 21.5639 12.016Z" fill="#231F20"/>
<path d="M29.6615 17.8456C29.6615 17.1407 29.268 16.4649 28.3668 16.4649C27.4937 16.4649 27.1836 17.0839 27.1836 17.8456H29.6615ZM28.1142 14.8881C30.1713 14.8881 31.973 15.6764 31.973 19.3097H27.101C27.101 20.4644 27.5793 20.9434 28.4242 20.9434C29.2693 20.9434 29.5508 20.2669 29.5508 20.2669H31.9454C31.9454 21.3093 30.5088 22.7175 28.3397 22.6896C25.862 22.6896 24.6506 20.8588 24.6506 18.9717C24.6506 17.0839 25.7202 14.8881 28.1142 14.8881Z" fill="#231F20"/>
<path d="M37.45 17.8456C37.45 17.1407 37.0561 16.4649 36.1548 16.4649C35.2822 16.4649 34.9715 17.0839 34.9715 17.8456H37.45ZM35.9027 14.8881C37.9595 14.8881 39.7608 15.6764 39.7608 19.3097H34.8891C34.8891 20.4644 35.3678 20.9434 36.2134 20.9434C37.0576 20.9434 37.3395 20.2669 37.3395 20.2669H39.7341C39.7341 21.3093 38.2973 22.7175 36.1288 22.6896C33.6498 22.6896 32.4385 20.8588 32.4385 18.9717C32.4385 17.0839 33.5093 14.8881 35.9027 14.8881Z" fill="#231F20"/>
<path d="M46.38 23.7218C46.38 23.337 46.6933 23.0243 47.0794 23.0243C47.4642 23.0243 47.7769 23.337 47.7769 23.7218C47.7769 24.106 47.4642 24.4206 47.0794 24.4206C46.6933 24.4206 46.38 24.106 46.38 23.7218ZM46.2993 23.7218C46.2993 24.1524 46.6479 24.5019 47.0794 24.5019C47.508 24.5019 47.8586 24.1524 47.8586 23.7218C47.8586 23.2912 47.508 22.9417 47.0794 22.9417C46.6479 22.9417 46.2993 23.2912 46.2993 23.7218Z" fill="#231F20"/>
<path d="M47.3919 24.1207L47.2299 23.7383C47.2813 23.7205 47.2985 23.7079 47.3258 23.6787C47.3613 23.6405 47.3837 23.5802 47.3837 23.5256C47.3837 23.3877 47.2776 23.2938 47.1239 23.2938H46.7987V24.1207H46.8952V23.7626H47.1302L47.2846 24.1207H47.3919ZM46.8926 23.6787V23.3838H47.122C47.2178 23.3838 47.2787 23.4384 47.2787 23.523C47.2787 23.619 47.2141 23.6787 47.1085 23.6787H46.8926Z" fill="#231F20"/>
</g>
<defs>
<clipPath id="clip0_601_50111">
<rect width="32" height="12.9027" fill="white" transform="translate(16 12)"/>
</clipPath>
</defs>
</svg>
