<svg width="134" height="48" viewBox="0 0 134 48" fill="none" xmlns="http://www.w3.org/2000/svg">
<g clip-path="url(#clip0_601_49949)">
<path d="M75.1792 33.2462C75.1792 33.4399 75.2404 33.5522 75.3527 33.5522C75.4476 33.5522 75.5262 33.5013 75.5976 33.4501L107.39 12.8161C107.927 12.4406 108.571 12.2475 109.226 12.2652H116.213C117.284 12.2652 118.008 12.979 118.008 14.0501V27.3914C118.008 29.0028 117.651 29.9414 116.223 30.798L107.747 35.898C107.663 35.9567 107.563 36.0001 107.462 36.0001C107.361 36.0001 107.258 35.9185 107.258 35.6227V20.0579C107.258 19.8742 107.207 19.7519 107.084 19.7519C106.995 19.7519 106.91 19.7977 106.839 19.854L83.6042 34.9498C83.0738 35.3067 82.4515 35.5007 81.8193 35.4905H66.4175C65.3362 35.4905 64.6223 34.7766 64.6223 33.6953V14.4688C64.6223 14.326 64.5612 14.1935 64.4386 14.1935C64.3494 14.1935 64.2648 14.2402 64.1937 14.2956L48.8639 23.4953C48.7109 23.5974 48.6702 23.6688 48.6702 23.7402C48.6702 23.8013 48.7009 23.8625 48.8027 23.9748L59.7573 34.9191C59.9 35.0618 60.0021 35.1742 60.0021 35.2965C60.0021 35.3986 59.8389 35.4802 59.6452 35.4802H49.7512C48.9759 35.4802 48.3741 35.3679 47.9561 34.9498L41.316 28.32C41.2651 28.2591 41.1919 28.2179 41.1121 28.2179C41.0401 28.2179 40.9699 28.2423 40.9082 28.279L29.8109 34.9498C29.1377 35.3579 28.6787 35.47 28.0157 35.47H17.8058C16.7145 35.4802 16.0004 34.7561 16.0004 33.685V20.5986C16.0004 18.9769 16.3573 18.0486 17.7955 17.192L26.3226 12.0718C26.3889 12.0267 26.4669 12.0019 26.547 12.0004C26.6796 12.0004 26.751 12.1329 26.751 12.4287V29.9519C26.751 30.1356 26.7916 30.217 26.9245 30.217C27.0148 30.217 27.0979 30.1661 27.1796 30.1149L55.9838 12.7854C56.5347 12.408 57.2079 12.2245 57.881 12.2549H73.3846C74.4557 12.2549 75.1798 12.9688 75.1798 14.0399L75.1696 33.2462H75.1792Z" fill="black"/>
</g>
<defs>
<clipPath id="clip0_601_49949">
<rect width="102.008" height="24" fill="white" transform="translate(16 12)"/>
</clipPath>
</defs>
</svg>
