<svg width="64" height="41" viewBox="0 0 64 41" fill="none" xmlns="http://www.w3.org/2000/svg">
<g clip-path="url(#clip0_601_50138)">
<path d="M34.5084 20.5728L33.1135 23.3121H33.0845L33.0139 20.5728H31.8471L31.8016 20.6713L31.9017 20.7324C31.9983 20.8004 32.0253 20.8695 32.0378 21.0596L32.1959 24.3838H33.4958L35.5937 20.5728H34.5084ZM30.3561 22.5456C30.2256 22.9203 30.123 23.1615 29.9714 23.3206C29.8523 23.4457 29.6952 23.5352 29.3335 23.5352C29.0498 23.5352 28.8917 23.4192 28.8917 23.1995C28.8897 23.0579 28.9282 22.8428 29.0798 22.424C29.2109 22.0497 29.3134 21.8086 29.4655 21.6495C29.5831 21.5244 29.7407 21.4343 30.103 21.4343C30.3867 21.4343 30.5443 21.5504 30.5438 21.7691C30.5468 21.9127 30.5082 22.1278 30.3561 22.5456ZM30.2956 20.5257H30.1745C29.4565 20.5257 29.0463 20.7194 28.7095 21.0771C28.2908 21.5199 27.8975 22.7172 27.905 23.3506C27.913 23.9966 28.3308 24.4444 29.2089 24.4444H29.3375C30.0574 24.4444 30.4677 24.2507 30.8044 23.893C31.2227 23.4492 31.608 22.2524 31.6005 21.6195C31.592 20.974 31.1742 20.5257 30.2956 20.5257ZM26.7702 21.9562C26.7047 22.1188 26.6326 22.1578 26.5381 22.1963C26.4745 22.2214 26.3399 22.2304 26.2104 22.2304H25.7085L25.9817 21.4428H26.5881C26.7697 21.4428 26.8438 21.5374 26.8463 21.645C26.8473 21.7135 26.8158 21.8391 26.7702 21.9562ZM26.6802 20.5728H25.0346L25.0015 20.6713L25.0681 20.7369C25.1381 20.8059 25.1356 20.888 25.0741 21.0641L23.9243 24.3838H24.975L25.4243 23.0659L25.7801 23.0664L26.1753 24.3838H27.231L26.7347 23.0354C27.0229 22.9889 27.1675 22.9063 27.3121 22.7777C27.5102 22.5966 27.6473 22.3424 27.7609 21.9682C27.927 21.4253 27.8264 21.1151 27.7199 20.956C27.5733 20.7369 27.2646 20.5728 26.6802 20.5728ZM37.7036 22.8553L37.9948 22.0583H36.6554L36.863 21.4498H38.314L38.6327 20.5703H35.8934L35.8553 20.6823L35.9209 20.7469C35.9914 20.8154 35.9884 20.897 35.9274 21.0741L34.7866 24.3823H37.3463L37.6556 23.4967H36.1615L36.3817 22.8553H37.7036ZM40.7771 21.9562C40.7116 22.1188 40.6386 22.1578 40.5455 22.1963C40.4804 22.2214 40.3479 22.2304 40.2183 22.2304H39.7169L39.9876 21.4428H40.595C40.7756 21.4428 40.8507 21.5374 40.8522 21.645C40.8542 21.7135 40.8217 21.8391 40.7771 21.9562ZM40.6856 20.5728H39.0405L39.0085 20.6713L39.0745 20.7369C39.1451 20.8059 39.1415 20.888 39.081 21.0641L37.9302 24.3838H38.9824L39.4312 23.0664H39.7865L40.1822 24.3838H41.237L40.7416 23.0354C41.0293 22.9889 41.1739 22.9063 41.318 22.7777C41.5166 22.5966 41.6542 22.3424 41.7678 21.9682C41.9339 21.4253 41.8334 21.1151 41.7273 20.956C41.5807 20.7369 41.2715 20.5728 40.6856 20.5728ZM42.843 25.6872C39.9566 27.1787 36.1065 28.0002 32.0002 28.0002C27.8945 28.0002 24.0449 27.1787 21.158 25.6872C18.3816 24.2522 16.8516 22.3835 16.8516 20.4262C16.8516 18.4673 18.3816 16.5986 21.158 15.1646C24.0449 13.6736 27.8945 12.8511 32.0002 12.8511C36.1065 12.8511 39.9566 13.6736 42.843 15.1646C45.6199 16.5986 47.1484 18.4673 47.1484 20.4262C47.1484 22.3835 45.6199 24.2522 42.843 25.6872ZM43.2338 14.4081C40.2278 12.8551 36.2386 12 32.0002 12C27.7619 12 23.7722 12.8551 20.7672 14.4081C18.987 15.3282 16 17.3336 16 20.4262C16 23.5172 18.987 25.5231 20.7672 26.4432C23.7717 27.9962 27.7609 28.8513 32.0002 28.8513C36.2391 28.8513 40.2283 27.9962 43.2338 26.4432C45.014 25.5231 48 23.5177 48 20.4262C48 17.3331 45.014 15.3282 43.2338 14.4081ZM42.4388 24.9052C39.3332 26.5092 35.4701 27.1192 32.0002 27.1192C28.5299 27.1192 24.6678 26.5092 21.5612 24.9052C19.9176 24.0551 17.7327 22.489 17.7327 20.4262C17.7327 18.3613 19.9171 16.7967 21.5612 15.9471C24.6678 14.3431 28.5299 13.7332 32.0002 13.7332C35.4701 13.7332 39.3332 14.3421 42.4388 15.9471C44.0839 16.7967 46.2678 18.3613 46.2678 20.4262C46.2678 22.49 44.0834 24.0551 42.4388 24.9052ZM42.5999 15.6344C39.4468 14.0038 35.5206 13.3799 32.0002 13.3799C28.4794 13.3799 24.5542 14.0043 21.3996 15.6344C19.6284 16.5491 17.3804 18.2002 17.3804 20.4262C17.3804 22.6502 19.6284 24.3023 21.3996 25.2179C24.5542 26.847 28.4804 27.4714 32.0002 27.4714C35.5206 27.4714 39.4468 26.848 42.5999 25.2179C44.3721 24.3023 46.6201 22.6502 46.6201 20.4262C46.6201 18.2002 44.3726 16.5491 42.5999 15.6344ZM24.0469 21.0641L21.1715 22.0097L20.8202 22.9734H23.3559L23.6862 22.0653H21.9285L23.9238 21.3898L24.0469 21.0641ZM35.4886 16.8418H35.9054C36.1891 16.8418 36.3457 16.9368 36.3492 17.1565C36.3517 17.2981 36.3136 17.4922 36.1665 17.91C36.0365 18.2837 35.9324 18.5004 35.7848 18.659C35.6662 18.7841 35.5086 18.8396 35.1469 18.8396H34.7986L35.4886 16.8418ZM34.575 16.429L33.4372 19.7487H35.1158C35.8353 19.7487 36.2461 19.5891 36.5793 19.2319C36.9976 18.7896 37.3799 17.6388 37.3674 17.0054C37.3548 16.3589 36.9376 15.9381 36.0595 15.9381H34.5345L34.5024 16.0362L34.5685 16.1008C34.6385 16.1703 34.636 16.2524 34.575 16.429ZM40.9092 17.3046H38.3735L38.0433 18.2117H39.8005L37.8047 18.8891L37.6816 19.2138L40.557 18.2682L40.9092 17.3046ZM29.5761 19.7467H30.5318L31.3653 17.2815L31.8527 19.7467H32.8093L34.1132 15.9366L33.1135 15.9381L32.417 18.009L32.0193 15.9381H30.6719L30.6388 16.0362L30.7049 16.1008C30.7759 16.1703 30.7724 16.2524 30.7119 16.429L29.5761 19.7467ZM22.7245 19.7487L25.3248 19.7477L25.639 18.8396H24.1275L25.1261 15.9381H23.8223L23.7897 16.0362L23.8548 16.1008C23.9258 16.1703 23.9228 16.2524 23.8618 16.429L22.7245 19.7487ZM28.2567 16.9914H28.2908L28.3088 18.1421H27.6073L28.2567 16.9914ZM25.5944 19.7467H26.7007L27.18 18.9046H28.3253L28.3368 19.7467H29.3405L29.1238 15.9381H27.6213L27.5878 16.0362L27.6363 16.0847C27.7154 16.1623 27.6828 16.2739 27.3902 16.7382L25.5944 19.7467Z" fill="black"/>
</g>
<defs>
<clipPath id="clip0_601_50138">
<rect width="32" height="16.8513" fill="white" transform="translate(16 12)"/>
</clipPath>
</defs>
</svg>
