<svg width="239" height="48" viewBox="0 0 239 48" fill="none" xmlns="http://www.w3.org/2000/svg">
<path d="M17.6298 33.6675C16.8895 33.5532 16.4406 33.2807 16.2592 32.7759L16.1627 32.5073L16.0162 31.1496V29.7519L16.673 29.7417C17.2575 29.7326 17.3349 29.7385 17.3768 29.7954C17.4123 29.8436 17.4239 30.158 17.4239 31.0704C17.4239 32.2152 17.4281 32.2901 17.5009 32.4393C17.5432 32.5262 17.6361 32.6413 17.7073 32.6953C17.9827 32.9038 17.9575 32.9014 19.8157 32.9012H21.5343L21.678 32.6231C21.759 32.4665 21.927 32.2322 22.0628 32.0866C22.1953 31.9445 22.3038 31.8187 22.3038 31.807C22.3038 31.7953 22.1138 31.7811 21.8815 31.7753L21.4592 31.7647L21.4678 31.6217C21.4879 31.289 21.9289 30.655 22.3796 30.3106C22.504 30.2156 22.7278 30.0818 22.877 30.0134C23.3997 29.7736 23.4479 29.7706 26.728 29.7717L29.6799 29.7728L30.5722 30.424C31.0629 30.7822 31.4825 31.0752 31.5046 31.0752C31.5547 31.0752 32.9152 30.239 33.3206 29.9591L33.6203 29.7521L34.7654 29.7553C35.935 29.7587 35.9072 29.7577 35.9577 29.7846C36.0312 29.8236 36.005 29.8461 36.005 31.0964C36.005 32.1691 36.0146 32.4049 36.0628 32.5193C36.1376 32.6972 36.2149 32.7795 36.3992 32.8775C36.5436 32.9544 36.6021 32.9579 37.935 32.9693C38.6971 32.9758 39.3599 32.9713 39.4079 32.9593L39.4952 32.9376L39.505 31.3821L39.5148 29.8266H40.2093H40.9037L40.9225 31.3734L40.9412 32.9202L43.4603 32.9297L45.9793 32.9393L46.0831 32.8583C46.1401 32.8137 46.2104 32.7213 46.2391 32.653C46.2838 32.5469 46.2838 32.5107 46.2391 32.4046C46.2104 32.3363 46.1403 32.2441 46.0834 32.1996L45.9799 32.1188H43.681C41.684 32.1188 41.376 32.1115 41.3354 32.063C41.2754 31.9911 41.3374 31.5449 41.4485 31.2502C41.5344 31.0223 41.7471 30.6796 41.9333 30.469C42.1161 30.2622 42.5623 29.9821 42.8576 29.8887C43.1161 29.8068 43.1378 29.8062 45.2769 29.8164L47.4353 29.8266L47.4462 30.1589C47.4541 30.3996 47.4438 30.4996 47.4087 30.5218C47.382 30.5386 46.5191 30.5525 45.4912 30.5529C43.7158 30.5535 43.615 30.557 43.4794 30.6258C43.2358 30.7491 42.9494 31.1475 43.0035 31.2876C43.0185 31.3266 43.3815 31.3361 44.8421 31.3361C46.0467 31.3361 46.7293 31.3503 46.861 31.378C47.1552 31.44 47.3846 31.5695 47.5774 31.7824C47.8 32.0282 47.8795 32.2622 47.8605 32.6155C47.8296 33.1878 47.4529 33.585 46.8486 33.6824C46.5067 33.7375 36.1688 33.7358 35.8106 33.6807C35.188 33.5847 34.8707 33.3996 34.6841 33.0233L34.5598 32.7729L34.5411 31.4892C34.5288 30.6526 34.5088 30.201 34.4834 30.1926C34.3935 30.163 32.2513 31.5273 32.2513 31.6142L34.9212 33.7683C34.9212 33.7902 34.4533 33.6842 33.8407 33.6842H32.84L31.9488 33.0506C31.4587 32.7021 31.0341 32.417 31.0053 32.417C30.9538 32.417 29.4592 33.317 29.0662 33.5847L28.8653 33.7215L23.398 33.7178C19.2344 33.715 17.8589 33.703 17.6298 33.6676V33.6675ZM28.3177 33.0853C28.4476 33.0019 28.9254 32.7034 29.3796 32.4218C29.8338 32.1403 30.2055 31.8906 30.2055 31.8671C30.2055 31.828 28.3017 30.3561 27.986 30.0774C27.8717 29.9765 27.7321 30.2608 27.7982 30.3709L27.6409 30.5479L25.9074 30.5533C24.0164 30.5591 23.9709 30.5737 23.8241 30.6524C23.6028 30.7709 23.1019 31.2175 23.1019 31.3549C23.1019 31.4176 23.505 31.3946 25.4312 31.3951C26.5512 31.3958 27.5027 31.3929 27.5027 31.3929C27.496 31.4262 27.5003 31.7997 27.5003 31.7997L27.5027 32.0628L25.776 32.0814C23.9141 32.1015 24.0067 32.0911 23.7228 32.312C23.5686 32.432 23.2401 32.8761 23.2969 32.9325L27.9532 32.92L27.9647 33.2914C27.9732 33.5625 28.0159 33.2789 28.3176 33.0853L28.3177 33.0853Z" fill="url(#paint0_linear_601_50147)"/>
<path d="M16.0295 29.726V30.079H17.5029V29.726H16.0295ZM39.3044 29.747V30.1011H40.9187V29.747H39.3044ZM33.6275 29.7482L33.4959 29.8402H34.0223C34.196 29.836 34.3153 29.8455 34.4032 29.8612L34.402 30.1069H35.9499V29.7493L35.2697 29.7587C34.6395 29.7541 34.1934 29.751 33.6275 29.7482H33.6275ZM27.3635 29.7691C27.0501 29.7698 26.6872 29.7712 26.2687 29.7727C23.6785 29.782 23.4691 29.7867 23.3837 29.8472C23.3837 29.8737 23.265 29.9227 23.5607 29.902C23.6045 29.8989 23.6242 29.9067 23.6877 29.8996C24.0989 29.9062 24.7588 29.8926 26.1872 29.8926C27.7907 29.8926 29.1226 29.8998 29.1223 29.8845C29.1213 29.8349 29.2093 29.8059 29.0128 29.789C28.7984 29.7705 28.3037 29.7672 27.3635 29.7692V29.7691ZM46.0517 29.7994C45.8069 29.8001 45.5235 29.8015 45.1967 29.803C43.174 29.8122 43.0097 29.8182 42.943 29.8787C42.943 29.9051 42.8507 29.953 43.0816 29.9322C43.1158 29.9292 43.1311 29.9382 43.1806 29.9311C43.5018 29.9376 44.0172 29.9241 45.1327 29.9241C46.3849 29.9241 47.4251 29.9313 47.4249 29.9159C47.4241 29.8664 47.4922 29.8373 47.3387 29.8204C47.1713 29.802 46.7859 29.7975 46.0517 29.7995V29.7994Z" fill="url(#paint1_linear_601_50147)"/>
<path d="M42.589 31.3647C42.4949 31.2122 42.815 30.7832 43.1713 30.5854C43.5744 30.3615 43.7328 30.3462 45.6567 30.3457L47.4545 30.367L47.4824 30.6592C47.3886 30.6638 47.0326 30.665 45.6202 30.6665C43.5456 30.6686 43.5225 30.6709 43.237 30.9059C43.1454 30.9813 43.0511 31.0978 43.0231 31.1702C43.0038 31.22 43.0046 31.262 42.9721 31.2928C42.8891 31.3353 42.7917 31.3745 42.7151 31.3947C42.6805 31.4037 42.6452 31.428 42.6242 31.4172C42.6096 31.4098 42.6185 31.4097 42.6054 31.3919L42.589 31.3647Z" fill="url(#paint2_linear_601_50147)"/>
<path d="M22.5809 31.6344C22.5802 31.5946 22.6082 31.4804 22.6462 31.3672C22.7439 31.0757 22.9894 30.7954 23.312 30.6068C23.6999 30.38 23.8058 30.3704 25.9297 30.3683C27.1064 30.3671 27.7933 30.3683 27.7933 30.3683C27.7933 30.3683 27.7933 30.4637 27.7933 30.5365C27.7933 30.6022 27.7933 30.7133 27.7933 30.7133C27.702 30.7022 27.0598 30.7157 25.9457 30.7157C24 30.7157 23.9074 30.7097 23.6308 30.8794C23.5626 30.9212 23.4391 31.0289 23.3636 31.1151C23.263 31.23 23.1638 31.333 23.114 31.4488C23.0241 31.5287 22.9087 31.5309 22.823 31.5704C22.6487 31.6507 22.5753 31.6663 22.5753 31.6663L22.5809 31.6344Z" fill="url(#paint3_linear_601_50147)"/>
<path d="M46.1866 32.6962C46.2392 32.4866 45.975 32.2088 45.6781 32.1418C45.6049 32.1253 44.6407 32.1206 43.5355 32.1313C42.4302 32.142 41.4664 32.1264 41.3907 32.1254C41.3113 32.1243 41.2801 32.1311 41.2651 32.1135C41.2356 32.0791 41.3054 31.9954 41.4432 31.89L41.6016 31.7689L43.5461 31.7709C45.6944 31.7731 46.0003 31.7899 46.1763 31.9152C46.4762 32.1287 46.5976 32.4755 46.4418 32.6729C46.3395 32.8025 46.0541 32.9813 45.9904 32.9419C46.1489 32.8122 46.1397 32.8179 46.1866 32.6962Z" fill="url(#paint4_linear_601_50147)"/>
<path d="M39.4677 33.0201C39.4065 32.9854 39.3158 32.988 39.3025 32.9533C39.2892 32.9186 39.2849 32.1568 39.2849 31.3174C39.2849 30.2455 39.2823 29.9102 39.2728 29.7371C39.3254 29.7344 39.4497 29.7916 39.5554 29.8973L39.726 30.1056L39.7148 32.9495C39.7144 33.0082 39.7211 33.0681 39.7133 33.1269C39.6062 33.0805 39.5413 33.0522 39.4677 33.0201H39.4677Z" fill="url(#paint5_linear_601_50147)"/>
<path d="M22.7454 33.099C22.7454 33.099 22.7253 32.8921 22.8017 32.6882C22.8833 32.4705 23.1875 32.159 23.4253 32.0494C23.7919 31.8806 23.8716 31.8745 25.6876 31.874C26.9471 31.8734 27.4964 31.8835 27.4964 31.8835L27.5087 32.2161C27.5087 32.2161 26.8335 32.2173 25.776 32.2174C24.76 32.2174 24.0813 32.2312 23.9954 32.2532C23.7244 32.3225 23.4356 32.603 23.3277 32.9015C23.31 32.9506 22.81 33.0941 22.769 33.112L22.7454 33.099Z" fill="url(#paint6_linear_601_50147)"/>
<path d="M35.9864 33.7387C35.6763 33.699 35.1459 33.5178 34.957 33.387C34.818 33.2908 34.6366 33.0847 34.5535 32.9286C34.448 32.7304 34.405 32.2722 34.4037 31.3331C34.403 30.8167 34.4069 30.3759 34.3894 30.3651C34.3719 30.3543 33.9527 30.5956 33.4809 30.8897C32.598 31.4402 32.3447 31.6098 32.1733 31.6887L31.4833 31.6921C31.5726 31.6087 34.186 29.9469 34.3238 29.8894C34.4184 29.8498 34.3566 29.8396 34.4018 29.8655C34.4685 29.9037 34.6887 29.9858 34.7153 30.0479C34.7625 30.1581 34.7258 30.3844 34.7397 31.1618C34.7642 32.5273 34.7792 32.6019 35.0912 32.9066C35.2222 33.0344 35.3749 33.1359 35.5444 33.2075C35.5444 33.2075 35.7262 33.2622 35.8189 33.2827C35.8842 33.2971 36.0167 33.316 36.0167 33.316L41.164 33.3255L46.4414 33.3288C46.4414 33.3288 46.5658 33.3091 46.6251 33.2887C46.6704 33.2731 46.7115 33.2471 46.7547 33.2264C47.435 32.8991 47.6712 32.4557 47.4266 31.9649C47.3742 31.8597 47.2641 31.7129 47.1819 31.6387C47.0998 31.5645 46.9779 31.4483 46.9844 31.4293C47.0021 31.3773 47.4138 31.5941 47.5368 31.7169C47.8442 32.0238 47.9744 32.6405 47.7732 33.0517C47.5665 33.4742 47.1479 33.694 46.5602 33.7465C46.084 33.7891 36.3236 33.7818 35.9864 33.7386V33.7387Z" fill="url(#paint7_linear_601_50147)"/>
<path d="M17.6116 33.7258C17.2142 33.6692 17.0323 33.6068 16.7634 33.4348C16.5037 33.2687 16.3068 33.0384 16.1677 32.7379C16.1431 32.6847 16.1146 32.6329 16.0951 32.5776C16.0785 32.5304 16.0664 32.4816 16.0577 32.4323C16.0405 32.3347 16.0344 32.2352 16.0289 32.1362C16.0119 31.8277 16.0167 31.2093 16.0167 31.2093L16.0034 29.8209C16.003 29.7795 16 29.7212 16 29.7212C16 29.7212 16.1513 29.7983 16.2598 29.8917L16.4604 30.0646L16.4616 31.0294C16.463 32.103 16.483 32.2274 16.6495 32.5808C16.7497 32.7933 16.9686 32.9823 17.3219 33.1613C17.7373 33.3719 17.7278 33.3715 22.9599 33.3715H27.7579L27.9988 33.1945C28.1313 33.0971 28.645 32.7659 29.1404 32.4584C29.6358 32.1509 30.0413 31.8815 30.0414 31.8597C30.0419 31.7804 29.8155 31.6087 28.1313 30.411C27.8068 30.1802 27.557 30.0136 27.4307 29.8984C27.5513 29.9014 27.8271 29.9053 27.9999 29.9055L28.2712 29.9056L29.0912 30.4896C29.5422 30.8107 30.0789 31.1933 30.2839 31.3397C30.4888 31.4862 30.7697 31.7022 30.7428 31.7195L29.7062 32.3847C29.3908 32.5871 29.0446 32.8002 28.9421 32.8664C28.8396 32.9326 28.6342 33.0651 28.4856 33.1608C28.3369 33.2565 28.2054 33.3748 28.2054 33.3951C28.2353 33.4133 28.3441 33.4086 28.5228 33.4085L28.8303 33.4078L29.8827 32.7213C30.4616 32.3437 30.9683 32.0243 31.0088 32.0114C31.1112 31.9789 31.1445 31.9994 32.1288 32.7C32.6106 33.0429 33.0571 33.3828 33.0981 33.4036C33.1391 33.4244 33.3551 33.4086 33.6011 33.4202C33.7794 33.4286 33.8758 33.4175 33.9956 33.4377C34.6333 33.6705 34.0714 33.4676 34.9068 33.774L32.742 33.7762C32.6272 33.7161 31.5654 32.9508 31.2731 32.7134C31.139 32.6045 31.0057 32.5152 30.9768 32.5147C30.9479 32.5141 30.7718 32.6185 30.5854 32.7462C30.3991 32.8739 29.9794 33.159 29.6528 33.3798L29.0589 33.7812L23.503 33.7772C19.2015 33.7742 17.8713 33.7625 17.6116 33.7255V33.7258Z" fill="url(#paint8_linear_601_50147)"/>
<path d="M36.1144 32.8856C35.8743 32.8209 35.7078 32.6987 35.6397 32.6062C35.5956 32.5463 35.5934 32.5584 35.5823 32.5248C35.5718 32.4933 35.5471 32.439 35.5422 32.4063C35.4921 32.0733 35.4959 31.2842 35.4959 31.2842V30.1363L35.704 29.951C35.8184 29.8491 35.9186 29.7591 35.9267 29.7511C35.9348 29.743 35.9481 29.7483 35.9793 29.7742C36.0283 29.8148 36.0079 30.0333 36.008 31.1774C36.008 32.6887 36.1285 32.7277 36.4493 32.9157C36.5885 32.9524 36.3081 32.9413 36.1144 32.8856ZM17.4854 32.8075C17.2803 32.7578 17.1038 32.5818 17.0674 32.4803L17.0203 32.3489C16.9894 31.5909 16.968 30.8452 16.968 30.065L17.1156 29.9176C17.2809 29.7525 17.4894 29.7219 17.4894 29.7219C17.5032 29.7505 17.499 30.3705 17.5044 31.0966C17.5162 32.6774 17.4932 32.5612 17.8322 32.749C17.9284 32.8023 18.1162 32.8536 18.1055 32.8712C18.0827 32.9087 17.6487 32.8471 17.4854 32.8075ZM40.4157 31.5958V30.0902L40.5467 29.9752C40.6896 29.8498 40.8969 29.7312 40.9247 29.759C40.948 29.7823 40.9539 32.8639 40.9304 32.9251C40.9203 32.9513 40.8172 33.0017 40.7175 33.0371C40.5846 33.0842 40.431 33.1263 40.4338 33.1113C40.4137 33.1273 40.4157 32.6098 40.4157 31.5958H40.4157Z" fill="url(#paint9_linear_601_50147)"/>
<path d="M41.2527 32.117C41.2539 31.9259 41.3699 31.3473 41.5299 31.0198C41.7323 30.6056 42.0931 30.2077 42.424 30.0339C42.5509 29.9673 42.6745 29.9127 42.6987 29.9125C42.8333 29.8722 43.0409 29.8352 43.2184 29.8205C43.0869 29.8794 42.9767 29.9136 42.8252 30.0021C42.6195 30.1146 42.4362 30.2136 42.1522 30.5609C42.0509 30.6848 41.9749 30.7911 41.8989 31.0042C41.7974 31.2889 41.7696 31.5806 41.7411 31.7642C41.6425 31.8179 41.6495 31.8429 41.2527 32.117ZM21.3477 31.7498C21.3477 31.616 21.5259 31.2029 21.7368 30.8479C21.9805 30.438 22.2036 30.2399 22.6167 30.0665C22.9213 29.9386 23.4739 29.8091 23.6161 29.813C23.7019 29.8154 23.3798 29.924 23.1989 29.9911C22.8812 30.1092 22.6926 30.251 22.4163 30.5293C22.2451 30.7016 22.074 30.9231 21.8289 31.5353L21.7524 31.7764L21.5334 31.773C21.377 31.7707 21.3743 31.7659 21.3477 31.7498V31.7498ZM28.8922 29.7721L29.6777 29.7711C30.7243 30.5438 31.3148 30.9442 31.502 31.0789L31.0537 31.3562C30.051 30.6363 29.7635 30.3989 28.8922 29.772V29.7721Z" fill="url(#paint10_linear_601_50147)"/>
<path d="M32.2065 32.2124L31.4993 31.6872H31.8617C32.0611 31.6872 32.2438 31.6073 32.2731 31.633C32.2731 31.633 32.8586 32.1091 34.918 33.7582C33.5901 33.4175 33.2077 32.9561 32.2065 32.2124Z" fill="url(#paint11_linear_601_50147)"/>
<path d="M21.5905 32.9372C21.5284 32.8936 21.5312 32.876 21.6375 32.639C21.7658 32.353 22.2265 31.841 22.4133 31.7158C22.4854 31.6674 22.5976 31.5944 22.7001 31.5565C22.8026 31.5187 22.8996 31.4723 22.9866 31.4386C23.0389 31.4184 23.143 31.3905 23.3327 31.3922L23.6319 31.395L23.4456 31.4614C23.0929 31.5871 22.8493 31.7359 22.5938 31.9817C22.3013 32.2631 22.1247 32.5199 21.9867 32.8647C21.9338 32.9967 21.8892 33.1019 21.876 33.1101C21.7667 33.1076 21.6837 33.0014 21.5905 32.9372V32.9372Z" fill="url(#paint12_linear_601_50147)"/>
<path d="M30.5162 27.7321C29.1677 27.5906 27.9058 27.2301 26.666 26.6321C25.6327 26.1337 24.9762 25.6739 24.2756 24.9579C23.4899 24.155 23.1067 23.5678 22.7475 22.6164C22.3181 21.4792 22.4673 19.958 23.138 18.6326C23.7029 17.5165 24.4116 16.7344 25.5237 15.9998C25.9373 15.7267 26.9625 15.2008 27.2319 15.1236C27.422 15.0691 27.1378 15.1757 26.8129 15.3636C26.6125 15.4747 26.4887 15.5432 26.3038 15.6529C25.8743 15.9147 25.7629 16.0074 25.3174 16.3666C24.1 17.348 23.344 18.5122 23.0728 19.8231C22.9841 20.2515 22.9841 21.2116 23.0728 21.64C23.3944 23.1943 24.3289 24.4678 25.9227 25.5237C26.8395 26.1311 27.9023 26.5784 29.1411 26.8782C30.1883 27.1316 30.5832 27.1723 31.997 27.1723C33.0275 27.1723 33.3618 27.1576 33.774 27.0944C35.0906 26.8923 36.4938 26.4369 37.4338 25.9067C38.2029 25.4729 38.4585 25.3218 38.5279 25.2599C38.5675 25.2246 38.745 25.1306 38.9224 25.0509C39.1348 24.9555 39.2858 24.8554 39.3653 24.7573C39.4835 24.6113 39.4915 24.6085 39.7925 24.6085C39.9728 24.6085 40.2491 24.3477 40.2491 24.3727C39.8975 24.8744 39.3161 25.4324 38.9861 25.6863C38.4959 26.0645 38.1109 26.323 37.4126 26.6552C36.2381 27.2139 35.2765 27.5402 33.7952 27.7182C32.7095 27.8488 31.5542 27.8412 30.5162 27.7321Z" fill="url(#paint13_linear_601_50147)"/>
<path d="M30.4222 27.066C29.6433 26.9831 28.5008 26.7351 27.8974 26.5179C27.4703 26.3643 26.5662 25.9691 26.3318 25.8337C26.0719 25.6835 25.4392 25.2129 25.0705 24.8955C24.5922 24.4839 23.8256 23.5176 23.892 23.4102C23.911 23.3794 24.2543 23.2516 24.3172 23.2516C24.3286 23.2516 24.392 23.3462 24.4673 23.4802C24.8097 24.0895 25.3193 24.6364 25.8868 25.0991C26.6461 25.7182 27.1936 25.9919 28.3029 26.307C30.5907 26.9568 33.2526 26.9266 35.3816 26.2268C36.213 25.9535 37.0544 25.4969 37.3708 25.1472C37.4566 25.0524 38.1373 24.8124 38.1851 24.8602C38.2452 24.9203 38.0853 25.124 37.7553 25.4075C37.1674 25.9126 35.7049 26.5426 34.5339 26.7954C33.4803 27.0227 33.1088 27.0607 31.821 27.0726C31.145 27.0789 30.5155 27.0759 30.4222 27.066Z" fill="url(#paint14_linear_601_50147)"/>
<path d="M26.28 25.6237C25.9371 25.5147 25.7481 25.4068 25.3263 25.0794C24.3992 24.3596 23.729 23.4483 23.4331 22.5052C23.2584 21.948 23.2186 21.5831 23.2447 20.7761C23.2648 20.1569 23.2852 19.9894 23.38 19.6676C23.616 18.8656 23.9434 18.2557 24.4907 17.5985C25.7309 16.109 28.0476 14.9853 30.4059 14.7294C31.0588 14.6585 32.2789 14.6524 32.4667 14.719C32.6596 14.7875 32.8614 15.0109 32.9263 15.2277C32.9692 15.3711 32.9636 15.4133 32.88 15.5774C32.8277 15.6801 32.7305 15.8312 32.6639 15.9132C32.5974 15.9951 32.4239 16.2196 32.2784 16.4119C32.1329 16.6043 31.7932 17.0334 31.5234 17.3656C31.2537 17.6979 30.8144 18.2749 30.5472 18.6479C30.0527 19.3383 28.9701 20.9763 28.754 21.3607C28.6885 21.4773 28.5719 21.6606 28.4949 21.7681C28.4179 21.8756 28.2859 22.1092 28.2015 22.2872C28.0602 22.5852 28.0493 22.6355 28.0637 22.9221C28.0834 23.3121 28.205 23.5149 28.5541 23.7401C29.0795 24.079 28.602 24.0523 34.1466 24.0523H39.0924L39.5211 23.5903C39.8523 23.2333 39.9829 23.0564 40.0954 22.8125C40.2599 22.4559 40.4299 21.8993 40.5033 21.4767C40.5657 21.1182 40.5268 20.1577 40.4401 19.9124C40.2768 19.2485 39.9879 18.5996 39.6315 18.0333C38.9525 16.9727 37.9851 16.1305 36.5867 15.3825C36.3385 15.2497 35.7045 14.9438 35.7143 14.9339C35.7447 14.9034 36.6888 15.2978 37.1544 15.5298C38.3045 16.1027 39.2933 16.9229 39.9501 17.8486C40.4369 18.5347 40.8407 19.3155 41.0398 20.1024C41.1506 20.5402 41.1642 20.9213 41.1629 21.3982C41.1602 22.3501 40.9616 22.9752 40.496 23.8832C40.1694 24.5201 40.0947 24.6017 39.6 24.8621L39.0518 25.0605L34.172 25.0908C29.1914 25.1217 29.1775 25.0905 28.6921 24.9969C27.6534 24.7964 27.2278 24.549 26.9565 23.9875C26.8219 23.7089 26.7918 23.1681 26.8893 22.7791C27.1124 21.8889 28.6431 19.5173 30.7845 16.744C31.1922 16.2158 31.5452 15.7475 31.5689 15.7032C31.6817 15.4921 31.5688 15.3523 31.247 15.3046C31.0226 15.2714 29.8783 15.4495 29.383 15.5948C28.1723 15.9499 27.7052 16.1307 27.1007 16.4784C26.191 17.0016 25.4449 17.6441 24.9271 18.3505C24.3748 19.1039 24.1552 19.5778 23.9464 20.4671C23.8229 20.9929 23.8515 21.8139 24.0137 22.3977C24.3517 23.6145 25.0693 24.5603 26.3118 25.4267C26.5038 25.5606 26.6609 25.6781 26.6609 25.6878C26.6609 25.7222 26.5098 25.6968 26.28 25.6237Z" fill="url(#paint15_linear_601_50147)"/>
<path d="M26.3043 25.6323C25.9614 25.5233 25.7724 25.4154 25.3506 25.0879C24.4235 24.3682 23.7533 23.4569 23.4574 22.5137C23.2826 21.9566 23.2429 21.5917 23.269 20.7847C23.2891 20.1655 23.3095 19.998 23.4043 19.6761C23.6403 18.8742 23.9677 18.2643 24.515 17.607C25.7552 16.1176 28.0719 14.9939 30.4302 14.738C31.0831 14.6671 32.3032 14.661 32.491 14.7276C32.6839 14.7961 32.8857 15.0195 32.9506 15.2363C32.9935 15.3797 32.9879 15.4219 32.9043 15.586C32.852 15.6887 32.7548 15.8398 32.6882 15.9217C32.6217 16.0037 32.4482 16.2282 32.3027 16.4205C32.1572 16.6128 31.8175 17.042 31.5477 17.3742C31.2779 17.7065 30.8387 18.2835 30.5715 18.6565C30.077 19.3469 28.9944 20.9849 28.7783 21.3693C28.7128 21.4858 28.5962 21.6692 28.5192 21.7767C28.4422 21.8842 28.3102 22.1178 28.2258 22.2958C28.0845 22.5938 28.0736 22.6441 28.088 22.9307C28.1077 23.3207 28.2293 23.5235 28.5784 23.7487C29.1038 24.0876 28.6263 24.0609 34.1709 24.0609H39.1167L39.5454 23.5988C39.8766 23.2419 40.0072 23.065 40.1197 22.821C40.2842 22.4645 40.4542 21.9079 40.5276 21.4853C40.59 21.1268 40.5511 20.1663 40.4643 19.921C40.3011 19.2571 39.9468 18.6663 39.5905 18.1C38.9114 17.0395 38.0093 16.3479 36.611 15.5999C36.3628 15.4671 35.1345 14.8078 35.7386 14.9425C35.769 14.912 36.7131 15.3064 37.1787 15.5384C38.3288 16.1113 39.3176 16.9315 39.9744 17.8572C40.4612 18.5433 40.865 19.324 41.0641 20.1109C41.1749 20.5488 41.1885 20.9299 41.1872 21.4068C41.1845 22.3587 40.9859 22.9838 40.5203 23.8918C40.1937 24.5287 40.119 24.6103 39.6243 24.8707L39.0761 25.0691L34.1963 25.0994C29.2157 25.1303 29.2018 25.0991 28.7164 25.0055C27.6776 24.805 27.2521 24.5575 26.9808 23.9961C26.8462 23.7175 26.8161 23.1766 26.9136 22.7877C27.1367 21.8975 28.6674 19.5259 30.8088 16.7525C31.2165 16.2244 31.5695 15.7561 31.5932 15.7118C31.706 15.5007 31.5931 15.3609 31.2713 15.3132C31.0469 15.28 29.9026 15.4581 29.4073 15.6034C28.1966 15.9585 27.7295 16.1393 27.125 16.4869C26.2153 17.0101 25.4692 17.6527 24.9514 18.3591C24.3991 19.1125 24.1795 19.5864 23.9707 20.4757C23.8472 21.0015 23.8758 21.8225 24.038 22.4063C24.376 23.6231 25.0936 24.5689 26.3361 25.4353C26.5281 25.5691 26.6852 25.6866 26.6852 25.6964C26.6852 25.7308 26.5341 25.7053 26.3043 25.6323Z" fill="url(#paint16_linear_601_50147)"/>
<path d="M26.3043 25.6323C25.9614 25.5233 25.7724 25.4154 25.3506 25.0879C24.4235 24.3682 23.7533 23.4569 23.4574 22.5137C23.2826 21.9566 23.2429 21.5917 23.269 20.7847C23.2891 20.1655 23.3095 19.998 23.4043 19.6761C23.6403 18.8742 23.9677 18.2643 24.515 17.607C25.7552 16.1176 28.0719 14.9939 30.4302 14.738C31.0831 14.6671 32.3032 14.661 32.491 14.7276C32.6839 14.7961 32.8857 15.0195 32.9506 15.2363C32.9935 15.3797 32.9879 15.4219 32.9043 15.586C32.852 15.6887 32.7548 15.8398 32.6882 15.9217C32.6217 16.0037 32.4482 16.2282 32.3027 16.4205C32.1572 16.6128 31.8175 17.042 31.5477 17.3742C31.2779 17.7065 30.8387 18.2835 30.5715 18.6565C30.077 19.3469 28.9944 20.9849 28.7783 21.3693C28.7128 21.4858 28.5962 21.6692 28.5192 21.7767C28.4422 21.8842 28.3102 22.1178 28.2258 22.2958C28.0845 22.5938 28.0736 22.6441 28.088 22.9307C28.1077 23.3207 28.2293 23.5235 28.5784 23.7487C29.1038 24.0876 28.6263 24.0609 34.1709 24.0609H39.1167L39.5454 23.5988C39.8766 23.2419 40.0072 23.065 40.1197 22.821C40.2842 22.4645 40.4542 21.9079 40.5276 21.4853C40.59 21.1268 40.5511 20.1663 40.4643 19.921C40.3011 19.2571 40.0122 18.6082 39.6558 18.0418C38.9768 16.9813 38.0093 16.1391 36.611 15.3911C36.3628 15.2583 35.7288 14.9524 35.7386 14.9425C35.769 14.912 36.7131 15.3064 37.1787 15.5384C38.3288 16.1113 39.3176 16.9315 39.9744 17.8572C40.4612 18.5433 40.865 19.324 41.0641 20.1109C41.1749 20.5488 41.1885 20.9299 41.1872 21.4068C41.1845 22.3587 40.9859 22.9838 40.5203 23.8918C40.1937 24.5287 40.119 24.6103 39.6243 24.8707L39.0761 25.0691L34.1963 25.0994C29.2157 25.1303 29.2018 25.0991 28.7164 25.0055C27.6776 24.805 27.2521 24.5575 26.9808 23.9961C26.8462 23.7175 26.8161 23.1766 26.9136 22.7877C27.1367 21.8975 28.6674 19.5259 30.8088 16.7525C31.2165 16.2244 31.5695 15.7561 31.5932 15.7118C31.706 15.5007 31.5931 15.3609 31.2713 15.3132C31.0469 15.28 29.9026 15.4581 29.4073 15.6034C28.1966 15.9585 27.7295 16.1393 27.125 16.4869C26.2153 17.0101 25.4692 17.6527 24.9514 18.3591C24.3991 19.1125 24.1795 19.5864 23.9707 20.4757C23.8472 21.0015 23.8758 21.8225 24.038 22.4063C24.376 23.6231 25.0936 24.5689 26.3361 25.4353C26.5281 25.5691 26.6852 25.6866 26.6852 25.6964C26.6852 25.7308 26.5341 25.7053 26.3043 25.6323Z" fill="url(#paint17_linear_601_50147)"/>
<path d="M23.2448 20.7761C23.2648 20.1569 23.2853 19.9894 23.38 19.6676C23.6161 18.8656 23.9434 18.2557 24.4907 17.5985C25.731 16.109 28.0476 14.9853 30.4059 14.7294C31.0589 14.6585 32.279 14.6524 32.4667 14.719C32.6597 14.7875 32.8615 15.0109 32.9264 15.2277C32.9692 15.3711 32.9636 15.4133 32.8801 15.5774C32.8278 15.6801 32.7305 15.8312 32.664 15.9132C32.5974 15.9951 32.424 16.2196 32.2785 16.4119C32.133 16.6043 31.7932 17.0334 31.5235 17.3656C31.2537 17.6979 30.8144 18.2749 30.5473 18.6479C30.0528 19.3383 28.9701 20.9763 28.7541 21.3607C28.6886 21.4773 28.572 21.6606 28.495 21.7681C28.418 21.8756 28.2859 22.1092 28.2015 22.2872C28.0603 22.5852 28.0493 22.6355 28.0638 22.9221C28.0835 23.3121 28.205 23.5149 28.5541 23.7401C29.0796 24.079 28.602 24.0523 34.1466 24.0523H39.0925L39.5212 23.5903C39.8523 23.2333 39.983 23.0564 40.0955 22.8125C40.2599 22.4559 40.4299 21.8993 40.5034 21.4767C40.5657 21.1182 40.5269 20.1577 40.4401 19.9124C40.2768 19.2485 39.9077 18.6799 39.5513 18.1136C38.8722 17.053 37.9048 16.2108 36.5064 15.4628C36.2582 15.33 35.7045 14.9438 35.7144 14.9339C35.7448 14.9034 36.6889 15.2978 37.1545 15.5298C38.3045 16.1027 39.2934 16.9229 39.9501 17.8486C40.4369 18.5347 40.8407 19.3155 41.0399 20.1024C41.1507 20.5402 41.1643 20.9213 41.1629 21.3982C41.1603 22.3501 40.9616 22.9752 40.496 23.8832C40.1694 24.5201 40.0948 24.6017 39.6 24.8621L39.0518 25.0605L34.1721 25.0908C29.1915 25.1217 29.1775 25.0905 28.6921 24.9969C27.6534 24.7964 27.2279 24.549 26.9565 23.9875C26.8219 23.7089 26.7919 23.1681 26.8894 22.7791C27.1125 21.8889 28.6431 19.5173 30.7845 16.744C31.1923 16.2158 31.5453 15.7475 31.5689 15.7032C31.6817 15.4921 31.5689 15.3523 31.2471 15.3046C31.0226 15.2714 29.8783 15.4495 29.383 15.5948C28.1724 15.9499 27.7052 16.1307 27.1008 16.4784C26.191 17.0016 25.445 17.6441 24.9271 18.3505C24.3748 19.1039 24.1552 19.5778 23.9464 20.4671C23.823 20.9929 23.8516 21.8139 24.0137 22.3977C23.3098 21.8096 23.2295 21.2882 23.2448 20.7761Z" fill="url(#paint18_linear_601_50147)"/>
<path d="M23.4331 22.5052C23.2584 21.948 23.2186 21.5831 23.2447 20.7761C23.2648 20.1569 23.2852 19.9894 23.38 19.6676C23.616 18.8656 23.9434 18.2557 24.4907 17.5985C25.7309 16.109 28.0476 14.9853 30.4059 14.7294C31.0588 14.6585 32.2789 14.6524 32.4667 14.719C32.6596 14.7875 32.8614 15.0109 32.9263 15.2277C32.9692 15.3711 32.9636 15.4133 32.88 15.5774C32.8277 15.6801 32.7305 15.8312 32.6639 15.9132C32.5974 15.9951 32.4239 16.2196 32.2784 16.4119C32.1329 16.6043 31.7932 17.0334 31.5234 17.3656C31.2537 17.6979 30.8144 18.2749 30.5472 18.6479C30.0527 19.3383 28.9701 20.9763 28.754 21.3607C28.6885 21.4773 28.5719 21.6606 28.4949 21.7681C28.4179 21.8756 28.2859 22.1092 28.2015 22.2872C28.0602 22.5852 28.0493 22.6355 28.0637 22.9221C28.0834 23.3121 28.205 23.5149 28.5541 23.7401C29.0795 24.079 28.602 24.0523 34.1466 24.0523H39.0924L39.5211 23.5903C39.8523 23.2333 39.9829 23.0564 40.0954 22.8125C40.2599 22.4559 40.4299 21.8993 40.5033 21.4767C40.5657 21.1182 40.5268 20.1577 40.4401 19.9124C40.2768 19.2485 39.9879 18.5996 39.6315 18.0333C38.9525 16.9727 37.9851 16.1305 36.5867 15.3825C36.3385 15.2497 35.7045 14.9438 35.7143 14.9339C35.7447 14.9034 36.6888 15.2978 37.1544 15.5298C38.3045 16.1027 39.2933 16.9229 39.9501 17.8486C40.4369 18.5347 40.8407 19.3155 41.0398 20.1024C41.1506 20.5402 41.1642 20.9213 41.1629 21.3982C41.1602 22.3501 40.9616 22.9752 40.496 23.8832C40.1694 24.5201 40.0947 24.6017 39.6 24.8621L39.0518 25.0605L34.172 25.0908C29.1914 25.1217 29.1775 25.0905 28.6921 24.9969C27.6533 24.7964 27.2278 24.549 26.9565 23.9875C26.8219 23.7089 26.7918 23.1681 26.8893 22.7791C27.1124 21.8889 28.6431 19.5173 30.7845 16.744C31.1922 16.2158 31.5452 15.7475 31.5689 15.7032C31.6817 15.4921 31.5688 15.3523 31.247 15.3046C31.0226 15.2714 29.8783 15.4495 29.383 15.5948C28.1723 15.9499 27.7052 16.1307 27.1007 16.4784C26.191 17.0016 25.4449 17.6441 24.9271 18.3505C24.3748 19.1039 24.1552 19.5778 23.9464 20.4671C23.8229 20.9929 23.8515 21.8139 24.0137 22.3977C23.8162 22.5134 24.3437 23.3179 23.4331 22.5052Z" fill="url(#paint19_linear_601_50147)"/>
<path d="M23.4796 22.4586C23.3049 21.9015 23.2651 21.5366 23.2912 20.7296C23.3113 20.1104 23.3317 19.9428 23.4265 19.621C23.6625 18.819 23.9899 18.2092 24.5372 17.5519C25.7774 16.0625 28.0941 14.9388 30.4524 14.6828C31.1053 14.612 32.3254 14.6058 32.5132 14.6725C32.7061 14.7409 32.908 14.9643 32.9728 15.1812C33.0157 15.3245 33.0101 15.3668 32.9265 15.5309C32.8742 15.6335 32.777 15.7846 32.7105 15.8666C32.6439 15.9486 32.4704 16.173 32.3249 16.3654C32.1794 16.5577 31.8397 16.9869 31.5699 17.3191C31.3002 17.6513 30.8609 18.2283 30.5937 18.6013C30.0993 19.2918 29.0166 20.9297 28.8006 21.3141C28.7351 21.4307 28.6185 21.614 28.5414 21.7215C28.4644 21.8291 28.3324 22.0627 28.248 22.2407C28.1067 22.5386 28.0958 22.589 28.1103 22.8756C28.1299 23.2656 28.2515 23.4684 28.6006 23.6935C29.126 24.0324 28.6485 24.0058 34.1931 24.0058H39.1389L39.5676 23.5437C39.8988 23.1868 40.0294 23.0098 40.142 22.7659C40.3064 22.4094 40.4764 21.8527 40.5498 21.4302C40.6122 21.0717 40.5733 20.1112 40.4866 19.8659C40.3233 19.202 39.9541 18.6333 39.5977 18.067C38.9187 17.0065 37.9513 16.1642 36.5529 15.4162C36.3047 15.2835 35.751 14.8972 35.7608 14.8873C35.7912 14.8569 36.7353 15.2513 37.2009 15.4832C38.351 16.0562 39.3398 16.8764 39.9966 17.802C40.4834 18.4881 40.8872 19.2689 41.0863 20.0558C41.1971 20.4936 41.2107 20.8747 41.2094 21.3517C41.2067 22.3036 41.0081 22.9287 40.5425 23.8366C40.2159 24.4736 40.1412 24.5551 39.6465 24.8155L39.0983 25.014L34.2185 25.0443C29.2379 25.0752 29.224 25.044 28.7386 24.9503C27.6999 24.7499 27.2743 24.5024 27.003 23.9409C26.8684 23.6624 26.8383 23.1215 26.9358 22.7325C27.1589 21.8424 28.6896 19.4708 30.831 16.6974C31.2387 16.1693 31.5917 15.701 31.6154 15.6567C31.7282 15.4455 31.6153 15.3057 31.2935 15.2581C31.0691 15.2248 29.9248 15.4029 29.4295 15.5482C28.2189 15.9033 27.7517 16.0842 27.1472 16.4318C26.2375 16.955 25.4914 17.5976 24.9736 18.304C24.4213 19.0574 24.2017 19.5313 23.9929 20.4205C23.8694 20.9463 23.8981 21.7674 24.0602 22.3512C23.8627 22.4668 23.9057 22.4202 23.4796 22.4586Z" fill="url(#paint20_linear_601_50147)"/>
<g opacity="0.8">
<path d="M30.489 14.7675C31.1033 14.6996 32.2512 14.6937 32.4278 14.7576C32.6094 14.8232 32.7992 15.0373 32.8603 15.2452C32.9006 15.3826 32.8953 15.4231 32.8167 15.5803C32.7675 15.6787 32.676 15.8235 32.6134 15.9021C32.5508 15.9807 32.3876 16.1958 32.2507 16.3801C31.2609 17.3762 31.4471 16.8101 31.5832 15.7009C31.6893 15.4985 31.5831 15.3645 31.2804 15.3189C30.8944 15.0134 31.2628 15.0644 30.489 14.7675Z" fill="url(#paint21_linear_601_50147)"/>
</g>
<path d="M31.2601 17.6246C31.0063 17.943 30.593 18.496 30.3417 18.8535C29.8765 19.5153 28.8579 21.0851 28.6546 21.4535C28.593 21.5652 28.4833 21.741 28.4109 21.844C28.3384 21.947 28.2142 22.1709 28.1348 22.3415C28.0019 22.6271 27.9916 22.6754 28.0052 22.95C28.0237 23.3238 28.1381 23.5182 28.4665 23.734C28.9609 24.0588 28.5116 24.0332 33.728 24.0332C34.4065 24.3351 39.6992 24.8375 33.7519 25.0286C29.0661 25.0582 29.053 25.0283 28.5963 24.9385C27.6191 24.7464 27.2188 24.5092 26.9635 23.9711C26.8369 23.7041 26.8086 23.1857 26.9003 22.8129C28.0568 18.7937 31.8113 16.7672 31.2601 17.6246Z" fill="url(#paint22_linear_601_50147)"/>
<path d="M30.1495 23.2448C29.9384 22.949 29.9326 22.602 30.1311 22.1506C30.4801 21.3569 32.4556 18.5939 33.9468 16.8138C34.8074 15.7866 35.1548 15.2977 35.1548 15.1137C35.1548 15.0327 35.103 14.9341 35.0015 14.8217L34.7304 14.5771L34.9726 14.652C35.1231 14.6986 35.5525 14.8418 35.6809 14.9259C35.8912 15.0637 35.8549 15.4477 35.6399 15.8221C35.5374 16.0005 35.1303 16.5269 34.7746 16.941C33.8028 18.0723 32.6539 19.6218 31.5847 21.2433C31.0167 22.1047 30.835 22.471 30.8965 22.6311C30.9282 22.714 30.3891 23.3421 30.2879 23.3402C30.2487 23.3395 30.1864 23.2965 30.1495 23.2448Z" fill="#505050"/>
<path d="M39.2125 23.5331C39.1211 23.432 38.895 22.9586 38.895 22.8809C38.895 22.8472 38.987 22.8471 39.0255 22.816C39.1417 22.722 39.2223 22.5317 39.3368 22.0806C39.6047 21.026 39.493 19.9811 39.0036 18.9638C38.401 17.711 37.1536 16.6418 35.7618 16.185C35.5653 16.1205 35.503 16.0973 35.4615 16.0501C35.3902 15.969 35.3994 15.9388 35.5164 15.6829C35.6034 15.4929 35.6232 15.3929 35.6881 15.3836C35.7389 15.3762 35.9858 15.475 36.3525 15.6539C38.1492 16.5305 39.328 17.6377 39.9213 19.0055C40.232 19.722 40.2995 20.0052 40.3267 20.7078C40.3604 21.5779 40.2223 22.2181 39.8386 22.9707C39.5288 23.5781 39.3635 23.7002 39.2125 23.5331Z" fill="url(#paint23_linear_601_50147)"/>
<path d="M30.6812 23.5817C30.4619 23.5543 30.2594 23.4126 30.2594 23.3282C30.2594 23.2442 30.8227 22.5948 30.8932 22.5948C30.9169 22.5948 30.9292 22.687 31.0051 22.7257C31.1299 22.7893 31.5189 22.7976 35.086 22.8132L39.0289 22.8304L39.1989 23.1386C39.3018 23.3251 39.3888 23.5049 39.3722 23.5476C39.3467 23.6128 36.9463 23.6516 33.0311 23.6458C30.7012 23.6423 30.7523 23.5906 30.6812 23.5817V23.5817Z" fill="url(#paint24_linear_601_50147)"/>
<path opacity="0.5" d="M30.6812 23.5817C30.4619 23.5543 30.2594 23.4126 30.2594 23.3282C30.2594 23.2442 30.8227 22.5948 30.8932 22.5948C30.9169 22.5948 30.9292 22.687 31.0051 22.7257C31.1299 22.7893 31.5189 22.7976 35.086 22.8132L39.0289 22.8304L39.1989 23.1386C39.3018 23.3251 39.3888 23.5049 39.3722 23.5476C39.3467 23.6128 36.9463 23.6516 33.0311 23.6458C30.7012 23.6423 30.7523 23.5906 30.6812 23.5817V23.5817Z" fill="url(#paint25_linear_601_50147)"/>
<path d="M30.6861 27.3182C26.5885 26.9607 23.312 24.5593 22.825 21.5567C22.5208 19.6805 23.3258 17.8494 25.101 16.3801C25.712 15.8744 25.8728 15.7704 26.6593 15.3722C28.1295 14.6277 29.5571 14.2882 31.4279 14.238C32.4345 14.211 33.165 14.2566 33.9908 14.3977C34.71 14.5207 34.796 14.551 34.9983 14.7534C35.1432 14.8983 35.1792 14.9642 35.1792 15.0845C35.1792 15.2683 34.978 15.5488 33.9092 16.8546C32.6401 18.4052 31.8601 19.4548 30.848 20.9743C30.0087 22.2342 29.8927 22.5149 30.0241 22.967C30.1211 23.3008 30.4251 23.4557 30.7237 23.5125C31.1104 23.5861 31.5458 23.5688 34.4754 23.5642C36.0142 23.5617 39.2783 23.5687 39.3796 23.5613C39.5112 23.5517 39.588 23.5135 39.6762 23.4291C39.9787 23.0375 40.0974 22.8739 39.6973 23.585C39.526 23.8894 39.2649 24.1253 38.9774 24.185C38.6444 24.2541 29.8817 24.22 29.3999 24.1477C28.979 24.0845 28.7352 23.9916 28.409 23.7701C28.2045 23.6313 28.1255 23.5443 28.0344 23.3582C27.9321 23.149 27.9219 23.0909 27.9449 22.8446C27.9738 22.5356 28.1026 22.22 28.3471 21.8591C28.4357 21.7284 28.5724 21.507 28.651 21.3672C28.7296 21.2273 29.0632 20.7027 29.3923 20.2015C30.2658 18.8714 31.1551 17.6599 31.788 16.9376C32.1863 16.4832 32.761 15.6967 32.8023 15.5494C32.8826 15.2637 32.6581 14.8779 32.3477 14.7679C32.1362 14.6929 31.0114 14.709 30.334 14.7967C26.6138 15.2783 23.8064 17.4232 23.3315 20.1468C23.2507 20.6097 23.2502 21.5287 23.3304 21.9868C23.5519 23.2516 24.3618 24.4253 25.6445 25.3403C26.1117 25.6737 27.1345 26.1981 27.7401 26.4149C30.4875 27.3985 33.9688 27.2419 36.5852 26.0171C37.2144 25.7225 37.4842 25.5397 37.8761 25.1422L38.2206 24.7929L38.8147 24.7646C39.3821 24.7375 39.6959 24.7667 39.6543 24.834C39.6164 24.8953 38.8163 25.2083 38.4962 25.3219C38.3154 25.3861 38.1473 25.5021 37.8914 25.663C35.9294 26.8963 33.2049 27.538 30.686 27.3182L30.6861 27.3182Z" fill="url(#paint26_linear_601_50147)"/>
<path opacity="0.3" d="M30.7327 27.3107C26.6351 26.9532 23.3586 24.5518 22.8717 21.5492C22.5674 19.6729 23.3725 17.8418 25.1477 16.3726C25.7587 15.8669 25.9194 15.7629 26.7059 15.3646C28.1761 14.6202 29.6038 14.2806 31.4745 14.2305C30.8619 14.53 31.1953 14.7547 30.3807 14.7892C26.6605 15.2708 23.853 17.4157 23.3781 20.1393C23.2974 20.6022 23.2969 21.5212 23.377 21.9793C23.5985 23.244 24.4084 24.4177 25.6911 25.3328C26.1583 25.6661 27.1811 26.1906 27.7867 26.4074C30.5341 27.391 34.0154 27.2344 36.6319 26.0095C37.2611 25.715 37.5308 25.5322 37.9227 25.1347L38.2672 24.7854L38.8614 24.757C39.4287 24.7299 39.7425 24.7592 39.701 24.8264C39.6631 24.8878 38.8629 25.2008 38.5428 25.3144C38.362 25.3785 38.194 25.4945 37.9381 25.6554C35.976 26.8888 33.2515 27.5304 30.7327 27.3107L30.7327 27.3107Z" fill="url(#paint27_linear_601_50147)"/>
<path d="M30.7048 27.3157C26.6073 26.9582 23.4271 24.7174 22.9402 21.7148C22.6359 19.8385 23.4409 18.0395 25.2161 16.5703C25.8271 16.0646 26.0079 15.959 26.7461 15.5286C28.1699 14.6987 29.5759 14.2856 31.4466 14.2355C32.4533 14.2085 33.1837 14.254 34.0095 14.3952C34.7287 14.5181 34.8147 14.5485 35.0171 14.7508C35.1619 14.8957 35.1979 14.9616 35.1979 15.082C35.1979 15.2658 34.9967 15.5462 33.928 16.852C32.6588 18.4026 31.8789 19.4523 30.8667 20.9718C30.0275 22.2316 29.9114 22.5124 30.0428 22.9644C30.1399 23.2983 30.4438 23.4531 30.7424 23.51C31.1292 23.5836 31.5645 23.5663 34.4941 23.5616C36.033 23.5592 39.2971 23.5662 39.3983 23.5587C39.53 23.5491 39.6068 23.511 39.6949 23.4265C39.9974 23.0349 40.1161 22.8713 39.716 23.5825C39.5448 23.8868 39.2837 24.1227 38.9961 24.1824C38.6632 24.2516 29.9004 24.2174 29.4186 24.1451C28.9978 24.082 28.754 23.9891 28.4277 23.7675C28.2233 23.6287 28.1442 23.5418 28.0532 23.3556C27.9508 23.1464 27.9407 23.0883 27.9637 22.842C27.9925 22.533 28.1213 22.2174 28.3659 21.8565C28.4544 21.7258 28.5912 21.5045 28.6697 21.3646C28.7483 21.2247 29.0819 20.7002 29.4111 20.1989C30.2846 18.8688 31.1738 17.6574 31.8068 16.9351C32.205 16.4806 32.7797 15.6941 32.8211 15.5469C32.9013 15.2612 32.6769 14.8753 32.3664 14.7653C32.1549 14.6903 31.0301 14.7065 30.3528 14.7941C26.6326 15.2757 23.8252 17.4207 23.3502 20.1443C23.2695 20.6072 23.269 21.5262 23.3492 21.9843C23.5707 23.249 24.3806 24.4227 25.6632 25.3378C26.1305 25.6711 27.1532 26.1956 27.7589 26.4124C30.5062 27.396 33.9875 27.2393 36.604 26.0145C37.2332 25.7199 37.5029 25.5371 37.8949 25.1397L38.2393 24.7904L38.8335 24.762C39.4009 24.7349 39.7147 24.7642 39.6731 24.8314C39.6352 24.8928 38.835 25.2058 38.5149 25.3194C38.3342 25.3835 38.1661 25.4995 37.9102 25.6604C35.9481 26.8938 33.2236 27.5354 30.7048 27.3157L30.7048 27.3157Z" fill="url(#paint28_linear_601_50147)"/>
<path opacity="0.5" d="M30.6861 27.3182C26.5885 26.9607 23.312 24.5593 22.825 21.5567C22.5208 19.6805 23.3258 17.8494 25.101 16.3801C25.712 15.8744 25.8728 15.7704 26.6593 15.3722C28.1295 14.6277 29.5571 14.2882 31.4279 14.238C31.3885 14.6455 30.7435 14.7984 30.334 14.7967C26.6138 15.2783 23.8064 17.4232 23.3315 20.1468C23.2507 20.6097 23.2502 21.5287 23.3304 21.9868C23.5519 23.2516 24.3618 24.4253 25.6445 25.3403C26.1117 25.6737 27.1345 26.1981 27.7401 26.4149C30.4875 27.3985 33.9688 27.2419 36.5852 26.0171C37.2144 25.7225 37.4842 25.5397 37.8761 25.1422L38.2206 24.7929L38.8147 24.7646C39.3821 24.7375 39.6959 24.7667 39.6543 24.834C39.6164 24.8953 38.8163 25.2083 38.4962 25.3219C38.3154 25.3861 38.1473 25.5021 37.8914 25.6629C35.9294 26.8963 33.2049 27.538 30.686 27.3182H30.6861Z" fill="url(#paint29_linear_601_50147)"/>
<path opacity="0.3" d="M30.7327 27.3107C26.6351 26.9532 23.3586 24.5518 22.8717 21.5492C22.5674 19.6729 23.3725 17.8418 25.1477 16.3726C25.7587 15.8669 25.9194 15.7629 26.7059 15.3646C28.1761 14.6202 29.6038 14.2806 31.4745 14.2305C30.8619 14.53 31.1953 14.7547 30.3807 14.7892C26.6605 15.2708 23.853 17.4157 23.3781 20.1393C23.2974 20.6022 23.2969 21.5212 23.377 21.9793C23.5985 23.244 24.4084 24.4177 25.6911 25.3328C26.1583 25.6661 27.1811 26.1906 27.7867 26.4074C30.5341 27.391 34.0154 27.2344 36.6319 26.0095C37.2611 25.715 37.5308 25.5322 37.9227 25.1347L38.2672 24.7854L38.8614 24.757C39.4287 24.7299 39.7425 24.7592 39.701 24.8264C39.6631 24.8878 38.8629 25.2008 38.5428 25.3144C38.362 25.3785 38.194 25.4945 37.9381 25.6554C35.976 26.8888 33.2515 27.5304 30.7327 27.3107L30.7327 27.3107Z" fill="url(#paint30_linear_601_50147)"/>
<path opacity="0.3" d="M31.1573 23.7639C30.8205 23.7558 30.1949 23.2653 30.2412 23.3046C30.5943 23.6043 32.077 23.577 34.9783 23.5699L39.3809 23.5591L39.4931 23.4517C39.5548 23.3926 39.6934 23.159 39.8011 22.9326C40.4398 21.59 40.4421 20.2287 39.808 18.9041C39.5502 18.3655 39.2488 17.9404 38.7705 17.4408C38.077 16.7164 37.423 16.2241 36.3756 15.7619C35.6328 15.4341 35.6113 15.5066 35.6419 15.3005C35.6419 15.2494 35.6141 15.184 35.5915 15.1032C35.4937 14.7542 35.5388 14.831 36.4204 15.2917C37.6051 15.9106 38.2445 16.3321 38.9902 17.1091C40.6374 18.8252 41.047 21.0397 40.0854 23.0297C39.9014 23.4103 39.6377 23.6702 39.344 23.7602C39.2132 23.8003 38.4452 23.8034 35.3764 23.7999C33.1733 23.7973 32.883 23.8055 31.1573 23.7639Z" fill="url(#paint31_linear_601_50147)"/>
<path d="M31.1572 23.6508C30.5706 23.6428 30.0417 23.1635 30.088 23.2023C30.4411 23.498 32.077 23.4664 34.9782 23.4594L39.3809 23.4487L39.4931 23.3427C39.5548 23.2843 39.6933 23.0538 39.801 22.8304C40.4397 21.5053 40.4421 20.1618 39.8079 18.8544C39.5501 18.3229 39.2487 17.9034 38.7705 17.4103C38.077 16.6953 37.423 16.2095 36.3756 15.7533C35.6328 15.4297 35.6113 15.5014 35.6419 15.2979C35.6419 15.2475 35.6141 15.1829 35.5914 15.1032C35.4937 14.7588 35.5842 15.0139 36.4658 15.4685C37.6505 16.0794 38.1536 16.4057 38.8993 17.1725C40.5465 18.8663 41.047 20.9622 40.0854 22.9262C39.9014 23.3018 39.6376 23.5584 39.344 23.6472C39.2131 23.6868 38.4452 23.6899 35.3763 23.6863C33.1732 23.6838 32.8833 23.6744 31.1572 23.6508Z" fill="url(#paint32_linear_601_50147)"/>
<path opacity="0.5" d="M39.808 18.9041C39.5502 18.3655 39.2488 17.9404 38.7706 17.4408C38.0771 16.7164 37.423 16.2241 36.3757 15.7619C35.6329 15.434 35.6114 15.5066 35.6419 15.3005C35.6419 15.2494 35.6141 15.1839 35.5915 15.1032C35.4937 14.7542 35.482 14.9446 36.3637 15.4052C37.5484 16.0242 38.2445 16.3321 38.9902 17.109C39.6267 17.9757 39.205 17.5128 39.808 18.9041Z" fill="url(#paint33_linear_601_50147)"/>
<path opacity="0.3" d="M37.9228 25.1347L38.2673 24.7854L38.8615 24.757C39.4288 24.7299 39.7426 24.7592 39.7011 24.8264C39.3027 25.2772 37.5384 25.5974 37.9228 25.1347Z" fill="url(#paint34_linear_601_50147)"/>
<path opacity="0.6" d="M30.7048 27.3064C26.6073 26.9489 23.4271 24.708 22.9402 21.7055C22.6359 19.8292 23.4409 18.0302 25.2161 16.561C25.8271 16.0553 26.0079 15.9497 26.7461 15.5193C28.1699 14.6894 29.5759 14.2763 31.4466 14.2262C32.4533 14.1992 33.1837 14.2447 34.0096 14.3859C34.7287 14.5088 34.8147 14.5392 35.0171 14.7415C35.1619 14.8864 35.1979 14.9523 35.1979 15.0727C35.1979 15.2565 34.9967 15.5369 33.928 16.8427C32.6588 18.3933 31.8789 19.4429 30.8667 20.9625C30.0275 22.2223 29.9114 22.5031 30.0428 22.9551C30.1399 23.289 30.4438 23.4438 30.7424 23.5007C31.1292 23.5743 31.5645 23.5569 34.4941 23.5523C36.033 23.5499 39.2971 23.5569 39.3983 23.5494C39.53 23.5398 39.6068 23.5017 39.6949 23.4172C39.9974 23.0256 40.1161 22.862 39.716 23.5731C39.5448 23.8775 39.2837 24.1134 38.9961 24.1731C38.6632 24.2423 29.9004 24.2081 29.4186 24.1358C28.9978 24.0727 28.754 23.9798 28.4277 23.7582C28.2233 23.6194 28.1442 23.5325 28.0532 23.3463C27.9508 23.1371 27.9407 23.079 27.9637 22.8327C27.9925 22.5237 28.1213 22.2081 28.3659 21.8472C28.4544 21.7165 28.5912 21.4952 28.6697 21.3553C28.7483 21.2154 29.0819 20.6909 29.4111 20.1896C30.2846 18.8595 31.1738 17.6481 31.8068 16.9258C32.205 16.4713 32.7797 15.6848 32.8211 15.5376C32.9013 15.2519 32.6769 14.866 32.3664 14.756C32.1549 14.681 31.0301 14.6971 30.3528 14.7848C26.6326 15.2664 23.8252 17.4114 23.3502 20.1349C23.2695 20.5979 23.269 21.5168 23.3492 21.9749C23.5707 23.2397 24.3806 24.4134 25.6632 25.3285C26.1305 25.6618 27.1532 26.1863 27.7589 26.4031C30.5062 27.3866 33.9875 27.23 36.604 26.0052C37.2332 25.7106 37.5029 25.5278 37.8949 25.1304L38.2393 24.7811L38.8335 24.7527C39.4009 24.7256 39.7147 24.7549 39.6731 24.8221C39.6352 24.8835 38.8351 25.1965 38.515 25.31C38.3342 25.3742 38.1661 25.4902 37.9102 25.6511C35.9482 26.8845 33.2236 27.5261 30.7048 27.3064H30.7048Z" fill="url(#paint35_radial_601_50147)"/>
<path fill-rule="evenodd" clip-rule="evenodd" d="M83.0036 16.8726C83.3462 16.882 83.3098 17.1227 83.2531 17.2057C82.2423 18.7782 79.8538 21.5471 78.1147 24.585C77.8267 25.0772 77.6123 25.4394 77.6123 25.9795C77.6123 26.7119 78.0695 27.5777 78.9879 27.9493C79.5921 28.1913 79.9725 28.1987 80.6245 28.2082C85.4656 28.3579 87.4064 28.2271 91.7383 28.0801C91.9885 28.0794 92.2211 27.9108 92.3048 27.809C93.1423 26.9357 93.6251 25.3659 93.6251 23.9807C93.6251 20.8957 91.4032 18.1167 87.9371 16.7802L87.3808 17.4937C90.4186 18.7493 91.9885 21.2571 91.9885 23.943C91.9885 24.5472 91.886 25.1325 91.7005 25.6915C91.563 26.0813 91.3937 26.3052 90.9015 26.3126C87.3713 26.3881 85.3726 26.4434 81.833 26.3504C81.3764 26.3409 81.2288 26.1744 81.1546 25.8129C81.0979 25.5985 81.1451 25.4204 81.2928 25.1514C83.1702 21.8256 86.4407 18.0243 87.0827 17.1227C87.2047 16.9562 87.1474 16.6204 86.7286 16.5091C85.5034 16.147 84.1284 16 82.7345 16C76.4234 16.0256 71.9721 19.5753 71.8696 23.9807C72.1225 29.2689 76.7208 32 82.7345 32C86.4144 32 89.7854 30.6992 91.7579 28.6364L89.9358 28.7099C88.2533 30.2062 85.558 31.006 82.7703 31.006C77.6892 31.006 73.5521 28.4792 73.5521 23.943C73.5521 20.0413 77.6885 16.8631 82.7703 16.8631L83.0036 16.8726ZM124.746 26.4239L128.184 24.1669L122.981 20.2915V21.2403H115.285C114.281 21.2403 113.455 21.9544 113.306 22.8843L122.227 22.8748V24.5661L115.406 24.5755C114.329 24.5755 113.446 25.3942 113.399 26.4239H124.746ZM157.427 21.2119H165.317V19.549H157.383C154.416 19.549 151.992 21.8161 151.87 24.6591L161.434 24.6491C162.055 24.6491 162.557 25.0584 162.557 25.5513C162.557 26.053 162.054 26.4529 161.434 26.4529L150.905 26.4522V19.549H147.782V26.407H141.51C140.59 26.2573 140.301 25.5891 140.301 24.2876L140.302 19.549H135.266L130.739 22.4844L126.799 19.549H114.681C111.995 19.549 109.757 21.3974 109.264 23.8594H111.698C110.78 24.4825 110.073 25.3659 109.682 26.4077L101.977 26.407C101.069 26.2573 100.771 25.5891 100.771 24.2876L100.772 19.549H97.6576V23.9713C97.5268 26.9 99.1155 27.9493 100.928 28.1158L125.136 28.1151L129.597 25.2343L133.491 28.1536H138.256L132.19 23.591L137.179 20.3576L137.188 23.9713C137.06 26.9 138.805 27.9493 140.618 28.1158L163.273 28.1151C164.834 28.1151 166.099 26.9735 166.099 25.5513C166.099 24.1379 164.833 22.9962 163.273 22.9962H155.448C155.522 22.0016 156.378 21.2119 157.427 21.2119Z" fill="black"/>
<path fill-rule="evenodd" clip-rule="evenodd" d="M206.8 13.3088C207.314 13.3231 207.259 13.6841 207.174 13.8086C205.658 16.1673 202.075 20.3206 199.466 24.8775C199.035 25.6158 198.713 26.159 198.713 26.9693C198.713 28.0678 199.399 29.3666 200.776 29.9239C201.683 30.287 202.253 30.2981 203.231 30.3122C210.493 30.5368 213.404 30.3406 219.902 30.1201C220.277 30.119 220.626 29.8662 220.752 29.7135C222.008 28.4036 222.732 26.0488 222.732 23.9711C222.732 19.3435 219.399 15.1751 214.2 13.1703L213.366 14.2405C217.922 16.1239 220.277 19.8857 220.277 23.9145C220.277 24.8209 220.123 25.6988 219.845 26.5373C219.639 27.122 219.385 27.4578 218.647 27.4689C213.351 27.5822 210.353 27.6651 205.044 27.5256C204.359 27.5114 204.138 27.2616 204.026 26.7194C203.941 26.3977 204.012 26.1307 204.234 25.7271C207.05 20.7384 211.955 15.0365 212.918 13.6841C213.102 13.4343 213.016 12.9306 212.387 12.7637C210.549 12.2205 208.487 12 206.396 12C196.93 12.0384 190.253 17.3629 190.099 23.9711C190.478 31.9034 197.376 36 206.396 36C211.916 36 216.973 34.0488 219.931 30.9546L217.198 31.0648C214.674 33.3093 210.631 34.509 206.45 34.509C198.828 34.509 192.623 30.7189 192.623 23.9145C192.623 18.062 198.827 13.2947 206.45 13.2947L206.8 13.3088Z" fill="black"/>
<defs>
<linearGradient id="paint0_linear_601_50147" x1="30.9248" y1="35.0027" x2="30.7716" y2="28.6666" gradientUnits="userSpaceOnUse">
<stop stop-color="#505050"/>
<stop offset="0.0584744" stop-color="#525252"/>
<stop offset="0.56152" stop-color="#555555"/>
<stop offset="0.786532" stop-color="#5A5A5A"/>
<stop offset="1" stop-color="#C8C8C8"/>
</linearGradient>
<linearGradient id="paint1_linear_601_50147" x1="37.9745" y1="29.5817" x2="37.9745" y2="30.1841" gradientUnits="userSpaceOnUse">
<stop stop-color="#B8B8B8"/>
<stop offset="1" stop-color="#828282"/>
</linearGradient>
<linearGradient id="paint2_linear_601_50147" x1="32.8657" y1="28.981" x2="32.7605" y2="33.5479" gradientUnits="userSpaceOnUse">
<stop stop-color="#464646"/>
<stop offset="1"/>
</linearGradient>
<linearGradient id="paint3_linear_601_50147" x1="32.8655" y1="28.9476" x2="32.7516" y2="33.6975" gradientUnits="userSpaceOnUse">
<stop stop-color="#464646"/>
<stop offset="1"/>
</linearGradient>
<linearGradient id="paint4_linear_601_50147" x1="32.8655" y1="28.5947" x2="32.7259" y2="33.8548" gradientUnits="userSpaceOnUse">
<stop stop-color="#464646"/>
<stop offset="1"/>
</linearGradient>
<linearGradient id="paint5_linear_601_50147" x1="32.8655" y1="28.5947" x2="32.7259" y2="33.8548" gradientUnits="userSpaceOnUse">
<stop stop-color="#464646"/>
<stop offset="1"/>
</linearGradient>
<linearGradient id="paint6_linear_601_50147" x1="32.8656" y1="28.947" x2="32.7469" y2="33.7974" gradientUnits="userSpaceOnUse">
<stop stop-color="#464646"/>
<stop offset="1"/>
</linearGradient>
<linearGradient id="paint7_linear_601_50147" x1="32.8655" y1="28.5947" x2="32.7259" y2="33.8548" gradientUnits="userSpaceOnUse">
<stop stop-color="#464646"/>
<stop offset="1"/>
</linearGradient>
<linearGradient id="paint8_linear_601_50147" x1="32.8655" y1="28.5947" x2="32.7259" y2="33.8548" gradientUnits="userSpaceOnUse">
<stop stop-color="#464646"/>
<stop offset="1"/>
</linearGradient>
<linearGradient id="paint9_linear_601_50147" x1="29.5033" y1="28.8287" x2="29.3903" y2="34.288" gradientUnits="userSpaceOnUse">
<stop stop-color="#787878"/>
<stop offset="1" stop-color="#1E1E1E"/>
</linearGradient>
<linearGradient id="paint10_linear_601_50147" x1="30.8964" y1="28.904" x2="31.0847" y2="33.3467" gradientUnits="userSpaceOnUse">
<stop stop-color="#B4B4B4"/>
<stop offset="0.322353" stop-color="#828282"/>
<stop offset="1" stop-color="#3C3C3C"/>
</linearGradient>
<linearGradient id="paint11_linear_601_50147" x1="31.5759" y1="34.5582" x2="31.7623" y2="31.4642" gradientUnits="userSpaceOnUse">
<stop stop-color="#828282"/>
<stop offset="0.5" stop-color="#828282"/>
<stop offset="1" stop-color="#3C3C3C"/>
</linearGradient>
<linearGradient id="paint12_linear_601_50147" x1="31.1599" y1="31.0877" x2="31.2352" y2="33.422" gradientUnits="userSpaceOnUse">
<stop stop-color="#828282"/>
<stop offset="0.5" stop-color="#828282"/>
<stop offset="1" stop-color="#3C3C3C"/>
</linearGradient>
<linearGradient id="paint13_linear_601_50147" x1="22.4219" y1="18.2395" x2="39.1544" y2="29.1409" gradientUnits="userSpaceOnUse">
<stop stop-color="#000032"/>
<stop offset="0.25" stop-color="#646464"/>
<stop offset="0.423823"/>
<stop offset="1" stop-color="#787878"/>
</linearGradient>
<linearGradient id="paint14_linear_601_50147" x1="23.1935" y1="26.2099" x2="40.3457" y2="26.0814" gradientUnits="userSpaceOnUse">
<stop stop-color="#999999"/>
<stop offset="0.220528" stop-color="#3C3C3C" stop-opacity="0.87451"/>
<stop offset="0.515847" stop-color="#969696"/>
<stop offset="0.752781" stop-color="#828282"/>
<stop offset="1" stop-color="#5A5A5A"/>
</linearGradient>
<linearGradient id="paint15_linear_601_50147" x1="34.4677" y1="27.7196" x2="34.4355" y2="23.5118" gradientUnits="userSpaceOnUse">
<stop/>
<stop offset="1" stop-opacity="0"/>
</linearGradient>
<linearGradient id="paint16_linear_601_50147" x1="28.6219" y1="14.8394" x2="40.9152" y2="28.8232" gradientUnits="userSpaceOnUse">
<stop stop-color="#5A5A5A"/>
<stop offset="0.268765" stop-color="#505050"/>
<stop offset="0.632019" stop-color="#666666"/>
<stop offset="0.667453" stop-color="#666666"/>
<stop offset="1" stop-color="#666666"/>
</linearGradient>
<linearGradient id="paint17_linear_601_50147" x1="28.6219" y1="14.8394" x2="40.9152" y2="28.8232" gradientUnits="userSpaceOnUse">
<stop stop-color="#5A5A5A"/>
<stop offset="0.268765" stop-color="#505050"/>
<stop offset="0.632019" stop-color="#666666"/>
<stop offset="0.667453" stop-color="#666666"/>
<stop offset="1" stop-color="#666666"/>
</linearGradient>
<linearGradient id="paint18_linear_601_50147" x1="23.8812" y1="16.2214" x2="36.4582" y2="21.6464" gradientUnits="userSpaceOnUse">
<stop stop-color="#323232" stop-opacity="0"/>
<stop offset="0.39399" stop-color="#323232" stop-opacity="0.94902"/>
<stop offset="0.466851" stop-color="#323232" stop-opacity="0.901961"/>
<stop offset="0.704071" stop-color="#E1E1E1" stop-opacity="0.498039"/>
<stop offset="1" stop-color="#C8C8C8" stop-opacity="0"/>
</linearGradient>
<linearGradient id="paint19_linear_601_50147" x1="34.3714" y1="25.5675" x2="34.4358" y2="23.5118" gradientUnits="userSpaceOnUse">
<stop/>
<stop offset="1" stop-opacity="0"/>
</linearGradient>
<linearGradient id="paint20_linear_601_50147" x1="23.3482" y1="17.3997" x2="25.0691" y2="19.2145" gradientUnits="userSpaceOnUse">
<stop stop-color="#28170B"/>
<stop offset="1" stop-color="#28170B" stop-opacity="0"/>
</linearGradient>
<linearGradient id="paint21_linear_601_50147" x1="31.6225" y1="16.246" x2="30.9811" y2="14.7947" gradientUnits="userSpaceOnUse">
<stop stop-color="#B3B3B3" stop-opacity="0"/>
<stop offset="0.160949" stop-color="#B3B3B3" stop-opacity="0.300885"/>
<stop offset="0.341789" stop-color="#B3B3B3" stop-opacity="0.87451"/>
<stop offset="0.405936" stop-color="#B3B3B3" stop-opacity="0.74902"/>
<stop offset="0.658295" stop-color="#B3B3B3" stop-opacity="0"/>
<stop offset="1" stop-color="#B3B3B3" stop-opacity="0"/>
</linearGradient>
<linearGradient id="paint22_linear_601_50147" x1="27.6407" y1="24.2241" x2="26.8152" y2="21.702" gradientUnits="userSpaceOnUse">
<stop stop-color="#B3B3B3" stop-opacity="0"/>
<stop offset="0.12143" stop-color="#B3B3B3" stop-opacity="0.368627"/>
<stop offset="0.285824" stop-color="#B3B3B3" stop-opacity="0.87451"/>
<stop offset="0.383948" stop-color="#B3B3B3" stop-opacity="0.74902"/>
<stop offset="0.516942" stop-color="#B3B3B3" stop-opacity="0.498039"/>
<stop offset="1" stop-color="#B3B3B3" stop-opacity="0"/>
</linearGradient>
<linearGradient id="paint23_linear_601_50147" x1="36.7307" y1="14.9689" x2="39.2603" y2="22.5227" gradientUnits="userSpaceOnUse">
<stop/>
<stop offset="0.552013" stop-color="#7D7D7D"/>
<stop offset="0.693304" stop-color="#969696"/>
<stop offset="0.857541" stop-color="#8A8A8A"/>
<stop offset="1" stop-color="#505050"/>
</linearGradient>
<linearGradient id="paint24_linear_601_50147" x1="30.1084" y1="22.8075" x2="38.4262" y2="24.775" gradientUnits="userSpaceOnUse">
<stop stop-color="#323232"/>
<stop offset="0.105545" stop-color="#B4B4B6"/>
<stop offset="0.253205" stop-color="#B4B4B4"/>
<stop offset="1" stop-color="#AAAAAA"/>
</linearGradient>
<linearGradient id="paint25_linear_601_50147" x1="35.3226" y1="22.464" x2="35.3226" y2="23.8495" gradientUnits="userSpaceOnUse">
<stop stop-color="#505050"/>
<stop offset="1" stop-color="#FAFAFA" stop-opacity="0"/>
</linearGradient>
<linearGradient id="paint26_linear_601_50147" x1="24.4918" y1="13.4929" x2="28.1535" y2="19.3388" gradientUnits="userSpaceOnUse">
<stop stop-color="#8282A9"/>
<stop offset="1" stop-color="#A9A9A9" stop-opacity="0"/>
</linearGradient>
<linearGradient id="paint27_linear_601_50147" x1="39.0339" y1="24.7547" x2="34.5441" y2="26.2946" gradientUnits="userSpaceOnUse">
<stop stop-color="#FAFAFA"/>
<stop offset="0.25" stop-color="#FAFAFA" stop-opacity="0.901961"/>
<stop offset="0.5" stop-color="#E1E1E1" stop-opacity="0.498039"/>
<stop offset="1" stop-color="#C8C8C8" stop-opacity="0"/>
</linearGradient>
<linearGradient id="paint28_linear_601_50147" x1="32.3799" y1="13.5546" x2="32.2811" y2="29.4398" gradientUnits="userSpaceOnUse">
<stop stop-color="#AAAAAA"/>
<stop offset="0.101807" stop-color="#BEBEBE"/>
<stop offset="0.211525" stop-color="#BEBEBE"/>
<stop offset="0.549206" stop-color="#B4B4B4"/>
<stop offset="0.673505" stop-color="#878787"/>
<stop offset="0.778718" stop-color="#969696"/>
<stop offset="1" stop-color="#AAAAAA"/>
</linearGradient>
<linearGradient id="paint29_linear_601_50147" x1="22.3584" y1="24.5718" x2="26.0522" y2="21.3598" gradientUnits="userSpaceOnUse">
<stop stop-color="#E6E6E6"/>
<stop offset="1" stop-color="#FAFAFA" stop-opacity="0"/>
</linearGradient>
<linearGradient id="paint30_linear_601_50147" x1="39.0339" y1="24.7547" x2="34.5441" y2="26.2946" gradientUnits="userSpaceOnUse">
<stop stop-color="#FAFAFA"/>
<stop offset="0.25" stop-color="#FAFAFA" stop-opacity="0.901961"/>
<stop offset="0.5" stop-color="#E1E1E1" stop-opacity="0.498039"/>
<stop offset="1" stop-color="#C8C8C8" stop-opacity="0"/>
</linearGradient>
<linearGradient id="paint31_linear_601_50147" x1="35.3138" y1="14.8786" x2="36.2288" y2="15.521" gradientUnits="userSpaceOnUse">
<stop stop-color="#FAFAFA"/>
<stop offset="0.25" stop-color="#EDEDED" stop-opacity="0.74902"/>
<stop offset="0.5" stop-color="#E1E1E1" stop-opacity="0.498039"/>
<stop offset="1" stop-color="#C8C8C8" stop-opacity="0"/>
</linearGradient>
<linearGradient id="paint32_linear_601_50147" x1="30.7418" y1="24.1542" x2="39.2536" y2="15.3533" gradientUnits="userSpaceOnUse">
<stop stop-color="#969696"/>
<stop offset="0.132623" stop-color="#C0BEBE"/>
<stop offset="0.5" stop-color="#B4B4B4"/>
<stop offset="1" stop-color="#BEBEBE"/>
</linearGradient>
<linearGradient id="paint33_linear_601_50147" x1="35.1744" y1="15.3533" x2="37.0053" y2="15.7066" gradientUnits="userSpaceOnUse">
<stop stop-opacity="0"/>
<stop offset="0.109171" stop-color="#323232" stop-opacity="0.94902"/>
<stop offset="0.218341" stop-color="#323232" stop-opacity="0.901961"/>
<stop offset="0.506057" stop-color="#E1E1E1" stop-opacity="0.498039"/>
<stop offset="1" stop-color="#C8C8C8" stop-opacity="0"/>
</linearGradient>
<linearGradient id="paint34_linear_601_50147" x1="38.7931" y1="24.7547" x2="38.7841" y2="25.3149" gradientUnits="userSpaceOnUse">
<stop stop-color="#FAFAFA"/>
<stop offset="0.5" stop-color="#FAFAFA" stop-opacity="0.901961"/>
<stop offset="0.697845" stop-color="#E1E1E1" stop-opacity="0.498039"/>
<stop offset="1" stop-color="#C8C8C8" stop-opacity="0"/>
</linearGradient>
<radialGradient id="paint35_radial_601_50147" cx="0" cy="0" r="1" gradientUnits="userSpaceOnUse" gradientTransform="translate(31.7484 18.2048) rotate(76.732) scale(4.40043 5.59461)">
<stop stop-color="#DCDCDC" stop-opacity="0.901961"/>
<stop offset="0.752174" stop-color="#E1E1E1" stop-opacity="0.45098"/>
<stop offset="1" stop-color="#C8C8C8" stop-opacity="0"/>
</radialGradient>
</defs>
</svg>
