<svg width="64" height="56" viewBox="0 0 64 56" fill="none" xmlns="http://www.w3.org/2000/svg">
<g clip-path="url(#clip0_601_49958)">
<path fill-rule="evenodd" clip-rule="evenodd" d="M39.0544 14.5236C43.894 17.0688 47.2 22.1432 47.2 27.9924C47.2 33.8416 43.894 38.932 39.0544 41.4616V39.7224C40.9052 38.6152 42.4708 37.066 43.61 35.2324L39.0544 33.3832V30.5692L44.0524 34.474C45.0964 32.5452 45.6816 30.3476 45.6816 27.992C45.6816 23.028 43.024 18.6652 39.0544 16.262V14.5236ZM32.016 12.8004C34.5469 12.8004 36.9348 13.4172 39.0544 14.5236V16.2628C37.1088 15.0924 34.8312 14.3972 32.4272 14.318L34.1668 26.7596L39.0544 30.5696V33.3836L31.984 30.522L24.9612 33.3992V30.6008L29.8804 26.7592L31.6044 14.3176C29.1684 14.3968 26.9068 15.0924 24.9612 16.262V14.5236C27.0652 13.4172 29.4692 12.8004 32.016 12.8004ZM39.0544 41.4616C36.9348 42.568 34.5464 43.2 32.016 43.2C29.4696 43.2 27.0656 42.568 24.9616 41.4772V39.7224C27.018 40.9708 29.4376 41.6824 32.016 41.6824C34.5784 41.6824 36.9828 40.9708 39.0544 39.7224V41.4616ZM24.9616 41.4772C20.1056 38.932 16.8 33.8416 16.8 27.9924C16.8 22.1432 20.1056 17.0688 24.9616 14.5236V16.2628C20.9756 18.6656 18.3184 23.0128 18.3184 27.9924C18.3184 30.3476 18.9196 32.5772 19.9636 34.5056L24.9616 30.6008V33.3992L20.422 35.264C21.5608 37.0828 23.1108 38.6156 24.9616 39.7224V41.4772Z" fill="black"/>
</g>
<defs>
<clipPath id="clip0_601_49958">
<rect width="32" height="32" fill="white" transform="translate(16 12)"/>
</clipPath>
</defs>
</svg>
