<svg width="64" height="51" viewBox="0 0 64 51" fill="none" xmlns="http://www.w3.org/2000/svg">
<g clip-path="url(#clip0_601_50201)">
<path d="M34.648 26.4572C34.6226 26.4636 34.521 26.4636 34.4765 26.4636H31.2003V27.2255H34.5337C34.5591 27.2255 34.7559 27.2255 34.794 27.2191C35.4734 27.1556 35.7845 26.5905 35.7845 26.0953C35.7845 25.5874 35.4607 25.0413 34.8448 24.9842C34.7242 24.9715 34.6226 24.9715 34.5781 24.9715H32.4003C32.3051 24.9715 32.1972 24.9651 32.1591 24.9524C31.9876 24.908 31.9242 24.7556 31.9242 24.6286C31.9242 24.5143 31.9876 24.362 32.1654 24.3112C32.2162 24.2985 32.2734 24.2921 32.394 24.2921H35.5369V23.5429H32.3432C32.2099 23.5429 32.1083 23.5493 32.0257 23.562C31.4797 23.6381 31.0988 24.0762 31.0988 24.635C31.0988 25.0921 31.3845 25.6255 32.013 25.7143C32.1273 25.727 32.2861 25.727 32.3559 25.727H34.4765C34.5146 25.727 34.6099 25.727 34.6289 25.7334C34.8702 25.7651 34.9527 25.9429 34.9527 26.1016C34.9527 26.254 34.8575 26.4191 34.648 26.4572Z" fill="black"/>
<path d="M28.4384 26.4572C28.413 26.4636 28.3114 26.4636 28.2733 26.4636H24.9907V27.2255H28.3241C28.3495 27.2255 28.5463 27.2255 28.5844 27.2191C29.2638 27.1556 29.5749 26.5905 29.5749 26.0953C29.5749 25.5874 29.2511 25.0413 28.6352 24.9842C28.5146 24.9715 28.413 24.9715 28.3685 24.9715H26.1908C26.0955 24.9715 25.9876 24.9651 25.9495 24.9524C25.7781 24.908 25.7146 24.7556 25.7146 24.6286C25.7146 24.5143 25.7781 24.362 25.9558 24.3112C26.0066 24.2985 26.0638 24.2921 26.1844 24.2921H29.3273V23.5429H26.1336C26.0003 23.5429 25.8987 23.5493 25.8161 23.562C25.2701 23.6381 24.8892 24.0762 24.8892 24.635C24.8892 25.0921 25.1749 25.6255 25.8034 25.7143C25.9177 25.727 26.0765 25.727 26.1463 25.727H28.2669C28.305 25.727 28.4003 25.727 28.4193 25.7334C28.6606 25.7651 28.7431 25.9429 28.7431 26.1016C28.7431 26.254 28.6543 26.4191 28.4384 26.4572Z" fill="black"/>
<path d="M23.2828 23.5175H22.4574V27.2445H23.2828V23.5175Z" fill="black"/>
<path d="M20.6352 27.2445V23.5175H19.8098V26.2984L17.0606 23.5175H16.0002V27.2445H16.8256V24.4508L19.5939 27.2445H20.6352Z" fill="black"/>
<path d="M47.1814 23.5175V26.2984L44.4321 23.5175H43.3718V27.2445H44.1972V24.4508L46.9591 27.2445H48.0004V23.5175H47.1814Z" fill="black"/>
<path d="M39.0733 23.5175L36.7495 27.2445H37.7527L38.1654 26.5778H40.8765L41.2892 27.2445H42.286L39.9622 23.5175H39.0733ZM40.4511 25.8731H38.5908L39.5241 24.3746L40.4511 25.8731Z" fill="black"/>
<path d="M20.5907 21.4032C22.2542 16.546 26.8384 13.2825 32.0067 13.2825C37.1749 13.2825 41.7654 16.546 43.4226 21.4032L43.4353 21.4413H47.0734V21.0032L45.5623 20.8254C44.6289 20.7175 44.4321 20.3048 44.1781 19.7842L44.1146 19.6572C41.9305 15.0095 37.1749 12 32.0067 12C26.832 12 22.0828 15.0095 19.8987 19.6699L19.8352 19.7969C19.5812 20.3175 19.3844 20.7302 18.4511 20.8381L16.9399 21.0159V21.454H20.5717L20.5907 21.4032Z" fill="black"/>
<path d="M43.4353 29.3271L43.4226 29.3652C41.7591 34.2223 37.1749 37.4795 32.0067 37.4795C26.8384 37.4795 22.2479 34.216 20.5907 29.3588L20.578 29.3207H16.9463V29.7588L18.4574 29.9366C19.3907 30.0445 19.5876 30.4572 19.8415 30.9779L19.905 31.1048C22.0892 35.7652 26.8447 38.7747 32.013 38.7747C37.1813 38.7747 41.9369 35.7652 44.121 31.1112L44.1845 30.9842C44.4385 30.4636 44.6353 30.0509 45.5686 29.9429L47.0797 29.7652V29.3271H43.4353Z" fill="black"/>
</g>
<defs>
<clipPath id="clip0_601_50201">
<rect width="32" height="26.7747" fill="white" transform="translate(16 12)"/>
</clipPath>
</defs>
</svg>
