<svg width="74" height="56" viewBox="0 0 74 56" fill="none" xmlns="http://www.w3.org/2000/svg">
<path d="M36.5907 42.1462C28.7902 42.1462 22.4438 35.7997 22.4438 27.9993C22.4438 27.5967 22.4644 27.1988 22.499 26.8054L34.325 27.5438L29.2068 31.0818C29.1378 31.1301 29.0918 31.2106 29.0918 31.3003C29.0918 31.4475 29.2114 31.5694 29.3586 31.5694H50.2824C48.6952 37.6468 43.158 42.1465 36.5907 42.1465M36.5907 13.8521C44.3935 13.8521 50.7376 20.1986 50.7376 27.999C50.7376 28.3993 50.717 28.795 50.6847 29.186H50.6778L38.8518 28.4337L43.9838 24.9165C44.0551 24.8682 44.0988 24.7877 44.0988 24.698C44.0988 24.5485 43.9792 24.4288 43.832 24.4288H22.9011C24.4861 18.3515 30.0231 13.8518 36.5904 13.8518M56.8724 29.5793L53.0009 29.3331L52.5339 29.3032C52.5684 28.8731 52.5915 28.4382 52.5915 27.9989C52.5915 19.1774 45.4141 12 36.5902 12C28.9947 12 22.6247 17.3207 20.9964 24.4285H17.4607C17.2606 24.4285 17.0835 24.5228 16.9708 24.67L16.0667 25.9191C16.0253 25.972 16 26.0388 16 26.1101C16 26.2803 16.138 26.4183 16.3105 26.4183L20.1659 26.6575L20.649 26.6898C20.6145 27.1222 20.5915 27.557 20.5915 27.9987C20.5915 36.8202 27.7689 44 36.5905 44C44.186 44 50.5583 38.677 52.1843 31.5691H55.7222C55.9223 31.5691 56.0995 31.4748 56.2122 31.3276L57.1162 30.0785C57.1576 30.0256 57.1806 29.9589 57.1806 29.8876C57.1806 29.7173 57.0426 29.5793 56.8724 29.5793" fill="black"/>
</svg>
