<svg width="64" height="50" viewBox="0 0 64 50" fill="none" xmlns="http://www.w3.org/2000/svg">
<g clip-path="url(#clip0_601_50237)">
<path d="M28.8442 12.0491C32.352 11.9255 35.8632 12.0482 39.3648 12.2731C39.7334 12.3051 40.1069 12.3025 40.4699 12.3801C40.6663 12.4274 40.8784 12.5024 40.9933 12.6808C41.0981 12.875 41.1002 13.1016 41.1274 13.3155C41.2107 14.3662 41.2353 15.4214 41.3137 16.4721C41.1621 16.4905 41.0104 16.4673 40.8587 16.4625C38.158 16.3226 35.4551 16.2065 32.75 16.203C31.349 16.2069 29.9463 16.1933 28.5466 16.2613C28.2073 16.3112 27.8233 16.4248 27.6274 16.7272C28.6864 16.9153 29.7433 17.1182 30.8019 17.3098C34.3105 17.9665 37.8218 18.6087 41.3304 19.2644C41.3273 19.9299 41.3286 20.5953 41.3299 21.2607C39.3569 20.9341 37.3874 20.5817 35.4156 20.2446C31.1737 19.5134 26.933 18.7722 22.6897 18.048C22.698 17.3094 22.7296 16.5712 22.745 15.8321C22.7717 15.2469 22.755 14.6538 22.8874 14.0791C22.9764 13.6736 23.1412 13.266 23.4485 12.9762C23.9789 12.4511 24.746 12.3033 25.4601 12.2293C26.5854 12.1249 27.7155 12.0907 28.8442 12.0491ZM22.6696 19.0198C28.7469 20.1411 34.8221 21.2813 40.8986 22.4092C41.0314 22.4416 41.1734 22.4443 41.301 22.4929L41.3164 22.528C41.283 23.5248 41.2637 24.5225 41.2278 25.5193C41.2046 26.1344 41.1397 26.7779 40.8232 27.3197C40.4839 27.8799 39.8518 28.1898 39.2263 28.3069C38.3044 28.48 37.3628 28.4914 36.4291 28.5427C32.4116 28.725 28.3857 28.6242 24.3748 28.3481C24.0543 28.3257 23.7282 28.32 23.417 28.231C23.2556 28.1802 23.0891 28.0982 22.9979 27.9492C22.9001 27.7536 22.894 27.5305 22.8699 27.3175C22.784 26.1545 22.7384 24.9894 22.6774 23.8251C24.7465 23.9566 26.819 24.0302 28.892 24.0763C30.8936 24.1087 32.8951 24.1083 34.8966 24.128C35.3284 24.146 35.7953 24.0636 36.1227 23.7602C36.1705 23.7054 36.2481 23.6546 36.2402 23.5726C35.3381 23.4372 34.4412 23.2688 33.5408 23.1207C29.9182 22.5013 26.2939 21.8876 22.6717 21.2647C22.6674 20.5164 22.6726 19.7681 22.6696 19.0198Z" fill="#19191B"/>
<path d="M38.791 33.8825V35.2681H34.3837V34.8778C34.3837 34.2728 34.481 33.8727 35.1912 33.8727H38.791V33.8825ZM34.9188 33.0237C33.761 33.0237 33.2259 33.6385 33.2259 34.6338V37.4247H34.3837V36.1366H38.791V37.4149H39.9488V33.0237H34.9188ZM41.379 33.0237V33.8825H44.1031V37.4149H45.2609V33.8825H47.9851V33.0237H41.379ZM25.7928 35.7267C25.7928 36.3415 25.9193 36.5659 26.6004 36.5659H31.4358V37.4247H26.3279C25.1702 37.4247 24.6253 36.8977 24.6253 35.9121V33.0237H31.426V33.8825H25.7831V34.7412H31.1925V35.5853H25.7831V35.7316L25.7928 35.7267ZM17.5036 34.5558C17.1436 34.5265 17.0852 34.3996 17.0852 34.185C17.0852 33.9898 17.1922 33.8727 17.4647 33.8727H22.806V33.0237H17.3285C16.5501 33.0237 16.015 33.3262 16.015 34.1947C16.015 35.0632 16.4139 35.3657 17.309 35.4438L21.6385 35.8048C21.9693 35.8341 22.0666 35.9414 22.0666 36.1854C22.0666 36.4098 21.9693 36.5562 21.6677 36.5562H16.2291V37.4149H21.7552C22.7087 37.4149 23.127 37.0343 23.127 36.1366C23.127 35.3169 22.7476 34.9851 21.8233 34.9071L17.5036 34.5558Z" fill="#19191B"/>
</g>
<defs>
<clipPath id="clip0_601_50237">
<rect width="32" height="25.4247" fill="white" transform="translate(16 12)"/>
</clipPath>
</defs>
</svg>
