<svg width="64" height="45" viewBox="0 0 64 45" fill="none" xmlns="http://www.w3.org/2000/svg">
<g clip-path="url(#clip0_601_50273)">
<path d="M32 12.1437C23.2459 12.1437 16.1479 16.7354 16.1479 22.3979C16.1479 28.0625 23.2459 32.6562 32 32.6562C40.7542 32.6562 47.8521 28.0646 47.8521 22.3979C47.8521 16.7312 40.7542 12.1437 32 12.1437ZM32 28.2542C30.6979 28.2542 29.6354 25.6896 29.5688 22.4625C30.3521 22.5312 31.1667 22.5687 32 22.5687C32.8334 22.5687 33.6479 22.5312 34.4313 22.4625C34.3646 25.6875 33.3021 28.2542 32 28.2542ZM29.7292 19.9C30.0834 17.6187 30.9667 16 32 16C33.0334 16 33.9167 17.6187 34.2709 19.9C33.5438 19.9646 32.7854 20 32 20C31.2146 20 30.4563 19.9646 29.7292 19.9ZM32 13.6271C30.3 13.6271 28.85 16.1729 28.3146 19.7271C25.0917 19.225 22.8417 18.0792 22.8417 16.7479C22.8417 14.9521 26.9417 13.4958 32 13.4958C37.0584 13.4958 41.1584 14.9521 41.1584 16.7479C41.1584 18.0792 38.9084 19.225 35.6854 19.7271C35.15 16.1729 33.7 13.6271 32 13.6271ZM18.4209 22.0146C18.4209 20.2771 19.0896 18.6458 20.2542 17.2458C20.2417 17.3437 20.2334 17.4437 20.2334 17.5437C20.2334 19.7333 23.5167 21.6 28.0979 22.2875C28.0938 22.4458 28.0938 22.6062 28.0938 22.7667C28.0938 26.8479 29.2375 30.3042 30.8188 31.4771C23.8709 31.0583 18.4209 26.9812 18.4209 22.0146ZM33.1813 31.4771C34.7625 30.3042 35.9063 26.8479 35.9063 22.7667C35.9063 22.6042 35.9042 22.4458 35.9021 22.2875C40.4813 21.6 43.7667 19.7354 43.7667 17.5437C43.7667 17.4437 43.7584 17.3437 43.7459 17.2458C44.9104 18.65 45.5792 20.2771 45.5792 22.0146C45.5792 26.9812 40.1292 31.0583 33.1813 31.4771Z" fill="#282830"/>
</g>
<defs>
<clipPath id="clip0_601_50273">
<rect width="32" height="20.8" fill="white" transform="translate(16 12)"/>
</clipPath>
</defs>
</svg>
